SplineFontDB: 3.2
FontName: CursiveSans-Book
FullName: Cursive Sans Book
FamilyName: Cursive Sans
Weight: Book
Copyright: Copyright (c) 2020-2024 by Wojciech Kalinowski "wmk69" with Reserved Font Name "CursiveSans-Book".\nThis Font Software is licensed under the SIL Open Font License, Version 1.1.
Version: 3.1.0; 2022-02-18
ItalicAngle: -15
UnderlinePosition: -80
UnderlineWidth: 200
Ascent: 1638
Descent: 410
InvalidEm: 0
LayerCount: 2
Layer: 0 1 "Warstwa t+AUIA-a" 1
Layer: 1 1 "Plan pierwszy" 0
XUID: [1021 783 23647091 4037008]
StyleMap: 0x0001
FSType: 0
OS2Version: 3
OS2_WeightWidthSlopeOnly: 0
OS2_UseTypoMetrics: 1
CreationTime: 1260698820
ModificationTime: 1645208889
PfmFamily: 33
TTFWeight: 400
TTFWidth: 5
LineGap: 300
VLineGap: 0
Panose: 2 11 5 3 6 3 8 13 5 4
OS2TypoAscent: 1950
OS2TypoAOffset: 0
OS2TypoDescent: -537
OS2TypoDOffset: 0
OS2TypoLinegap: 300
OS2WinAscent: 1950
OS2WinAOffset: 0
OS2WinDescent: 537
OS2WinDOffset: 0
HheadAscent: 1950
HheadAOffset: 0
HheadDescent: -537
HheadDOffset: 0
OS2SubXSize: 1434
OS2SubYSize: 1331
OS2SubXOff: 0
OS2SubYOff: 287
OS2SupXSize: 1434
OS2SupYSize: 1331
OS2SupXOff: 0
OS2SupYOff: 977
OS2StrikeYSize: 102
OS2StrikeYPos: 512
OS2CapHeight: 1530
OS2XHeight: 1120
OS2Vendor: '    '
OS2CodePages: 20000093.00000000
OS2UnicodeRanges: 8000002f.4000204b.00000000.00000000
Lookup: 258 0 0 "'kern' Horizontal Kerning lookup 0" { "'kern' Horizontal Kerning lookup 0-1 subtable" [307,0,4] } ['kern' ('DFLT' <'dflt' > 'grek' <'dflt' > 'latn' <'dflt' > ) ]
MarkAttachClasses: 1
DEI: 91125
KernClass2: 79 63 "'kern' Horizontal Kerning lookup 0-1 subtable"
 84 A Agrave Aacute Acircumflex Atilde Adieresis Aring Amacron Abreve Aogonek Aringacute
 17 B uni1E02 uni1E9E
 47 C Ccedilla Cacute Ccircumflex Cdotaccent Ccaron
 27 D Eth Dcaron Dcroat uni1E0A
 92 E AE Egrave Eacute Ecircumflex Edieresis Emacron Ebreve Edotaccent Eogonek Ecaron OE AEacute
 9 F uni1E1E
 44 G Gcircumflex Gbreve Gdotaccent Gcommaaccent
 18 H Hcircumflex Hbar

StartChar: .notdef
Encoding: 65536 -1 0
Width: 994
Flags: W
HStem: 0 68<278 752> 1442 68<646 1120>
VStem: 150 694<0 694> 555 694<816 1510>
DStem2: 150 0 259.779 0 0.258819 0.965926<98.8118 1521.24> 733.779 0 844 0 0.258819 0.965926<70.3988 1492.83>
LayerCount: 2
Fore
SplineSet
150 0 m 1,0,-1
 555 1510 l 1,1,-1
 1249 1510 l 1,2,-1
 844 0 l 1,3,-1
 150 0 l 1,0,-1
278 68 m 1,4,-1
 752 68 l 1,5,-1
 1120 1442 l 1,6,-1
 646 1442 l 1,7,-1
 278 68 l 1,4,-1
EndSplineSet
Validated: 1
EndChar

StartChar: exclam
Encoding: 33 33 4
Width: 659
GlyphClass: 2
Flags: W
HStem: -20 264<269.191 450.324> 1510 20G<693.25 751.75>
VStem: 230 259<19.7072 204.293> 575 262<1263.78 1486.06>
LayerCount: 2
Fore
SplineSet
360 -20 m 128,-1,1
 306 -20 306 -20 268 18.5 c 128,-1,2
 230 57 230 57 230 112 c 128,-1,3
 230 167 230 167 268 205.5 c 128,-1,4
 306 244 306 244 360 244 c 128,-1,5
 414 244 414 244 451.5 205.5 c 128,-1,6
 489 167 489 167 489 112 c 128,-1,7
 489 57 489 57 451.5 18.5 c 128,-1,0
 414 -20 414 -20 360 -20 c 128,-1,1
722.5 1530 m 128,-1,9
 781 1530 781 1530 814 1487 c 0,10,11
 837 1457 837 1457 837 1412 c 0,12,13
 837 1381 837 1381 825 1347 c 2,14,-1
 474 350 l 2,15,16
 463 320 463 320 436 320 c 2,17,-1
 394 320 l 2,18,19
 371 320 371 320 371 341 c 0,20,21
 371 345 371 345 372 350 c 2,22,-1
 570 1376 l 2,23,24
 572 1385 572 1385 575 1398 c 0,25,26
 589 1457 589 1457 624 1492 c 0,27,8
 664 1530 664 1530 722.5 1530 c 128,-1,9
EndSplineSet
Validated: 1
EndChar

StartChar: quotedbl
Encoding: 34 34 5
Width: 629
GlyphClass: 2
Flags: W
HStem: 1141 409<503 545.591 795 837.591>
VStem: 503 164<1296.69 1548.15> 795 164<1296.69 1548.15>
LayerCount: 2
Fore
SplineSet
757 1550 m 1,0,1
 938 1550 l 1,2,3
 959 1503 959 1503 959 1451 c 0,4,5
 959 1416 959 1416 949 1379 c 0,6,7
 919 1267 919 1267 799 1141 c 1,8,-1
 678 1141 l 1,9,10
 759 1250 759 1250 784 1343 c 0,11,12
 795 1384 795 1384 795 1421 c 0,13,14
 795 1491 795 1491 757 1550 c 1,0,1
465 1550 m 1,15,-1
 646 1550 l 1,16,17
 667 1503 667 1503 667 1451 c 0,18,19
 667 1416 667 1416 657 1379 c 0,20,21
 627 1267 627 1267 507 1141 c 1,22,-1
 386 1141 l 1,23,24
 467 1250 467 1250 492 1343 c 0,25,26
 503 1384 503 1384 503 1421 c 0,27,28
 503 1491 503 1491 465 1550 c 1,15,-1
EndSplineSet
Validated: 1
EndChar

StartChar: numbersign
Encoding: 35 35 6
Width: 1354
GlyphClass: 2
Flags: W
HStem: 517 131<362.125 579 746 921 1088 1304.18> 859 131<453.82 670 837 1012 1179 1395.88>
DStem2: 514.282 276 646.282 276 0.258819 0.965926<23.4604 249.538 419.297 603.438 773.197 998.309> 856.282 276 988.282 276 0.258819 0.965926<23.4604 249.538 419.297 603.438 773.197 998.309>
LayerCount: 2
Fore
SplineSet
810 1230 m 2,0,1
 862 1230 l 2,2,3
 894 1230 894 1230 894 1208 c 0,4,5
 894 1201 894 1201 891 1190 c 2,6,-1
 837 990 l 1,7,-1
 1047 990 l 1,8,-1
 1101 1190 l 2,9,10
 1112 1230 1112 1230 1152 1230 c 2,11,-1
 1204 1230 l 2,12,13
 1236 1230 1236 1230 1236 1208 c 0,14,15
 1236 1201 1236 1201 1233 1190 c 2,16,-1
 1179 990 l 1,17,-1
 1379 990 l 2,18,19
 1411 990 1411 990 1411 965 c 0,20,21
 1411 957 1411 957 1409 950 c 2,22,-1
 1395 899 l 2,23,24
 1384 859 1384 859 1344 859 c 2,25,-1
 1144 859 l 1,26,-1
 1088 648 l 1,27,-1
 1288 648 l 2,28,29
 1320 648 1320 648 1320 623 c 0,30,31
 1320 615 1320 615 1318 608 c 2,32,-1
 1303 557 l 2,33,34
 1291 517 1291 517 1253 517 c 2,35,-1
 1053 517 l 1,36,-1
 999 316 l 2,37,38
 988 276 988 276 948 276 c 2,39,-1
 896 276 l 2,40,41
 864 276 864 276 864 298 c 0,42,43
 864 305 864 305 867 316 c 2,44,-1
 921 517 l 1,45,-1
 711 517 l 1,46,-1
 657 316 l 2,47,48
 646 276 646 276 606 276 c 2,49,-1
 554 276 l 2,50,51
 522 276 522 276 522 298 c 0,52,53
 522 305 522 305 525 316 c 2,54,-1
 579 517 l 1,55,-1
 379 517 l 2,56,57
 347 517 347 517 347 542 c 0,58,59
 347 550 347 550 349 557 c 2,60,-1
 363 608 l 2,61,62
 374 648 374 648 414 648 c 2,63,-1
 614 648 l 1,64,-1
 670 859 l 1,65,-1
 470 859 l 2,66,67
 438 859 438 859 438 884 c 0,68,69
 438 892 438 892 440 899 c 2,70,-1
 455 950 l 2,71,72
 467 990 467 990 505 990 c 2,73,-1
 705 990 l 1,74,-1
 759 1190 l 2,75,76
 770 1230 770 1230 810 1230 c 2,0,1
746 648 m 1,77,-1
 956 648 l 1,78,-1
 1012 859 l 1,79,-1
 802 859 l 1,80,-1
 746 648 l 1,77,-1
EndSplineSet
Validated: 1
EndChar

StartChar: dollar
Encoding: 36 36 7
Width: 1261
GlyphClass: 2
Flags: W
HStem: -20 75<426.75 565> 228 264<292.844 439.809> 1096 264<1115.19 1262.16> 1455 74<1080 1189.77>
VStem: 202 277<267.707 442.346> 531 196<1049.8 1265.59> 1068 210<380.199 636.297> 1076 280<1145.65 1320.29>
DStem2: 530.282 -150 630.282 -150 0.258819 0.965926<23.4604 134.556 248.494 955.586 1185.37 1647.94 1764.07 1874.84>
LayerCount: 2
Fore
SplineSet
565 -20 m 1,0,1
 393 -20 393 -20 285 101 c 0,2,3
 202 194 202 194 202 308 c 0,4,5
 202 346 202 346 213 381 c 0,6,7
 227 423 227 423 254 451 c 0,8,9
 294 492 294 492 350 492 c 0,10,11
 404 492 404 492 441.5 453.5 c 128,-1,12
 479 415 479 415 479 360 c 128,-1,13
 479 305 479 305 441 266.5 c 128,-1,14
 403 228 403 228 349 228 c 0,15,16
 319 228 319 228 292 243 c 1,17,18
 376 55 376 55 585 55 c 9,19,-1
 782 792 l 1,20,-1
 742 812 l 2,21,22
 531 918 531 918 531 1091 c 0,23,24
 531 1137 531 1137 545 1189 c 0,25,26
 583 1331 583 1331 730 1438 c 0,27,28
 835 1514 835 1514 979 1527 c 1,29,-1
 1004 1620 l 2,30,31
 1015 1660 1015 1660 1055 1660 c 2,32,-1
 1075 1660 l 2,33,34
 1106 1660 1106 1660 1106 1637 c 0,35,36
 1106 1628 1106 1628 1104 1620 c 2,37,-1
 1080 1529 l 1,38,39
 1287 1513 1287 1513 1345 1347 c 0,40,41
 1356 1315 1356 1315 1356 1280 c 0,42,43
 1356 1239 1356 1239 1345 1204 c 128,-1,44
 1334 1169 1334 1169 1304 1137 c 0,45,46
 1264 1096 1264 1096 1205 1096 c 0,47,48
 1151 1096 1151 1096 1113.5 1134.5 c 128,-1,49
 1076 1173 1076 1173 1076 1228 c 128,-1,50
 1076 1283 1076 1283 1114 1321.5 c 128,-1,51
 1152 1360 1152 1360 1206 1360 c 0,52,53
 1236 1360 1236 1360 1263 1345 c 1,54,55
 1193 1455 1193 1455 1060 1455 c 1,56,-1
 925 950 l 1,57,-1
 1042 893 l 2,58,59
 1278 778 1278 778 1278 580 c 0,60,61
 1278 516 1278 516 1263 460 c 0,62,63
 1210 261 1210 261 1008 113 c 0,64,65
 859 4 859 4 666 -16 c 1,66,-1
 641 -110 l 2,67,68
 630 -150 630 -150 590 -150 c 2,69,-1
 570 -150 l 2,70,71
 538 -150 538 -150 538 -128 c 0,72,73
 538 -121 538 -121 541 -110 c 2,74,-1
 565 -20 l 1,0,1
837 995 m 1,75,-1
 956 1442 l 1,76,77
 895 1426 895 1426 848 1390 c 0,78,79
 765 1326 765 1326 735 1222 c 0,80,81
 727 1194 727 1194 727 1168 c 0,82,83
 727 1060 727 1060 837 995 c 1,75,-1
871 748 m 1,84,-1
 688 65 l 1,85,86
 821 92 821 92 915 187 c 0,87,88
 1019 291 1019 291 1056 424 c 0,89,90
 1068 467 1068 467 1068 506 c 0,91,92
 1068 650 1068 650 899 734 c 2,93,-1
 871 748 l 1,84,-1
EndSplineSet
Validated: 1
EndChar

StartChar: percent
Encoding: 37 37 8
Width: 1589
GlyphClass: 2
Flags: W
HStem: -20 59<1064.46 1219.14> 605 59<1205.09 1359.91> 846 59<633.461 788.143> 1471 59<774.087 928.909>
VStem: 453 152<936.203 1248.42> 884 152<70.2031 382.419> 956 154<1123.86 1440> 1387 154<257.862 573.999>
DStem2: 325 65 439 -12 0.645378 0.763863<-37.1214 1957.41>
LayerCount: 2
Fore
SplineSet
1304 664 m 128,-1,1
 1422 664 1422 664 1490 582 c 0,2,3
 1541 520 1541 520 1541 431 c 0,4,5
 1541 381 1541 381 1525 322 c 0,6,7
 1481 158 1481 158 1351 62 c 0,8,9
 1239 -20 1239 -20 1121 -20 c 128,-1,10
 1003 -20 1003 -20 935 62 c 0,11,12
 884 123 884 123 884 213 c 0,13,14
 884 265 884 265 899 322 c 0,15,16
 943 488 943 488 1074 582 c 0,17,0
 1186 664 1186 664 1304 664 c 128,-1,1
1288 605 m 0,18,19
 1222 605 1222 605 1159 535 c 0,20,21
 1101 471 1101 471 1063 322 c 0,22,23
 1036 218 1036 218 1036 156 c 0,24,25
 1036 125 1036 125 1043 106 c 0,26,27
 1065 39 1065 39 1135 39 c 0,28,29
 1202 39 1202 39 1264 109 c 0,30,31
 1323 175 1323 175 1361 322 c 0,32,33
 1387 423 1387 423 1387 485 c 0,34,35
 1387 519 1387 519 1379 542 c 0,36,37
 1358 605 1358 605 1288 605 c 0,18,19
873 1530 m 128,-1,39
 991 1530 991 1530 1059 1448 c 0,40,41
 1110 1386 1110 1386 1110 1297 c 0,42,43
 1110 1247 1110 1247 1094 1188 c 0,44,45
 1050 1024 1050 1024 920 928 c 0,46,47
 808 846 808 846 690 846 c 128,-1,48
 572 846 572 846 504 928 c 0,49,50
 453 989 453 989 453 1079 c 0,51,52
 453 1130 453 1130 468 1188 c 0,53,54
 512 1354 512 1354 643 1448 c 0,55,38
 755 1530 755 1530 873 1530 c 128,-1,39
857 1471 m 0,56,57
 791 1471 791 1471 728 1401 c 0,58,59
 670 1337 670 1337 632 1188 c 0,60,61
 605 1084 605 1084 605 1022 c 0,62,63
 605 991 605 991 612 972 c 0,64,65
 634 905 634 905 704 905 c 0,66,67
 771 905 771 905 833 975 c 0,68,69
 892 1041 892 1041 930 1188 c 0,70,71
 956 1289 956 1289 956 1351 c 0,72,73
 956 1385 956 1385 948 1408 c 0,74,75
 927 1471 927 1471 857 1471 c 0,56,57
391 -40 m 0,76,77
 379 -40 379 -40 366 -31 c 2,78,-1
 325 -3 l 2,79,80
 307 9 307 9 307 27 c 0,81,82
 307 31 307 31 308 36 c 0,83,84
 311 48 311 48 325 65 c 2,85,-1
 1556 1522 l 2,86,87
 1580 1550 1580 1550 1601 1550 c 0,88,89
 1616 1550 1616 1550 1629 1541 c 2,90,-1
 1669 1513 l 2,91,92
 1686 1501 1686 1501 1686 1483 c 0,93,94
 1686 1477 1686 1477 1685 1473 c 0,95,96
 1682 1460 1682 1460 1669 1445 c 2,97,-1
 439 -12 l 2,98,99
 415 -40 415 -40 391 -40 c 0,76,77
EndSplineSet
Validated: 1
EndChar

StartChar: ampersand
Encoding: 38 38 9
Width: 1632
GlyphClass: 2
Flags: W
HStem: -20 75<558.37 880.461> 0 21G<1227 1354.5> 1100 264<1084.19 1239.91> 1465 65<931.231 1174.85>
VStem: 228 214<166.376 532.191> 561 193<978.991 1278.2> 1045 277<1149.65 1324.29> 1400 259<787.893 980.293>
DStem2: 1148 872 969 856 0.261826 -0.965115<-16.1477 460.895 511.114 597.085 641.278 867.284>
LayerCount: 2
Fore
SplineSet
1251 0 m 2,0,1
 1203 0 1203 0 1189 50 c 2,2,-1
 1146 207 l 1,3,4
 1110 168 1110 168 1053 120 c 0,5,6
 887 -20 887 -20 672 -20 c 0,7,8
 431 -20 431 -20 318 104 c 0,9,10
 228 203 228 203 228 340 c 0,11,12
 228 401 228 401 246 470 c 0,13,14
 292 643 292 643 424 755 c 0,15,16
 564 873 564 873 739 886 c 1,17,18
 657 913 657 913 613 969 c 0,19,20
 561 1035 561 1035 561 1116 c 0,21,22
 561 1154 561 1154 572 1195 c 0,23,24
 614 1350 614 1350 764 1447 c 0,25,26
 893 1530 893 1530 1048 1530 c 0,27,28
 1207 1530 1207 1530 1282 1414 c 0,29,30
 1322 1352 1322 1352 1322 1284 c 0,31,32
 1322 1246 1322 1246 1311 1211 c 0,33,34
 1297 1169 1297 1169 1270 1141 c 0,35,36
 1230 1100 1230 1100 1174 1100 c 0,37,38
 1120 1100 1120 1100 1082.5 1138.5 c 128,-1,39
 1045 1177 1045 1177 1045 1232 c 128,-1,40
 1045 1287 1045 1287 1083 1325.5 c 128,-1,41
 1121 1364 1121 1364 1175 1364 c 0,42,43
 1206 1364 1206 1364 1241 1345 c 1,44,45
 1195 1465 1195 1465 1057 1465 c 0,46,47
 941 1465 941 1465 860 1376 c 0,48,49
 796 1306 796 1306 769 1204 c 0,50,51
 754 1148 754 1148 754 1102 c 0,52,53
 754 1037 754 1037 784 993 c 0,54,55
 850 898 850 898 1148 872 c 1,56,-1
 1268 427 l 1,57,58
 1429 612 1429 612 1520 758 c 1,59,60
 1475 758 1475 758 1438 794 c 0,61,62
 1400 831 1400 831 1400 888 c 0,63,64
 1400 943 1400 943 1438 981.5 c 128,-1,65
 1476 1020 1476 1020 1530 1020 c 128,-1,66
 1584 1020 1584 1020 1621.5 981.5 c 128,-1,67
 1659 943 1659 943 1659 888 c 0,68,69
 1659 845 1659 845 1630 797 c 0,70,71
 1616 773 1616 773 1578 720 c 0,72,73
 1439 525 1439 525 1288 351 c 1,74,-1
 1371 50 l 2,75,76
 1375 35 1375 35 1375 27 c 0,77,78
 1375 0 1375 0 1334 0 c 2,79,-1
 1251 0 l 2,0,1
969 856 m 1,80,81
 785 836 785 836 663 755 c 0,82,83
 516 657 516 657 466 470 c 0,84,85
 442 381 442 381 442 312 c 0,86,87
 442 235 442 235 472 182 c 0,88,89
 543 55 543 55 699 55 c 0,90,91
 866 55 866 55 1012 168 c 0,92,93
 1078 219 1078 219 1127 277 c 1,94,-1
 969 856 l 1,80,81
EndSplineSet
Validated: 1
EndChar

StartChar: quotesingle
Encoding: 39 39 10
Width: 337
GlyphClass: 2
Flags: W
HStem: 1141 409<503 545.591>
VStem: 503 164<1296.69 1548.15>
LayerCount: 2
Fore
SplineSet
465 1550 m 1,0,1
 646 1550 l 1,2,3
 667 1503 667 1503 667 1451 c 0,4,5
 667 1416 667 1416 657 1379 c 0,6,7
 627 1267 627 1267 507 1141 c 1,8,-1
 386 1141 l 1,9,10
 467 1250 467 1250 492 1343 c 0,11,12
 503 1384 503 1384 503 1421 c 0,13,14
 503 1491 503 1491 465 1550 c 1,0,1
EndSplineSet
Validated: 1
EndChar

StartChar: parenleft
Encoding: 40 40 11
Width: 670
GlyphClass: 2
Flags: W
VStem: 346 173<8.1687 630.036>
LayerCount: 2
Fore
SplineSet
1005 1730 m 1,0,-1
 1073 1691 l 1,1,2
 903 1490 903 1490 786 1261 c 0,3,4
 669 1033 669 1033 594 755 c 0,5,6
 520 479 520 479 519 253 c 0,7,8
 519 25 519 25 572 -181 c 1,9,-1
 482 -220 l 1,10,11
 376 -22 376 -22 353 208 c 0,12,13
 346 276 346 276 346 346 c 0,14,15
 346 546 346 546 402 755 c 0,16,17
 483 1058 483 1058 646 1302 c 0,18,19
 783 1506 783 1506 1005 1730 c 1,0,-1
EndSplineSet
Validated: 1
EndChar

StartChar: parenright
Encoding: 41 41 12
Width: 670
GlyphClass: 2
Flags: W
VStem: 503 90<1626.64 1697.21> 560 171<900.668 1472.85>
LayerCount: 2
Fore
SplineSet
593 1730 m 1,0,1
 695 1506 695 1506 722 1302 c 0,2,3
 731 1234 731 1234 731 1160 c 0,4,5
 731 973 731 973 672 755 c 0,6,7
 594 467 594 467 429 208 c 0,8,9
 282 -22 282 -22 70 -220 c 1,10,-1
 2 -181 l 1,11,12
 162 22 162 22 283 247 c 0,13,14
 405 473 405 473 480 755 c 0,15,16
 560 1052 560 1052 560 1295 c 0,17,18
 560 1506 560 1506 503 1691 c 1,19,-1
 593 1730 l 1,0,1
EndSplineSet
Validated: 1
EndChar

StartChar: asterisk
Encoding: 42 42 13
Width: 891
GlyphClass: 2
Flags: W
LayerCount: 2
Fore
SplineSet
853 1550 m 1,0,-1
 864 1550 l 1,1,-1
 870 1295 l 1,2,-1
 1003 1350 l 1,3,-1
 917 1237 l 1,4,-1
 1152 1162 l 1,5,-1
 1149 1151 l 1,6,-1
 875 1077 l 1,7,-1
 898 959 l 1,8,-1
 800 1014 l 1,9,-1
 656 759 l 1,10,-1
 645 759 l 1,11,-1
 640 1014 l 1,12,-1
 507 959 l 1,13,-1
 592 1072 l 1,14,-1
 357 1147 l 1,15,-1
 360 1158 l 1,16,-1
 635 1232 l 1,17,-1
 612 1350 l 1,18,-1
 710 1295 l 1,19,-1
 853 1550 l 1,0,-1
EndSplineSet
Validated: 1
EndChar

StartChar: plus
Encoding: 43 43 14
Width: 1133
GlyphClass: 2
Flags: W
HStem: 680 150<360.77 674 864 1176.94>
DStem2: 582.603 338 732.603 338 0.258819 0.965926<32.8771 354.002 548.067 869.45>
LayerCount: 2
Fore
SplineSet
856 1172 m 2,0,-1
 906 1172 l 2,1,2
 946 1172 946 1172 946 1141 c 0,3,4
 946 1133 946 1133 943 1122 c 2,5,-1
 864 830 l 1,6,-1
 1155 830 l 2,7,8
 1195 830 1195 830 1195 799 c 0,9,10
 1195 791 1195 791 1192 780 c 2,11,-1
 1179 730 l 2,12,13
 1166 680 1166 680 1115 680 c 2,14,-1
 824 680 l 1,15,-1
 746 388 l 2,16,17
 733 338 733 338 683 338 c 2,18,-1
 633 338 l 2,19,20
 593 338 593 338 593 369 c 0,21,22
 593 377 593 377 596 388 c 2,23,-1
 674 680 l 1,24,-1
 382 680 l 2,25,26
 343 680 343 680 343 711 c 0,27,28
 343 720 343 720 346 730 c 2,29,-1
 359 780 l 2,30,31
 372 830 372 830 422 830 c 2,32,-1
 714 830 l 1,33,-1
 793 1122 l 2,34,35
 806 1172 806 1172 856 1172 c 2,0,-1
EndSplineSet
Validated: 1
EndChar

StartChar: comma
Encoding: 44 44 15
Width: 368
GlyphClass: 2
Flags: W
HStem: -183 404<52 198>
VStem: 77 260<31 186.161>
LayerCount: 2
Fore
SplineSet
198 221 m 0,0,1
 218 221 218 221 237 216 c 0,2,3
 289 202 289 202 315 159 c 0,4,5
 337 123 337 123 337 76 c 0,6,7
 337 54 337 54 331 31 c 0,8,9
 312 -39 312 -39 250 -98 c 0,10,11
 159 -183 159 -183 52 -183 c 0,12,13
 7 -183 7 -183 -35 -172 c 1,14,-1
 -32 -159 l 1,15,16
 55 -137 55 -137 119 -84 c 0,17,18
 151 -57 151 -57 176 -18 c 1,19,20
 114 -1 114 -1 93 36 c 0,21,22
 77 65 77 65 77 96 c 0,23,24
 77 116 77 116 82 132 c 0,25,26
 96 179 96 179 139 205 c 0,27,28
 166 221 166 221 198 221 c 0,0,1
EndSplineSet
Validated: 1
EndChar

StartChar: hyphen
Encoding: 45 45 16
Width: 1133
GlyphClass: 2
Flags: W
HStem: 680 150<360.77 1176.94>
LayerCount: 2
Fore
SplineSet
422 830 m 2,0,-1
 1155 830 l 2,1,2
 1195 830 1195 830 1195 799 c 0,3,4
 1195 791 1195 791 1192 780 c 2,5,-1
 1179 730 l 2,6,7
 1166 680 1166 680 1115 680 c 2,8,-1
 382 680 l 2,9,10
 343 680 343 680 343 711 c 0,11,12
 343 720 343 720 346 730 c 2,13,-1
 359 780 l 2,14,15
 372 830 372 830 422 830 c 2,0,-1
EndSplineSet
Validated: 1
EndChar

StartChar: period
Encoding: 46 46 17
Width: 359
GlyphClass: 2
Flags: W
HStem: -20 264<119.191 300.324>
VStem: 80 259<19.7072 204.293>
LayerCount: 2
Fore
SplineSet
210 -20 m 128,-1,1
 156 -20 156 -20 118 18.5 c 128,-1,2
 80 57 80 57 80 112 c 128,-1,3
 80 167 80 167 118 205.5 c 128,-1,4
 156 244 156 244 210 244 c 128,-1,5
 264 244 264 244 301.5 205.5 c 128,-1,6
 339 167 339 167 339 112 c 128,-1,7
 339 57 339 57 301.5 18.5 c 128,-1,0
 264 -20 264 -20 210 -20 c 128,-1,1
EndSplineSet
Validated: 1
EndChar

StartChar: slash
Encoding: 47 47 18
Width: 1141
GlyphClass: 2
Flags: W
DStem2: 7 -45 120 -122 0.645494 0.763766<-37.1235 2248.95>
LayerCount: 2
Fore
SplineSet
1472 1662 m 0,0,1
 1486 1662 1486 1662 1499 1653 c 2,2,-1
 1539 1625 l 2,3,4
 1557 1612 1557 1612 1557 1594 c 0,5,6
 1557 1590 1557 1590 1556 1586 c 0,7,8
 1553 1573 1553 1573 1539 1557 c 2,9,-1
 120 -122 l 2,10,11
 96 -150 96 -150 73 -150 c 0,12,13
 60 -150 60 -150 47 -141 c 2,14,-1
 7 -113 l 2,15,16
 -11 -100 -11 -100 -11 -83 c 0,17,18
 -11 -78 -11 -78 -10 -74 c 0,19,20
 -7 -62 -7 -62 7 -45 c 2,21,-1
 1426 1634 l 2,22,23
 1450 1662 1450 1662 1472 1662 c 0,0,1
EndSplineSet
Validated: 1
EndChar

StartChar: zero
Encoding: 48 48 19
Width: 1364
GlyphClass: 2
Flags: W
HStem: -20 75<566.521 849.138> 1455 75<927.836 1199.25>
VStem: 259 203<223.049 693.812> 1307 202<818.515 1286.15>
LayerCount: 2
Fore
SplineSet
697 55 m 0,0,1
 848 55 848 55 972 185 c 0,2,3
 1143 366 1143 366 1246 755 c 0,4,5
 1307 985 1307 985 1307 1139 c 0,6,7
 1307 1252 1307 1252 1274 1325 c 0,8,9
 1215 1455 1215 1455 1072 1455 c 0,10,11
 934 1455 934 1455 803 1324 c 0,12,13
 626 1148 626 1148 522 755 c 0,14,15
 462 527 462 527 462 372 c 0,16,17
 462 259 462 259 494 184 c 0,18,19
 550 55 550 55 697 55 c 0,0,1
677 -20 m 0,20,21
 467 -20 467 -20 354 134 c 0,22,23
 259 265 259 265 259 461 c 0,24,25
 259 593 259 593 302 755 c 0,26,27
 408 1152 408 1152 687 1376 c 0,28,29
 878 1530 878 1530 1092 1530 c 128,-1,30
 1306 1530 1306 1530 1415 1376 c 0,31,32
 1509 1242 1509 1242 1509 1047 c 0,33,34
 1509 915 1509 915 1466 755 c 0,35,36
 1358 353 1358 353 1084 139 c 0,37,38
 880 -20 880 -20 677 -20 c 0,20,21
EndSplineSet
Validated: 1
EndChar

StartChar: one
Encoding: 49 49 20
Width: 620
GlyphClass: 2
Flags: W
HStem: 0 21G<240 385>
VStem: 810 15<1543.4 1550>
DStem2: 209.603 0 409.603 0 0.258819 0.965926<39.8087 1113.43>
LayerCount: 2
Fore
SplineSet
260 0 m 2,0,1
 220 0 220 0 220 31 c 0,2,3
 220 39 220 39 223 50 c 2,4,-1
 477 995 l 2,5,6
 489 1042 489 1042 489 1079 c 0,7,8
 489 1196 489 1196 370 1230 c 1,9,10
 372 1237 372 1237 374 1245 c 9,11,12
 635 1338 635 1338 810 1550 c 1,13,-1
 825 1550 l 1,14,-1
 423 50 l 2,15,16
 410 0 410 0 360 0 c 2,17,-1
 260 0 l 2,0,1
EndSplineSet
Validated: 1
EndChar

StartChar: two
Encoding: 50 50 21
Width: 1281
GlyphClass: 2
Flags: W
HStem: -10 180<750.076 995.099> 80 181<319.626 623.957> 908 262<520.441 638.324> 1434 96<793.85 1092.97>
VStem: 418 259<947.707 1131.32> 1174 233<1034.03 1355.45>
LayerCount: 2
Fore
SplineSet
117 -10 m 1,0,1
 267 269 267 269 475 449 c 0,2,3
 685 631 685 631 878 755 c 0,4,5
 1107 901 1107 901 1159 1102 c 0,6,7
 1174 1160 1174 1160 1174 1209 c 0,8,9
 1174 1278 1174 1278 1148 1327 c 0,10,11
 1090 1434 1090 1434 937 1434 c 0,12,13
 795 1434 795 1434 677 1346 c 0,14,15
 576 1271 576 1271 520 1166 c 1,16,17
 533 1170 533 1170 548 1170 c 0,18,19
 602 1170 602 1170 639.5 1132.5 c 128,-1,20
 677 1095 677 1095 677 1040 c 128,-1,21
 677 985 677 985 639.5 946.5 c 128,-1,22
 602 908 602 908 548 908 c 128,-1,23
 494 908 494 908 456 946.5 c 128,-1,24
 418 985 418 985 418 1040 c 0,25,26
 418 1221 418 1221 630 1390 c 0,27,28
 805 1530 805 1530 1041 1530 c 0,29,30
 1252 1530 1252 1530 1344 1405 c 0,31,32
 1406 1320 1406 1320 1407 1219 c 0,33,34
 1407 1171 1407 1171 1393 1120 c 0,35,36
 1324 860 1324 860 1020 698 c 0,37,38
 736 546 736 546 606 452 c 0,39,40
 412 311 412 311 335 191 c 1,41,42
 440 261 440 261 559 261 c 0,43,44
 634 261 634 261 749 215 c 0,45,46
 861 170 861 170 945 170 c 0,47,48
 1083 170 1083 170 1218 268 c 1,49,-1
 1233 268 l 1,50,51
 1067 -10 1067 -10 801 -10 c 0,52,53
 736 -10 736 -10 604 43 c 0,54,55
 512 80 512 80 403 80 c 0,56,57
 263 80 263 80 132 -10 c 1,58,-1
 117 -10 l 1,0,1
EndSplineSet
Validated: 1
EndChar

StartChar: three
Encoding: 51 51 22
Width: 1154
GlyphClass: 2
Flags: W
HStem: -20 75<336.951 647.752> 160 264<243.844 390.809> 1465 65<733.279 990.662>
VStem: 155 275<199.707 376.881> 507 258<1139.22 1315.93> 957 221<393.976 733.335> 1045 190<1118.75 1418.62>
LayerCount: 2
Fore
SplineSet
501 -20 m 0,0,1
 357 -20 357 -20 261 58 c 0,2,3
 155 145 155 145 155 257 c 0,4,5
 155 290 155 290 166 321 c 0,6,7
 178 357 178 357 205 383 c 0,8,9
 248 424 248 424 301 424 c 0,10,11
 355 424 355 424 392.5 385.5 c 128,-1,12
 430 347 430 347 430 292 c 128,-1,13
 430 237 430 237 392 198.5 c 128,-1,14
 354 160 354 160 300 160 c 0,15,16
 270 160 270 160 243 175 c 1,17,18
 333 55 333 55 487 55 c 128,-1,19
 641 55 641 55 780 182 c 0,20,21
 890 282 890 282 940 470 c 0,22,23
 957 534 957 534 957 588 c 0,24,25
 957 690 957 690 895 755 c 0,26,27
 817 836 817 836 666 856 c 1,28,-1
 670 871 l 1,29,30
 816 913 816 913 911 995 c 0,31,32
 995 1068 995 1068 1031 1204 c 0,33,34
 1045 1256 1045 1256 1045 1300 c 0,35,36
 1045 1342 1045 1342 1032 1376 c 0,37,38
 997 1465 997 1465 880 1465 c 0,39,40
 724 1465 724 1465 635 1351 c 1,41,42
 696 1351 696 1351 730.5 1317 c 128,-1,43
 765 1283 765 1283 765 1233 c 0,44,45
 765 1177 765 1177 727 1138 c 0,46,47
 689 1100 689 1100 635 1100 c 0,48,49
 577 1100 577 1100 542 1136 c 128,-1,50
 507 1172 507 1172 507 1221 c 0,51,52
 507 1259 507 1259 522 1296 c 0,53,54
 555 1379 555 1379 638 1444 c 0,55,56
 748 1530 748 1530 920 1530 c 0,57,58
 1081 1530 1081 1530 1166 1447 c 0,59,60
 1235 1379 1235 1379 1235 1283 c 0,61,62
 1235 1242 1235 1242 1222 1195 c 0,63,64
 1185 1062 1185 1062 1061 969 c 0,65,66
 1000 923 1000 923 889 886 c 1,67,68
 1060 873 1060 873 1134 757 c 0,69,70
 1178 689 1178 689 1178 596 c 0,71,72
 1178 538 1178 538 1160 470 c 0,73,74
 1101 248 1101 248 892 104 c 0,75,76
 713 -20 713 -20 501 -20 c 0,0,1
EndSplineSet
Validated: 1
EndChar

StartChar: four
Encoding: 52 52 23
Width: 1108
GlyphClass: 2
Flags: W
HStem: 0 21G<728 873> 360 90<281 794 1019 1155.23>
DStem2: 169 464 281 450 0.720698 0.693249<71.0127 1075.99> 697.603 0 897.603 0 0.258819 0.965926<39.8087 372.683 517.85 1187.48>
LayerCount: 2
Fore
SplineSet
748 0 m 2,0,1
 708 0 708 0 708 31 c 0,2,3
 708 39 708 39 711 50 c 2,4,-1
 794 360 l 1,5,-1
 147 360 l 2,6,7
 123 360 123 360 123 376 c 0,8,9
 123 383 123 383 125 390 c 2,10,-1
 131 410 l 2,11,12
 138 435 138 435 169 464 c 2,13,-1
 1298 1550 l 1,14,-1
 1313 1550 l 1,15,-1
 1019 450 l 1,16,-1
 1138 450 l 2,17,18
 1162 450 1162 450 1162 431 c 0,19,20
 1162 427 1162 427 1160 420 c 2,21,-1
 1151 390 l 2,22,23
 1142 360 1142 360 1113 360 c 2,24,-1
 994 360 l 1,25,-1
 911 50 l 2,26,27
 898 0 898 0 848 0 c 2,28,-1
 748 0 l 2,0,1
819 450 m 1,29,-1
 1005 1147 l 1,30,-1
 281 450 l 1,31,-1
 819 450 l 1,29,-1
EndSplineSet
Validated: 1
EndChar

StartChar: five
Encoding: 53 53 24
Width: 1154
GlyphClass: 2
Flags: W
HStem: -20 75<336.951 647.752> 160 264<243.844 390.809> 835 81<609.095 850.246> 1320 190<846.992 1126.04>
VStem: 155 275<199.707 376.881> 959 219<393.976 740.095>
LayerCount: 2
Fore
SplineSet
501 -20 m 0,0,1
 357 -20 357 -20 261 58 c 0,2,3
 155 145 155 145 155 257 c 0,4,5
 155 290 155 290 166 321 c 0,6,7
 178 357 178 357 205 383 c 0,8,9
 248 424 248 424 301 424 c 0,10,11
 355 424 355 424 392.5 385.5 c 128,-1,12
 430 347 430 347 430 292 c 128,-1,13
 430 237 430 237 392 198.5 c 128,-1,14
 354 160 354 160 300 160 c 0,15,16
 270 160 270 160 243 175 c 1,17,18
 333 55 333 55 487 55 c 128,-1,19
 641 55 641 55 780 182 c 0,20,21
 890 282 890 282 940 470 c 0,22,23
 959 541 959 541 959 598 c 0,24,25
 959 685 959 685 915 740 c 0,26,27
 839 835 839 835 692 835 c 0,28,29
 611 835 611 835 530 787 c 1,30,-1
 392 901 l 1,31,-1
 718 1510 l 1,32,-1
 1382 1510 l 1,33,34
 1236 1320 1236 1320 1013 1320 c 0,35,36
 839 1320 839 1320 759 1461 c 1,37,-1
 607 893 l 1,38,39
 694 916 694 916 791 916 c 0,40,41
 984 916 984 916 1094 806 c 0,42,43
 1178 722 1178 722 1178 596 c 0,44,45
 1178 538 1178 538 1160 470 c 0,46,47
 1101 248 1101 248 892 104 c 0,48,49
 713 -20 713 -20 501 -20 c 0,0,1
EndSplineSet
Validated: 1
EndChar

StartChar: six
Encoding: 54 54 25
Width: 1307
GlyphClass: 2
Flags: W
HStem: -20 77<542.865 821.266> 958 77<768.173 1045.75> 1086 264<1217.19 1364.16> 1455 75<969.42 1266.79>
VStem: 267 190<190.049 545.102> 1134 209<468.657 839.325> 1178 275<1133.12 1310.29>
LayerCount: 2
Fore
SplineSet
1117 1530 m 0,0,1
 1264 1530 1264 1530 1352 1453 c 0,2,3
 1453 1367 1453 1367 1453 1253 c 0,4,5
 1453 1220 1453 1220 1442 1189 c 0,6,7
 1430 1153 1430 1153 1403 1127 c 0,8,9
 1363 1086 1363 1086 1307 1086 c 0,10,11
 1253 1086 1253 1086 1215.5 1124.5 c 128,-1,12
 1178 1163 1178 1163 1178 1218 c 128,-1,13
 1178 1273 1178 1273 1216 1311.5 c 128,-1,14
 1254 1350 1254 1350 1308 1350 c 0,15,16
 1338 1350 1338 1350 1365 1335 c 1,17,18
 1267 1455 1267 1455 1121 1455 c 0,19,20
 955 1455 955 1455 807 1295 c 0,21,22
 643 1118 643 1118 572 854 c 1,23,24
 744 1035 744 1035 942 1035 c 0,25,26
 1162 1035 1162 1035 1270 886 c 0,27,28
 1343 785 1343 785 1343 655 c 0,29,30
 1343 586 1343 586 1323 508 c 0,31,32
 1263 285 1263 285 1067 130 c 0,33,34
 878 -20 878 -20 659 -20 c 0,35,36
 435 -20 435 -20 334 147 c 0,37,38
 267 258 267 258 267 419 c 0,39,40
 267 547 267 547 309 705 c 0,41,42
 426 1141 426 1141 705 1371 c 0,43,44
 898 1530 898 1530 1117 1530 c 0,0,1
672 57 m 0,45,46
 830 57 830 57 962 208 c 0,47,48
 1045 303 1045 303 1101 508 c 0,49,50
 1134 634 1134 634 1134 720 c 0,51,52
 1134 770 1134 770 1123 807 c 0,53,54
 1075 958 1075 958 913 958 c 0,55,56
 757 958 757 958 629 807 c 0,57,58
 545 708 545 708 491 508 c 0,59,60
 457 382 457 382 457 295 c 0,61,62
 457 245 457 245 468 208 c 0,63,64
 516 57 516 57 672 57 c 0,45,46
EndSplineSet
Validated: 1
EndChar

StartChar: seven
Encoding: 55 55 26
Width: 1081
GlyphClass: 2
Flags: W
HStem: -20 21G<502.5 568.5> 1250 180<962.598 1270.51> 1340 180<590.715 836.85>
VStem: 382 232<151 424.925>
DStem2: 637 765 916 909 0.72763 0.685969<-23.8156 655.19>
LayerCount: 2
Fore
SplineSet
538 -20 m 0,0,1
 467 -20 467 -20 421 48 c 0,2,3
 382 106 382 106 382 196 c 0,4,5
 382 267 382 267 406 358 c 0,6,7
 464 576 464 576 637 765 c 0,8,9
 719 855 719 855 801 923.5 c 128,-1,10
 883 992 883 992 969 1055 c 0,11,12
 1137 1179 1137 1179 1233 1294 c 1,13,14
 1129 1250 1129 1250 1040 1250 c 128,-1,15
 951 1250 951 1250 837 1295 c 0,16,17
 722 1340 722 1340 641 1340 c 0,18,19
 503 1340 503 1340 368 1242 c 1,20,-1
 353 1242 l 1,21,22
 519 1520 519 1520 784 1520 c 0,23,24
 849 1520 849 1520 982 1467 c 0,25,26
 1074 1430 1074 1430 1182 1430 c 0,27,28
 1322 1430 1322 1430 1453 1520 c 1,29,-1
 1468 1520 l 1,30,31
 1314 1258 1314 1258 1104 1078 c 0,32,33
 971 964 971 964 916 909 c 0,34,35
 796 790 796 790 740 707 c 0,36,37
 657 583 657 583 626 455 c 0,38,39
 614 405 614 405 614 362 c 0,40,41
 614 277 614 277 661 216 c 0,42,43
 693 175 693 175 693 126 c 0,44,45
 693 109 693 109 689 91 c 0,46,47
 679 43 679 43 640 12 c 0,48,49
 599 -20 599 -20 538 -20 c 0,0,1
EndSplineSet
Validated: 1
EndChar

StartChar: eight
Encoding: 56 56 27
Width: 1184
GlyphClass: 2
Flags: W
HStem: -20 72<445.467 749.728> 1462 68<880.023 1104.23>
VStem: 189 144<146.646 495.349> 518 197<1016.47 1258.69> 1016 211<361.772 621.589> 1157 145<1114.43 1421.24>
DStem2: 804 980 700 816 0.851504 -0.524347<-27.9001 179.907 223.134 367.052>
LayerCount: 2
Fore
SplineSet
948 893 m 1,0,1
 1093 1015 1093 1015 1140 1192 c 0,2,3
 1157 1254 1157 1254 1157 1302 c 0,4,5
 1157 1348 1157 1348 1141 1381 c 0,6,7
 1102 1462 1102 1462 1003 1462 c 128,-1,8
 904 1462 904 1462 825 1387 c 0,9,10
 750 1314 750 1314 725 1212 c 0,11,12
 715 1172 715 1172 715 1138 c 0,13,14
 715 1034 715 1034 804 980 c 2,15,-1
 948 893 l 1,0,1
580 -20 m 0,16,17
 365 -20 365 -20 265 101 c 0,18,19
 189 194 189 194 189 313 c 0,20,21
 189 366 189 366 204 424 c 0,22,23
 281 721 281 721 651 854 c 1,24,25
 518 958 518 958 518 1094 c 0,26,27
 518 1132 518 1132 529 1172 c 0,28,29
 575 1345 575 1345 729 1444 c 0,30,31
 862 1530 862 1530 1017 1530 c 0,32,33
 1167 1530 1167 1530 1240 1448 c 0,34,35
 1302 1377 1302 1377 1302 1282 c 0,36,37
 1302 1240 1302 1240 1290 1192 c 0,38,39
 1231 962 1231 962 994 863 c 1,40,41
 1227 732 1227 732 1227 540 c 0,42,43
 1227 492 1227 492 1212 440 c 0,44,45
 1159 253 1159 253 973 112 c 0,46,47
 800 -20 800 -20 580 -20 c 0,16,17
700 816 m 1,48,49
 427 701 427 701 352 419 c 0,50,51
 333 348 333 348 333 291 c 0,52,53
 333 219 333 219 363 168 c 0,54,55
 431 52 431 52 599 52 c 0,56,57
 730 52 730 52 855 156 c 0,58,59
 967 249 967 249 1005 400 c 0,60,61
 1016 443 1016 443 1016 482 c 0,62,63
 1016 622 1016 622 878 707 c 2,64,-1
 700 816 l 1,48,49
EndSplineSet
Validated: 1
EndChar

StartChar: nine
Encoding: 57 57 28
Width: 1307
GlyphClass: 2
Flags: W
HStem: -20 75<445.209 742.58> 160 264<347.844 494.809> 475 77<666.25 943.827> 1453 77<890.734 1169.14>
VStem: 259 275<199.707 376.881> 369 209<670.675 1041.34> 1255 190<964.898 1319.95>
LayerCount: 2
Fore
SplineSet
595 -20 m 0,0,1
 448 -20 448 -20 360 57 c 0,2,3
 259 143 259 143 259 257 c 0,4,5
 259 290 259 290 270 321 c 0,6,7
 282 357 282 357 309 383 c 0,8,9
 349 424 349 424 405 424 c 0,10,11
 459 424 459 424 496.5 385.5 c 128,-1,12
 534 347 534 347 534 292 c 128,-1,13
 534 237 534 237 496 198.5 c 128,-1,14
 458 160 458 160 404 160 c 0,15,16
 374 160 374 160 347 175 c 1,17,18
 445 55 445 55 591 55 c 0,19,20
 757 55 757 55 905 215 c 0,21,22
 1069 392 1069 392 1140 656 c 1,23,24
 968 475 968 475 770 475 c 0,25,26
 550 475 550 475 442 624 c 0,27,28
 369 725 369 725 369 855 c 0,29,30
 369 924 369 924 389 1002 c 0,31,32
 449 1225 449 1225 645 1380 c 0,33,34
 834 1530 834 1530 1053 1530 c 0,35,36
 1277 1530 1277 1530 1378 1363 c 0,37,38
 1445 1252 1445 1252 1445 1091 c 0,39,40
 1445 963 1445 963 1403 805 c 0,41,42
 1286 369 1286 369 1007 139 c 0,43,44
 814 -20 814 -20 595 -20 c 0,0,1
1040 1453 m 0,45,46
 882 1453 882 1453 750 1302 c 0,47,48
 667 1207 667 1207 611 1002 c 0,49,50
 578 876 578 876 578 790 c 0,51,52
 578 740 578 740 589 703 c 0,53,54
 637 552 637 552 799 552 c 0,55,56
 955 552 955 552 1083 703 c 0,57,58
 1167 802 1167 802 1221 1002 c 0,59,60
 1255 1128 1255 1128 1255 1215 c 0,61,62
 1255 1265 1255 1265 1244 1302 c 0,63,64
 1196 1453 1196 1453 1040 1453 c 0,45,46
EndSplineSet
Validated: 1
EndChar

StartChar: colon
Encoding: 58 58 29
Width: 359
GlyphClass: 2
Flags: W
HStem: -20 264<119.191 300.324> 625 264<292.191 473.324>
VStem: 80 259<19.7072 204.293> 253 259<664.707 849.293>
LayerCount: 2
Fore
SplineSet
383 889 m 128,-1,1
 437 889 437 889 474.5 850.5 c 128,-1,2
 512 812 512 812 512 757 c 128,-1,3
 512 702 512 702 474.5 663.5 c 128,-1,4
 437 625 437 625 383 625 c 128,-1,5
 329 625 329 625 291 663.5 c 128,-1,6
 253 702 253 702 253 757 c 128,-1,7
 253 812 253 812 291 850.5 c 128,-1,0
 329 889 329 889 383 889 c 128,-1,1
210 -20 m 128,-1,9
 156 -20 156 -20 118 18.5 c 128,-1,10
 80 57 80 57 80 112 c 128,-1,11
 80 167 80 167 118 205.5 c 128,-1,12
 156 244 156 244 210 244 c 128,-1,13
 264 244 264 244 301.5 205.5 c 128,-1,14
 339 167 339 167 339 112 c 128,-1,15
 339 57 339 57 301.5 18.5 c 128,-1,8
 264 -20 264 -20 210 -20 c 128,-1,9
EndSplineSet
Validated: 1
EndChar

StartChar: semicolon
Encoding: 59 59 30
Width: 368
GlyphClass: 2
Flags: W
HStem: -183 404<52 198> 625 264<292.191 473.324>
VStem: 77 260<31 186.161> 253 259<664.707 849.293>
LayerCount: 2
Fore
SplineSet
198 221 m 0,0,1
 218 221 218 221 237 216 c 0,2,3
 289 202 289 202 315 159 c 0,4,5
 337 123 337 123 337 76 c 0,6,7
 337 54 337 54 331 31 c 0,8,9
 312 -39 312 -39 250 -98 c 0,10,11
 159 -183 159 -183 52 -183 c 0,12,13
 7 -183 7 -183 -35 -172 c 1,14,-1
 -32 -159 l 1,15,16
 55 -137 55 -137 119 -84 c 0,17,18
 151 -57 151 -57 176 -18 c 1,19,20
 114 -1 114 -1 93 36 c 0,21,22
 77 65 77 65 77 96 c 0,23,24
 77 116 77 116 82 132 c 0,25,26
 96 179 96 179 139 205 c 0,27,28
 166 221 166 221 198 221 c 0,0,1
383 889 m 128,-1,30
 437 889 437 889 474.5 850.5 c 128,-1,31
 512 812 512 812 512 757 c 128,-1,32
 512 702 512 702 474.5 663.5 c 128,-1,33
 437 625 437 625 383 625 c 128,-1,34
 329 625 329 625 291 663.5 c 128,-1,35
 253 702 253 702 253 757 c 128,-1,36
 253 812 253 812 291 850.5 c 128,-1,29
 329 889 329 889 383 889 c 128,-1,30
EndSplineSet
Validated: 1
EndChar

StartChar: less
Encoding: 60 60 31
Width: 1127
GlyphClass: 2
Flags: W
DStem2: 515 783 379 669 0.84286 -0.538133<0 590.922> 428 850 515 783 0.897272 0.441477<48.4837 854.439>
LayerCount: 2
Fore
SplineSet
1203 1226 m 0,0,1
 1217 1226 1217 1226 1223 1207 c 2,2,-1
 1235 1172 l 2,3,4
 1237 1164 1237 1164 1237 1158 c 0,5,6
 1237 1151 1237 1151 1235 1146 c 0,7,8
 1229 1134 1229 1134 1209 1124 c 2,9,-1
 515 783 l 1,10,-1
 1010 468 l 2,11,12
 1029 456 1029 456 1029 438 c 0,13,14
 1029 434 1029 434 1028 430 c 0,15,16
 1025 418 1025 418 1010 400 c 2,17,-1
 972 355 l 2,18,19
 949 328 949 328 926 328 c 0,20,21
 913 328 913 328 899 337 c 2,22,-1
 379 669 l 2,23,24
 345 691 345 691 345 721 c 0,25,26
 345 728 345 728 348 739 c 2,27,-1
 359 780 l 2,28,29
 370 821 370 821 428 850 c 2,30,-1
 1180 1220 l 2,31,32
 1192 1226 1192 1226 1203 1226 c 0,0,1
EndSplineSet
Validated: 1
EndChar

StartChar: equal
Encoding: 61 61 32
Width: 1133
GlyphClass: 2
Flags: W
HStem: 490 150<309.77 1125.94> 870 150<411.77 1227.94>
LayerCount: 2
Fore
SplineSet
371 640 m 2,0,-1
 1104 640 l 2,1,2
 1144 640 1144 640 1144 609 c 0,3,4
 1144 601 1144 601 1141 590 c 2,5,-1
 1128 540 l 2,6,7
 1115 490 1115 490 1064 490 c 2,8,-1
 331 490 l 2,9,10
 292 490 292 490 292 521 c 0,11,12
 292 530 292 530 295 540 c 2,13,-1
 308 590 l 2,14,15
 321 640 321 640 371 640 c 2,0,-1
473 1020 m 2,16,-1
 1206 1020 l 2,17,18
 1246 1020 1246 1020 1246 989 c 0,19,20
 1246 981 1246 981 1243 970 c 2,21,-1
 1230 920 l 2,22,23
 1217 870 1217 870 1166 870 c 2,24,-1
 433 870 l 2,25,26
 394 870 394 870 394 901 c 0,27,28
 394 910 394 910 397 920 c 2,29,-1
 410 970 l 2,30,31
 423 1020 423 1020 473 1020 c 2,16,-1
EndSplineSet
Validated: 1
EndChar

StartChar: greater
Encoding: 62 62 33
Width: 1127
GlyphClass: 2
Flags: W
DStem2: 1029 771 364 334 0.897272 0.441477<-805.956 0> 1165 885 1029 771 0.84286 -0.538133<-644.204 -53.2817>
LayerCount: 2
Fore
SplineSet
618 1226 m 0,0,1
 631 1226 631 1226 645 1217 c 2,2,-1
 1165 885 l 2,3,4
 1199 863 1199 863 1199 833 c 0,5,6
 1199 826 1199 826 1196 815 c 2,7,-1
 1185 774 l 2,8,9
 1174 733 1174 733 1116 704 c 2,10,-1
 364 334 l 2,11,12
 352 328 352 328 341 328 c 0,13,14
 327 328 327 328 321 347 c 2,15,-1
 309 382 l 2,16,17
 307 390 307 390 307 396 c 0,18,19
 307 403 307 403 309 408 c 0,20,21
 315 420 315 420 335 430 c 2,22,-1
 1029 771 l 1,23,-1
 534 1086 l 2,24,25
 515 1098 515 1098 515 1116 c 0,26,27
 515 1120 515 1120 516 1124 c 0,28,29
 519 1136 519 1136 534 1154 c 2,30,-1
 572 1199 l 2,31,32
 595 1226 595 1226 618 1226 c 0,0,1
EndSplineSet
Validated: 1
EndChar

StartChar: question
Encoding: 63 63 34
Width: 1256
GlyphClass: 2
Flags: W
HStem: -20 264<506.191 687.324> 908 262<538.441 656.324> 1434 96<811.85 1110.85>
VStem: 436 259<947.707 1131.32> 467 259<19.7072 204.293> 1192 229<1037.9 1353.64>
LayerCount: 2
Fore
SplineSet
1059 1530 m 0,0,1
 1271 1530 1271 1530 1362 1405 c 0,2,3
 1421 1325 1421 1325 1421 1225 c 0,4,5
 1421 1175 1421 1175 1406 1120 c 0,6,7
 1346 895 1346 895 1104 735 c 2,8,-1
 871 581 l 2,9,10
 745 498 745 498 705 350 c 24,11,12
 697 320 697 320 667 320 c 2,13,-1
 625 320 l 2,14,15
 601 320 601 320 601 338 c 0,16,17
 601 343 601 343 603 350 c 0,18,19
 650 527 650 527 809 664 c 2,20,-1
 934 772 l 2,21,22
 1136 946 1136 946 1177 1102 c 0,23,24
 1192 1160 1192 1160 1192 1209 c 0,25,26
 1192 1277 1192 1277 1166 1326 c 0,27,28
 1107 1434 1107 1434 955 1434 c 0,29,30
 813 1434 813 1434 695 1346 c 0,31,32
 594 1271 594 1271 538 1166 c 1,33,34
 551 1170 551 1170 566 1170 c 0,35,36
 620 1170 620 1170 657.5 1132.5 c 128,-1,37
 695 1095 695 1095 695 1040 c 128,-1,38
 695 985 695 985 657.5 946.5 c 128,-1,39
 620 908 620 908 566 908 c 128,-1,40
 512 908 512 908 474 946.5 c 128,-1,41
 436 985 436 985 436 1040 c 0,42,43
 436 1221 436 1221 648 1390 c 0,44,45
 823 1530 823 1530 1059 1530 c 0,0,1
597 -20 m 128,-1,47
 543 -20 543 -20 505 18.5 c 128,-1,48
 467 57 467 57 467 112 c 128,-1,49
 467 167 467 167 505 205.5 c 128,-1,50
 543 244 543 244 597 244 c 128,-1,51
 651 244 651 244 688.5 205.5 c 128,-1,52
 726 167 726 167 726 112 c 128,-1,53
 726 57 726 57 688.5 18.5 c 128,-1,46
 651 -20 651 -20 597 -20 c 128,-1,47
EndSplineSet
Validated: 1
EndChar

StartChar: at
Encoding: 64 64 35
Width: 1474
GlyphClass: 2
Flags: W
HStem: -430 70<593.417 929.394> -20 65<834.975 1017.05> 0 21G<1075 1200> 606 46<1093.46 1206> 1050 70<915.146 1216.57>
VStem: 202 194<-162.53 344.969> 608 180<85.8054 366.18> 1271 177<680.43 1008.37>
DStem2: 928.421 -430 1109.38 -430 0.258819 0.965926<508.972 1072.54 1108.24 1366.1>
LayerCount: 2
Fore
SplineSet
1095 0 m 2,0,1
 1055 0 1055 0 1055 31 c 0,2,3
 1055 39 1055 39 1058 50 c 1,4,5
 1007 -20 1007 -20 883 -20 c 0,6,7
 741 -20 741 -20 670 63 c 0,8,9
 608 134 608 134 608 225 c 0,10,11
 608 264 608 264 619 306 c 0,12,13
 661 463 661 463 826 560 c 0,14,15
 982 652 982 652 1219 652 c 1,16,-1
 1255 786 l 2,17,18
 1271 846 1271 846 1271 894 c 0,19,20
 1271 956 1271 956 1242 992 c 0,21,22
 1195 1050 1195 1050 1093 1050 c 0,23,24
 906 1050 906 1050 754 910 c 0,25,26
 536 708 536 708 438 345 c 0,27,28
 396 188 396 188 396 63 c 0,29,30
 396 -86 396 -86 455 -193 c 0,31,32
 547 -360 547 -360 763 -360 c 0,33,34
 955 -360 955 -360 1136 -230 c 1,35,-1
 1166 -276 l 1,36,37
 956 -430 956 -430 700 -430 c 128,-1,38
 444 -430 444 -430 316 -276 c 0,39,40
 202 -139 202 -139 202 71 c 0,41,42
 202 195 202 195 242 345 c 0,43,44
 350 747 350 747 649 966 c 0,45,46
 859 1120 859 1120 1140 1120 c 0,47,48
 1293 1120 1293 1120 1374 1048 c 0,49,50
 1448 982 1448 982 1448 880 c 0,51,52
 1448 838 1448 838 1434 785 c 2,53,-1
 1238 50 l 2,54,55
 1225 0 1225 0 1175 0 c 2,56,-1
 1095 0 l 2,0,1
1206 606 m 1,57,58
 1062 594 1062 594 945 506 c 0,59,60
 840 427 840 427 801 282 c 0,61,62
 788 234 788 234 788 194 c 0,63,64
 788 149 788 149 805 114 c 0,65,66
 839 46 839 46 932 45 c 0,67,68
 1056 45 1056 45 1105 229 c 2,69,-1
 1206 606 l 1,57,58
EndSplineSet
Validated: 1
EndChar

StartChar: A
Encoding: 65 65 36
Width: 1266
GlyphClass: 2
Flags: W
HStem: 0 21G<10.5 84.5 1108.5 1255.5> 500 90<497 995> 1490 20G<888.5 1035.5>
DStem2: 4 25 112 25 0.562902 0.826524<0.0939231 635.772 744.497 1472.03> 1070 1460 870 1460 0.14319 -0.989695<-43.4098 109.528 242.888 850.296 941.23 1439.42>
LayerCount: 2
Fore
SplineSet
21 0 m 2,0,1
 0 0 0 0 0 13 c 0,2,3
 0 19 0 19 4 25 c 2,4,-1
 888 1323 l 1,5,-1
 870 1460 l 2,6,7
 869 1468 869 1468 869 1475 c 0,8,9
 870 1510 870 1510 907 1510 c 2,10,-1
 1008 1510 l 2,11,12
 1063 1510 1063 1510 1070 1460 c 2,13,-1
 1274 50 l 2,14,15
 1275 43 1275 43 1275 35 c 0,16,17
 1274 0 1274 0 1237 0 c 2,18,-1
 1136 0 l 2,19,20
 1081 0 1081 0 1074 50 c 2,21,-1
 1008 500 l 1,22,-1
 436 500 l 1,23,-1
 112 25 l 2,24,25
 95 0 95 0 74 0 c 2,26,-1
 21 0 l 2,0,1
907 1191 m 1,27,-1
 497 590 l 1,28,-1
 995 590 l 1,29,-1
 907 1191 l 1,27,-1
EndSplineSet
Validated: 1
EndChar

StartChar: C
Encoding: 67 67 37
Width: 1219
GlyphClass: 2
Flags: W
HStem: -20 75<607.823 935.548> 1021 264<1234.19 1381.16> 1455 75<957.909 1280.46>
VStem: 259 210<222.502 682.318> 1195 280<1073.6 1245.29> 1222 15<327.883 336>
LayerCount: 2
Fore
SplineSet
721 -20 m 0,0,1
 467 -20 467 -20 354 134 c 0,2,3
 259 265 259 265 259 461 c 0,4,5
 259 593 259 593 302 755 c 0,6,7
 415 1176 415 1176 687 1376 c 0,8,9
 897 1530 897 1530 1127 1530 c 0,10,11
 1319 1530 1319 1530 1415 1401 c 0,12,13
 1475 1321 1475 1321 1475 1222 c 0,14,15
 1475 1173 1475 1173 1462 1132 c 0,16,17
 1449 1092 1449 1092 1420 1062 c 0,18,19
 1380 1021 1380 1021 1324 1021 c 0,20,21
 1270 1021 1270 1021 1232.5 1059.5 c 128,-1,22
 1195 1098 1195 1098 1195 1153 c 128,-1,23
 1195 1208 1195 1208 1233 1246.5 c 128,-1,24
 1271 1285 1271 1285 1325 1285 c 0,25,26
 1355 1285 1355 1285 1382 1270 c 1,27,28
 1336 1455 1336 1455 1130 1455 c 0,29,30
 957 1455 957 1455 810 1320 c 0,31,32
 643 1167 643 1167 532 755 c 0,33,34
 469 521 469 521 469 371 c 0,35,36
 469 257 469 257 506 192 c 0,37,38
 584 55 584 55 766 55 c 0,39,40
 934 55 934 55 1077 180 c 0,41,42
 1156 249 1156 249 1222 336 c 1,43,-1
 1237 336 l 1,44,-1
 1195 178 l 1,45,46
 984 -20 984 -20 721 -20 c 0,0,1
EndSplineSet
Validated: 1
EndChar

StartChar: D
Encoding: 68 68 38
Width: 1444
GlyphClass: 2
Flags: W
HStem: 0 80<491.01 872.246> 1440 90<798.764 1197.27>
VStem: 270 221<15.5 152.375> 1351 231<736.111 1245.42>
DStem2: 259.603 0 459.167 0 0.258819 0.965926<167.35 1254.06>
LayerCount: 2
Fore
SplineSet
310 0 m 2,0,1
 270 0 270 0 270 31 c 0,2,3
 270 39 270 39 273 50 c 2,4,-1
 568 1150 l 2,5,6
 581 1200 581 1200 632 1200 c 2,7,-1
 732 1200 l 2,8,9
 771 1200 771 1200 771 1169 c 0,10,11
 771 1161 771 1161 768 1150 c 2,12,-1
 494 130 l 2,13,14
 491 119 491 119 491 111 c 0,15,16
 491 80 491 80 531 80 c 2,17,-1
 689 80 l 2,18,19
 926 80 926 80 1113 317 c 0,20,21
 1238 476 1238 476 1312 755 c 0,22,23
 1351 902 1351 902 1351 1028 c 0,24,25
 1351 1114 1351 1114 1333 1192 c 0,26,27
 1275 1440 1275 1440 1013 1440 c 0,28,29
 618 1440 618 1440 283 1045 c 1,30,-1
 272 1053 l 1,31,32
 600 1530 600 1530 1067 1530 c 0,33,34
 1409 1530 1409 1530 1529 1266 c 0,35,36
 1582 1149 1582 1149 1582 1007 c 0,37,38
 1582 889 1582 889 1546 754 c 0,39,40
 1462 441 1462 441 1248 235 c 0,41,42
 1004 0 1004 0 694 0 c 2,43,-1
 310 0 l 2,0,1
EndSplineSet
Validated: 1
EndChar

StartChar: E
Encoding: 69 69 39
Width: 1147
GlyphClass: 2
Flags: W
HStem: -20 75<538.37 848.829> 1100 264<1064.19 1211.16> 1465 65<911.231 1147.83>
VStem: 208 214<166.376 532.191> 541 192<979.69 1278.2> 1025 277<1149.65 1324.29> 1157 15<388.058 397>
LayerCount: 2
Fore
SplineSet
652 -20 m 0,0,1
 411 -20 411 -20 298 104 c 0,2,3
 208 203 208 203 208 340 c 0,4,5
 208 401 208 401 226 470 c 0,6,7
 272 643 272 643 404 755 c 0,8,9
 544 873 544 873 719 886 c 1,10,11
 637 913 637 913 593 969 c 0,12,13
 541 1035 541 1035 541 1116 c 0,14,15
 541 1154 541 1154 552 1195 c 0,16,17
 594 1350 594 1350 744 1447 c 0,18,19
 873 1530 873 1530 1028 1530 c 0,20,21
 1187 1530 1187 1530 1262 1414 c 0,22,23
 1302 1352 1302 1352 1302 1284 c 0,24,25
 1302 1246 1302 1246 1291 1211 c 0,26,27
 1277 1169 1277 1169 1250 1141 c 0,28,29
 1210 1100 1210 1100 1154 1100 c 0,30,31
 1100 1100 1100 1100 1062.5 1138.5 c 128,-1,32
 1025 1177 1025 1177 1025 1232 c 128,-1,33
 1025 1287 1025 1287 1063 1325.5 c 128,-1,34
 1101 1364 1101 1364 1155 1364 c 0,35,36
 1185 1364 1185 1364 1212 1349 c 1,37,38
 1167 1465 1167 1465 1037 1465 c 0,39,40
 921 1465 921 1465 840 1376 c 0,41,42
 776 1306 776 1306 749 1204 c 0,43,44
 733 1143 733 1143 733 1094 c 0,45,46
 733 1035 733 1035 757 995 c 0,47,48
 807 913 807 913 930 871 c 1,49,-1
 926 856 l 1,50,51
 765 836 765 836 643 755 c 0,52,53
 496 657 496 657 446 470 c 0,54,55
 422 381 422 381 422 312 c 0,56,57
 422 235 422 235 452 182 c 0,58,59
 523 55 523 55 679 55 c 0,60,61
 838 55 838 55 971 168 c 0,62,63
 1071 253 1071 253 1157 397 c 1,64,-1
 1172 397 l 1,65,-1
 1123 211 l 1,66,67
 1074 159 1074 159 1021 117 c 0,68,69
 848 -20 848 -20 652 -20 c 0,0,1
EndSplineSet
Validated: 1
EndChar

StartChar: F
Encoding: 70 70 40
Width: 1083
GlyphClass: 2
Flags: W
HStem: 0 21G<240 385> 600 90<202 371 595 1012> 1100 264<1170.19 1317.16> 1455 75<968.324 1257.57>
VStem: 1131 277<1149.65 1324.29>
DStem2: 209.603 0 409.603 0 0.258819 0.965926<39.8087 621.328 766.237 1278.99>
LayerCount: 2
Fore
SplineSet
260 0 m 2,0,1
 220 0 220 0 220 31 c 0,2,3
 220 39 220 39 223 50 c 2,4,-1
 371 600 l 1,5,-1
 220 600 l 2,6,7
 196 600 196 600 196 618 c 0,8,9
 196 622 196 622 198 630 c 2,10,-1
 206 660 l 2,11,12
 214 690 214 690 244 690 c 2,13,-1
 395 690 l 1,14,-1
 467 960 l 2,15,16
 543 1245 543 1245 744 1394 c 0,17,18
 926 1530 926 1530 1119 1530 c 0,19,20
 1279 1530 1279 1530 1363 1422 c 0,21,22
 1408 1364 1408 1364 1408 1284 c 0,23,24
 1408 1246 1408 1246 1397 1211 c 0,25,26
 1383 1169 1383 1169 1356 1141 c 0,27,28
 1316 1100 1316 1100 1260 1100 c 0,29,30
 1206 1100 1206 1100 1168.5 1138.5 c 128,-1,31
 1131 1177 1131 1177 1131 1232 c 128,-1,32
 1131 1287 1131 1287 1169 1325.5 c 128,-1,33
 1207 1364 1207 1364 1261 1364 c 0,34,35
 1291 1364 1291 1364 1318 1349 c 1,36,37
 1262 1455 1262 1455 1124 1455 c 0,38,39
 955 1455 955 1455 833 1309 c 0,40,41
 726 1182 726 1182 667 960 c 2,42,-1
 595 690 l 1,43,-1
 994 690 l 2,44,45
 1018 690 1018 690 1018 672 c 0,46,47
 1018 668 1018 668 1016 660 c 2,48,-1
 1008 630 l 2,49,50
 1000 600 1000 600 970 600 c 2,51,-1
 571 600 l 1,52,-1
 423 50 l 2,53,54
 410 0 410 0 360 0 c 2,55,-1
 260 0 l 2,0,1
EndSplineSet
Validated: 1
EndChar

StartChar: G
Encoding: 71 71 41
Width: 1296
GlyphClass: 2
Flags: W
HStem: -20 75<589.79 896.851> 600 90<925 1105.63> 1021 264<1234.19 1381.16> 1455 75<957.909 1280.46>
VStem: 259 214<231.468 695.04> 1142 212<383.774 560.43> 1195 280<1073.6 1245.29>
LayerCount: 2
Fore
SplineSet
725 -20 m 0,0,1
 465 -20 465 -20 342 162 c 0,2,3
 259 285 259 285 259 466 c 0,4,5
 259 596 259 596 302 755 c 0,6,7
 415 1176 415 1176 687 1376 c 0,8,9
 897 1530 897 1530 1127 1530 c 0,10,11
 1319 1530 1319 1530 1415 1401 c 0,12,13
 1475 1321 1475 1321 1475 1222 c 0,14,15
 1475 1173 1475 1173 1462 1132 c 0,16,17
 1449 1092 1449 1092 1420 1062 c 0,18,19
 1380 1021 1380 1021 1324 1021 c 0,20,21
 1270 1021 1270 1021 1232.5 1059.5 c 128,-1,22
 1195 1098 1195 1098 1195 1153 c 128,-1,23
 1195 1208 1195 1208 1233 1246.5 c 128,-1,24
 1271 1285 1271 1285 1325 1285 c 0,25,26
 1355 1285 1355 1285 1382 1270 c 1,27,28
 1336 1455 1336 1455 1130 1455 c 0,29,30
 957 1455 957 1455 810 1320 c 0,31,32
 640 1165 640 1165 532 755 c 0,33,34
 473 532 473 532 473 380 c 0,35,36
 473 266 473 266 506 192 c 0,37,38
 568 55 568 55 732 55 c 0,39,40
 899 55 899 55 1019 182 c 0,41,42
 1100 269 1100 269 1130 379 c 0,43,44
 1142 423 1142 423 1142 458 c 0,45,46
 1142 600 1142 600 952 600 c 2,47,-1
 943 600 l 2,48,49
 919 600 919 600 919 617 c 0,50,51
 919 622 919 622 921 630 c 2,52,-1
 929 660 l 2,53,54
 937 690 937 690 967 690 c 2,55,-1
 1162 690 l 2,56,57
 1354 690 1354 690 1354 550 c 0,58,59
 1354 515 1354 515 1342 472 c 0,60,61
 1297 304 1297 304 1139 160 c 0,62,63
 941 -20 941 -20 725 -20 c 0,0,1
EndSplineSet
Validated: 1
EndChar

StartChar: H
Encoding: 72 72 42
Width: 1358
GlyphClass: 2
Flags: W
HStem: 0 21G<240 385 978 1123> 600 90<595 1108> 1490 20G<639.5 784.5 1377.5 1522.5>
DStem2: 209.603 0 409.603 0 0.258819 0.965926<39.8087 672.833 766.237 1574.98> 947.603 0 1147.6 0 0.258819 0.965926<39.8087 621.069 714.473 1574.98>
LayerCount: 2
Fore
SplineSet
260 0 m 2,0,1
 220 0 220 0 220 31 c 0,2,3
 220 39 220 39 223 50 c 2,4,-1
 601 1460 l 2,5,6
 614 1510 614 1510 665 1510 c 2,7,-1
 765 1510 l 2,8,9
 804 1510 804 1510 804 1479 c 0,10,11
 804 1471 804 1471 801 1460 c 2,12,-1
 595 690 l 1,13,-1
 1133 690 l 1,14,-1
 1339 1460 l 2,15,16
 1352 1510 1352 1510 1403 1510 c 2,17,-1
 1503 1510 l 2,18,19
 1542 1510 1542 1510 1542 1479 c 0,20,21
 1542 1471 1542 1471 1539 1460 c 2,22,-1
 1161 50 l 2,23,24
 1148 0 1148 0 1098 0 c 2,25,-1
 998 0 l 2,26,27
 958 0 958 0 958 31 c 0,28,29
 958 39 958 39 961 50 c 2,30,-1
 1108 600 l 1,31,-1
 570 600 l 1,32,-1
 423 50 l 2,33,34
 410 0 410 0 360 0 c 2,35,-1
 260 0 l 2,0,1
EndSplineSet
Validated: 1
EndChar

StartChar: I
Encoding: 73 73 43
Width: 620
GlyphClass: 2
Flags: W
HStem: 0 21G<240 385> 1490 20G<639.5 784.5>
VStem: 220 584
DStem2: 209.603 0 409.603 0 0.258819 0.965926<39.8087 1574.98>
LayerCount: 2
Fore
SplineSet
260 0 m 2,0,1
 220 0 220 0 220 31 c 0,2,3
 220 39 220 39 223 50 c 10,4,-1
 601 1460 l 2,5,6
 614 1510 614 1510 665 1510 c 2,7,-1
 765 1510 l 2,8,9
 804 1510 804 1510 804 1479 c 0,10,11
 804 1471 804 1471 801 1460 c 2,12,-1
 423 50 l 2,13,14
 410 0 410 0 360 0 c 2,15,-1
 260 0 l 2,0,1
EndSplineSet
Validated: 1
EndChar

StartChar: J
Encoding: 74 74 44
Width: 1082
GlyphClass: 2
Flags: W
HStem: -20 75<229.432 522.382> 146 264<169.844 316.809> 1490 20G<1101.5 1246.5>
VStem: 79 277<185.707 360.346>
DStem2: 666.269 -20 866.269 -20 0.258819 0.965926<355.884 1595.68>
LayerCount: 2
Fore
SplineSet
368 -20 m 0,0,1
 208 -20 208 -20 124 88 c 0,2,3
 79 146 79 146 79 226 c 0,4,5
 79 264 79 264 90 299 c 0,6,7
 104 341 104 341 131 369 c 0,8,9
 171 410 171 410 227 410 c 0,10,11
 281 410 281 410 318.5 371.5 c 128,-1,12
 356 333 356 333 356 278 c 128,-1,13
 356 223 356 223 318 184.5 c 128,-1,14
 280 146 280 146 226 146 c 0,15,16
 196 146 196 146 169 161 c 1,17,18
 225 55 225 55 363 55 c 0,19,20
 536 55 536 55 654 201 c 0,21,22
 761 334 761 334 819 550 c 2,23,-1
 1063 1460 l 18,24,25
 1076 1510 1076 1510 1127 1510 c 2,26,-1
 1227 1510 l 2,27,28
 1266 1510 1266 1510 1266 1479 c 0,29,30
 1266 1471 1266 1471 1263 1460 c 10,31,-1
 1019 550 l 2,32,33
 942 264 942 264 743 116 c 0,34,35
 560 -20 560 -20 368 -20 c 0,0,1
EndSplineSet
Validated: 1
EndChar

StartChar: K
Encoding: 75 75 45
Width: 1353
GlyphClass: 2
Flags: W
HStem: 0 21G<240 385 1095 1260> 1490 20G<639.5 784.5 1345 1399>
VStem: 1242 259<1297.72 1490.29>
DStem2: 209.603 0 409.603 0 0.258819 0.965926<39.8087 563.488 655.377 1574.98> 1115 409 922 341 0.409202 -0.912444<-175.708 376.361>
LayerCount: 2
Fore
SplineSet
260 0 m 2,0,1
 220 0 220 0 220 31 c 0,2,3
 220 39 220 39 223 50 c 10,4,-1
 601 1460 l 2,5,6
 614 1510 614 1510 665 1510 c 2,7,-1
 765 1510 l 2,8,9
 804 1510 804 1510 804 1479 c 0,10,11
 804 1471 804 1471 801 1460 c 2,12,-1
 566 583 l 1,13,14
 1114 847 1114 847 1352 1268 c 1,15,16
 1310 1274 1310 1274 1280 1304 c 0,17,18
 1242 1343 1242 1343 1242 1398 c 128,-1,19
 1242 1453 1242 1453 1280 1491.5 c 128,-1,20
 1318 1530 1318 1530 1372 1530 c 128,-1,21
 1426 1530 1426 1530 1463.5 1491.5 c 128,-1,22
 1501 1453 1501 1453 1501 1398 c 0,23,24
 1501 1374 1501 1374 1493 1347 c 0,25,26
 1481 1306 1481 1306 1443 1244 c 0,27,28
 1196 841 1196 841 809 620 c 1,29,30
 1028 603 1028 603 1115 409 c 2,31,-1
 1276 50 l 2,32,33
 1281 39 1281 39 1281 30 c 0,34,35
 1281 0 1281 0 1239 0 c 2,36,-1
 1119 0 l 2,37,38
 1071 0 1071 0 1049 50 c 2,39,-1
 922 341 l 2,40,41
 834 543 834 543 715 543 c 0,42,43
 555 543 555 543 482 270 c 2,44,-1
 423 50 l 2,45,46
 410 0 410 0 360 0 c 2,47,-1
 260 0 l 2,0,1
EndSplineSet
Validated: 1
EndChar

StartChar: L
Encoding: 76 76 46
Width: 1168
GlyphClass: 2
Flags: W
HStem: -20 74<705.503 1026.33> 36 85<442.348 736.663> 1490 20G<639.5 784.5>
VStem: 962 259<158.938 349.293>
DStem2: 204.321 -20 404.291 -20 0.258819 0.965926<193.589 1595.78>
LayerCount: 2
Fore
SplineSet
211 -20 m 1,0,-1
 207 -10 l 1,1,-1
 601 1460 l 2,2,3
 614 1510 614 1510 665 1510 c 2,4,-1
 765 1510 l 2,5,6
 804 1510 804 1510 804 1479 c 0,7,8
 804 1471 804 1471 801 1460 c 2,9,-1
 441 117 l 1,10,11
 485 121 485 121 532 121 c 0,12,13
 628 121 628 121 720 85 c 0,14,15
 798 54 798 54 885 54 c 0,16,17
 1004 54 1004 54 1070 127 c 1,18,19
 1030 133 1030 133 1000 164 c 0,20,21
 962 202 962 202 962 257 c 128,-1,22
 962 312 962 312 1000 350.5 c 128,-1,23
 1038 389 1038 389 1092 389 c 128,-1,24
 1146 389 1146 389 1183.5 350.5 c 128,-1,25
 1221 312 1221 312 1221 257 c 0,26,27
 1221 236 1221 236 1214 208 c 0,28,29
 1188 105 1188 105 1093 41 c 0,30,31
 1003 -20 1003 -20 874 -20 c 0,32,33
 793 -20 793 -20 656 15 c 0,34,35
 576 36 576 36 495 36 c 0,36,37
 417 36 417 36 347 18 c 128,-1,38
 277 0 277 0 211 -20 c 1,0,-1
EndSplineSet
Validated: 1
EndChar

StartChar: M
Encoding: 77 77 47
Width: 1906
GlyphClass: 2
Flags: W
HStem: 0 21G<199 269.5 1583 1729> 1490 20G<691.5 838 1897.5 1971.5>
DStem2: 190 25 290 25 0.382219 0.924072<-5.8115 1184.45> 873 1460 700 1258 0.162172 -0.986762<-47.1516 171.27 348.981 1165.43> 1062 310 934 -40 0.566618 0.823981<0 951.829 1350.82 1486.9> 1564 50 1762 50 0.108529 0.994093<-20.9961 1000.95>
LayerCount: 2
Fore
SplineSet
209 0 m 2,0,1
 189 0 189 0 189 19 c 0,2,3
 189 23 189 23 190 25 c 2,4,-1
 700 1258 l 1,5,-1
 673 1460 l 2,6,7
 672 1467 672 1467 672 1475 c 0,8,9
 673 1510 673 1510 710 1510 c 2,10,-1
 811 1510 l 2,11,12
 865 1510 865 1510 873 1460 c 2,13,-1
 1062 310 l 1,14,-1
 1870 1485 l 2,15,16
 1887 1510 1887 1510 1908 1510 c 2,17,-1
 1961 1510 l 2,18,19
 1982 1510 1982 1510 1982 1497 c 0,20,21
 1982 1491 1982 1491 1978 1485 c 2,22,-1
 1906 1369 l 1,23,-1
 1762 50 l 2,24,25
 1757 0 1757 0 1701 0 c 2,26,-1
 1604 0 l 2,27,28
 1562 0 1562 0 1562 29 c 0,29,30
 1562 32 1562 32 1564 50 c 2,31,-1
 1673 1045 l 1,32,-1
 934 -40 l 1,33,-1
 919 -40 l 1,34,-1
 731 1083 l 1,35,-1
 290 25 l 2,36,37
 280 0 280 0 259 0 c 2,38,-1
 209 0 l 2,0,1
EndSplineSet
Validated: 1
EndChar

StartChar: N
Encoding: 78 78 48
Width: 1474
GlyphClass: 2
Flags: W
HStem: 0 21G<256 328> 1490 20G<525 683 1562 1634>
DStem2: 229.583 -40 329.583 -40 0.258819 0.965926<59.4275 1268.18> 730 1460 587 1294 0.427827 -0.90386<-75.903 88.8615 237.36 1197.83> 1133.73 -40 1234 -40 0.258819 0.965926<433.781 1612.71>
LayerCount: 2
Fore
SplineSet
266 0 m 2,0,1
 246 0 246 0 246 17 c 0,2,3
 246 21 246 21 247 25 c 2,4,-1
 587 1294 l 1,5,-1
 509 1460 l 2,6,7
 504 1471 504 1471 504 1480 c 0,8,9
 504 1510 504 1510 546 1510 c 2,10,-1
 660 1510 l 2,11,12
 706 1510 706 1510 730 1460 c 2,13,-1
 1246 379 l 1,14,-1
 1543 1485 l 2,15,16
 1550 1510 1550 1510 1574 1510 c 2,17,-1
 1624 1510 l 2,18,19
 1644 1510 1644 1510 1644 1493 c 0,20,21
 1644 1489 1644 1489 1643 1485 c 2,22,-1
 1234 -40 l 1,23,-1
 1219 -40 l 1,24,-1
 651 1160 l 1,25,-1
 347 25 l 2,26,27
 340 0 340 0 316 0 c 2,28,-1
 266 0 l 2,0,1
EndSplineSet
Validated: 1
EndChar

StartChar: P
Encoding: 80 80 49
Width: 1356
GlyphClass: 2
Flags: W
HStem: 0 21G<290 435> 458 70<705.887 996.999> 1440 90<804.168 1204.13>
VStem: 1321 223<926.132 1326.24>
DStem2: 259.603 0 459.603 0 0.258819 0.965926<39.8087 621.172 684.959 1254.06>
LayerCount: 2
Fore
SplineSet
310 0 m 2,0,1
 270 0 270 0 270 31 c 0,2,3
 270 39 270 39 273 50 c 2,4,-1
 568 1150 l 2,5,6
 581 1200 581 1200 632 1200 c 2,7,-1
 732 1200 l 2,8,9
 771 1200 771 1200 771 1169 c 0,10,11
 771 1161 771 1161 768 1150 c 2,12,-1
 636 657 l 1,13,14
 679 528 679 528 838 528 c 0,15,16
 995 528 995 528 1112 642 c 0,17,18
 1235 763 1235 763 1297 994 c 0,19,20
 1321 1083 1321 1083 1321 1156 c 0,21,22
 1321 1238 1321 1238 1291 1302 c 0,23,24
 1225 1440 1225 1440 1003 1440 c 0,25,26
 646 1440 646 1440 286 1047 c 1,27,-1
 272 1053 l 1,28,29
 594 1530 594 1530 1081 1530 c 0,30,31
 1347 1530 1347 1530 1467 1377 c 0,32,33
 1544 1279 1544 1279 1544 1146 c 0,34,35
 1544 1076 1544 1076 1523 996 c 0,36,37
 1468 792 1468 792 1319 652 c 0,38,39
 1111 458 1111 458 871 458 c 0,40,41
 683 458 683 458 607 550 c 1,42,-1
 473 50 l 2,43,44
 460 0 460 0 410 0 c 2,45,-1
 310 0 l 2,0,1
EndSplineSet
Validated: 1
EndChar

StartChar: R
Encoding: 82 82 50
Width: 1419
GlyphClass: 2
Flags: W
HStem: 0 21G<290 435 1096 1260> 1440 90<804.168 1204.38>
VStem: 1321 223<926.274 1326.24>
DStem2: 259.603 0 459.603 0 0.258819 0.965926<39.8087 621.172 684.959 1254.06> 1169 281 952 256 0.420303 -0.907384<-193.286 233.956>
LayerCount: 2
Fore
SplineSet
310 0 m 2,0,1
 270 0 270 0 270 31 c 0,2,3
 270 39 270 39 273 50 c 2,4,-1
 568 1150 l 2,5,6
 581 1200 581 1200 632 1200 c 2,7,-1
 732 1200 l 2,8,9
 771 1200 771 1200 771 1169 c 0,10,11
 771 1161 771 1161 768 1150 c 2,12,-1
 636 657 l 1,13,14
 679 528 679 528 838 528 c 0,15,16
 995 528 995 528 1112 642 c 0,17,18
 1235 763 1235 763 1297 994 c 0,19,20
 1321 1083 1321 1083 1321 1156 c 0,21,22
 1321 1238 1321 1238 1291 1302 c 0,23,24
 1226 1440 1226 1440 1003 1440 c 0,25,26
 646 1440 646 1440 286 1047 c 1,27,-1
 272 1053 l 1,28,29
 594 1530 594 1530 1081 1530 c 0,30,31
 1347 1530 1347 1530 1467 1377 c 0,32,33
 1544 1279 1544 1279 1544 1146 c 0,34,35
 1544 1076 1544 1076 1523 996 c 0,36,37
 1470 793 1470 793 1319 652 c 0,38,39
 1160 504 1160 504 983 469 c 1,40,41
 1096 439 1096 439 1169 281 c 2,42,-1
 1276 50 l 2,43,44
 1281 39 1281 39 1281 30 c 0,45,46
 1281 0 1281 0 1239 0 c 2,47,-1
 1119 0 l 2,48,49
 1073 0 1073 0 1049 50 c 2,50,-1
 952 256 l 2,51,52
 865 441 865 441 759 470 c 0,53,54
 645 501 645 501 607 550 c 1,55,-1
 473 50 l 2,56,57
 460 0 460 0 410 0 c 2,58,-1
 310 0 l 2,0,1
EndSplineSet
Validated: 1
EndChar

StartChar: S
Encoding: 83 83 51
Width: 1208
GlyphClass: 2
Flags: W
HStem: -20 75<392.384 746.33> 228 264<261.844 408.809> 1096 264<1084.19 1230.83> 1455 75<863.541 1165.85>
VStem: 171 277<267.707 442.346> 500 196<1048.96 1265.59> 1037 210<380.199 636.297> 1045 280<1146.93 1320.29>
DStem2: 833 980 711 812 0.898429 -0.43912<-149.802 311.539>
LayerCount: 2
Fore
SplineSet
565 -20 m 0,0,1
 353 -20 353 -20 255 98 c 0,2,3
 171 198 171 198 171 308 c 0,4,5
 171 346 171 346 182 381 c 0,6,7
 196 423 196 423 223 451 c 0,8,9
 263 492 263 492 319 492 c 0,10,11
 373 492 373 492 410.5 453.5 c 128,-1,12
 448 415 448 415 448 360 c 128,-1,13
 448 305 448 305 410 266.5 c 128,-1,14
 372 228 372 228 318 228 c 0,15,16
 288 228 288 228 261 243 c 1,17,18
 336 55 336 55 563 55 c 0,19,20
 753 55 753 55 884 187 c 0,21,22
 988 291 988 291 1025 424 c 0,23,24
 1037 467 1037 467 1037 506 c 0,25,26
 1037 650 1037 650 868 734 c 2,27,-1
 711 812 l 2,28,29
 500 917 500 917 500 1091 c 0,30,31
 500 1137 500 1137 514 1189 c 0,32,33
 552 1331 552 1331 699 1438 c 0,34,35
 826 1530 826 1530 1010 1530 c 0,36,37
 1242 1530 1242 1530 1311 1353 c 0,38,39
 1325 1317 1325 1317 1325 1280 c 0,40,41
 1325 1237 1325 1237 1314 1206 c 0,42,43
 1301 1168 1301 1168 1273 1138 c 0,44,45
 1232 1096 1232 1096 1174 1096 c 0,46,47
 1120 1096 1120 1096 1082.5 1134.5 c 128,-1,48
 1045 1173 1045 1173 1045 1228 c 128,-1,49
 1045 1283 1045 1283 1083 1321.5 c 128,-1,50
 1121 1360 1121 1360 1175 1360 c 0,51,52
 1205 1360 1205 1360 1232 1345 c 1,53,54
 1169 1455 1169 1455 1030 1455 c 0,55,56
 902 1455 902 1455 817 1390 c 0,57,58
 734 1326 734 1326 704 1222 c 0,59,60
 696 1194 696 1194 696 1168 c 0,61,62
 696 1047 696 1047 833 980 c 2,63,-1
 1011 893 l 2,64,65
 1247 778 1247 778 1247 580 c 0,66,67
 1247 516 1247 516 1232 460 c 0,68,69
 1179 261 1179 261 977 113 c 0,70,71
 796 -20 796 -20 565 -20 c 0,0,1
EndSplineSet
Validated: 1
EndChar

StartChar: T
Encoding: 84 84 52
Width: 1260
GlyphClass: 2
Flags: W
HStem: 0 21G<579 724> 1420 90<766.746 1450.75>
VStem: 1323 275<1202.12 1379.78>
DStem2: 548.603 0 748.603 0 0.258819 0.965926<39.8087 1254.06>
LayerCount: 2
Fore
SplineSet
1023 1510 m 2,0,-1
 1368 1510 l 2,1,2
 1480 1510 1480 1510 1542 1452 c 0,3,4
 1598 1400 1598 1400 1598 1330 c 0,5,6
 1598 1295 1598 1295 1589 1266 c 0,7,8
 1577 1226 1577 1226 1548 1196 c 0,9,10
 1508 1155 1508 1155 1452 1155 c 0,11,12
 1398 1155 1398 1155 1360.5 1193.5 c 128,-1,13
 1323 1232 1323 1232 1323 1287 c 128,-1,14
 1323 1342 1323 1342 1361 1381 c 0,15,16
 1395 1416 1395 1416 1453 1418 c 1,17,-1
 1453 1420 l 1,18,-1
 990 1420 l 2,19,20
 617 1420 617 1420 278 1025 c 1,21,-1
 266 1033 l 1,22,23
 569 1510 569 1510 1023 1510 c 2,0,-1
599 0 m 2,24,25
 559 0 559 0 559 31 c 0,26,27
 559 39 559 39 562 50 c 2,28,-1
 857 1150 l 2,29,30
 870 1200 870 1200 921 1200 c 2,31,-1
 1021 1200 l 2,32,33
 1060 1200 1060 1200 1060 1169 c 0,34,35
 1060 1161 1060 1161 1057 1150 c 2,36,-1
 762 50 l 2,37,38
 749 0 749 0 699 0 c 2,39,-1
 599 0 l 2,24,25
EndSplineSet
Validated: 1
EndChar

StartChar: U
Encoding: 85 85 53
Width: 1421
GlyphClass: 2
Flags: W
HStem: -20 119<581.065 847.007> 0 21G<1041 1186> 1490 20G<639.5 784.5 1439.5 1584.5>
VStem: 311 202<165.235 538.719>
DStem2: 204.987 -20 404.523 -20 0.258819 0.965926<397.009 1595.6> 1005.24 -20 1205.24 -20 0.258819 0.965926<60.5142 244.978 278.741 1595.54>
LayerCount: 2
Fore
SplineSet
1061 0 m 2,0,1
 1021 0 1021 0 1021 31 c 0,2,3
 1021 39 1021 39 1024 50 c 2,4,-1
 1071 216 l 1,5,6
 1042 168 1042 168 985 116 c 0,7,8
 836 -20 836 -20 645 -20 c 0,9,10
 408 -20 408 -20 331 166 c 0,11,12
 311 214 311 214 311 284 c 0,13,14
 311 375 311 375 347 510 c 2,15,-1
 601 1460 l 2,16,17
 614 1510 614 1510 665 1510 c 2,18,-1
 765 1510 l 2,19,20
 804 1510 804 1510 804 1479 c 0,21,22
 804 1471 804 1471 801 1460 c 2,23,-1
 546 508 l 2,24,25
 513 385 513 385 513 306 c 0,26,27
 513 276 513 276 518 251 c 0,28,29
 548 99 548 99 735 99 c 0,30,31
 916 99 916 99 1038 266 c 0,32,33
 1107 361 1107 361 1147 510 c 2,34,-1
 1401 1460 l 2,35,36
 1414 1510 1414 1510 1465 1510 c 2,37,-1
 1565 1510 l 2,38,39
 1604 1510 1604 1510 1604 1479 c 0,40,41
 1604 1471 1604 1471 1601 1460 c 2,42,-1
 1224 50 l 2,43,44
 1211 0 1211 0 1161 0 c 2,45,-1
 1061 0 l 2,0,1
EndSplineSet
Validated: 1
EndChar

StartChar: V
Encoding: 86 86 54
Width: 1385
GlyphClass: 2
Flags: W
HStem: -20 119<589.34 889.271> 1490 20G<639.5 784.5 1325.5 1405.5>
VStem: 310 202<170.831 538.719> 1380 171<826.457 1149.65>
DStem2: 204.987 -20 404.523 -20 0.258819 0.965926<396.631 1595.6>
LayerCount: 2
Fore
SplineSet
668 -20 m 0,0,1
 408 -20 408 -20 331 166 c 0,2,3
 310 217 310 217 310 285 c 0,4,5
 310 372 310 372 347 510 c 2,6,-1
 601 1460 l 2,7,8
 614 1510 614 1510 665 1510 c 2,9,-1
 765 1510 l 2,10,11
 804 1510 804 1510 804 1479 c 0,12,13
 804 1471 804 1471 801 1460 c 2,14,-1
 546 508 l 2,15,16
 512 381 512 381 512 306 c 0,17,18
 512 274 512 274 518 251 c 0,19,20
 556 99 556 99 748 99 c 0,21,22
 967 99 967 99 1155 325 c 0,23,24
 1283 479 1283 479 1352 736 c 0,25,26
 1380 839 1380 839 1380 930 c 0,27,28
 1380 1030 1380 1030 1357 1097 c 0,29,30
 1323 1201 1323 1201 1249 1278 c 0,31,32
 1204 1325 1204 1325 1204 1382 c 0,33,34
 1204 1409 1204 1409 1213 1436 c 0,35,36
 1226 1477 1226 1477 1257 1500 c 0,37,38
 1297 1530 1297 1530 1354 1530 c 0,39,40
 1457 1530 1457 1530 1502 1418 c 0,41,42
 1551 1299 1551 1299 1551 1139 c 0,43,44
 1551 994 1551 994 1506 826 c 0,45,46
 1425 525 1425 525 1258 318 c 0,47,48
 985 -20 985 -20 668 -20 c 0,0,1
EndSplineSet
Validated: 1
EndChar

StartChar: W
Encoding: 87 87 55
Width: 2185
GlyphClass: 2
Flags: W
HStem: -20 119<580.688 856.547 1388.97 1688.6> 1490 20G<639.5 784.5 1439.5 1584.5 2125.5 2205.5>
VStem: 310 203<165.235 538.719> 2180 171<826.457 1149.65>
DStem2: 204.987 -20 404.523 -20 0.258819 0.965926<397.009 1595.6> 1004.99 -20 1204.44 -20 0.258819 0.965926<396.631 1595.6>
LayerCount: 2
Fore
SplineSet
645 -20 m 0,0,1
 409 -20 409 -20 331 166 c 0,2,3
 310 216 310 216 310 284 c 0,4,5
 310 372 310 372 347 510 c 2,6,-1
 601 1460 l 2,7,8
 614 1510 614 1510 665 1510 c 2,9,-1
 765 1510 l 2,10,11
 804 1510 804 1510 804 1479 c 0,12,13
 804 1471 804 1471 801 1460 c 2,14,-1
 546 508 l 2,15,16
 513 385 513 385 513 306 c 0,17,18
 513 276 513 276 518 251 c 0,19,20
 546 99 546 99 735 99 c 0,21,22
 916 99 916 99 1038 266 c 0,23,24
 1107 361 1107 361 1147 510 c 2,25,-1
 1401 1460 l 2,26,27
 1414 1510 1414 1510 1465 1510 c 2,28,-1
 1565 1510 l 2,29,30
 1604 1510 1604 1510 1604 1479 c 0,31,32
 1604 1471 1604 1471 1601 1460 c 2,33,-1
 1346 508 l 2,34,35
 1312 381 1312 381 1312 306 c 0,36,37
 1312 274 1312 274 1318 251 c 0,38,39
 1356 99 1356 99 1548 99 c 0,40,41
 1765 99 1765 99 1955 325 c 0,42,43
 2082 476 2082 476 2152 736 c 0,44,45
 2180 839 2180 839 2180 930 c 0,46,47
 2180 1030 2180 1030 2157 1097 c 0,48,49
 2123 1201 2123 1201 2049 1278 c 0,50,51
 2004 1325 2004 1325 2004 1382 c 0,52,53
 2004 1409 2004 1409 2013 1436 c 0,54,55
 2026 1477 2026 1477 2057 1500 c 0,56,57
 2097 1530 2097 1530 2154 1530 c 0,58,59
 2257 1530 2257 1530 2302 1418 c 0,60,61
 2351 1299 2351 1299 2351 1139 c 0,62,63
 2351 994 2351 994 2306 826 c 0,64,65
 2225 525 2225 525 2058 318 c 0,66,67
 1784 -20 1784 -20 1468 -20 c 0,68,69
 1205 -20 1205 -20 1133 165 c 0,70,71
 1118 203 1118 203 1113 258 c 1,72,73
 1067 182 1067 182 998 119 c 0,74,75
 846 -20 846 -20 645 -20 c 0,0,1
EndSplineSet
Validated: 1
EndChar

StartChar: X
Encoding: 88 88 56
Width: 1134
GlyphClass: 2
Flags: W
HStem: 0 21G<110 206 823.5 968.5> 1490 20G<479.5 624 1300 1354>
VStem: 1197 259<1305.22 1490.29>
DStem2: 860 598 461 1460 0.225263 -0.974298<-944.231 0 81.9594 117.315 200.419 577.03>
LayerCount: 2
Fore
SplineSet
117 0 m 2,0,1
 103 0 103 0 103 11 c 0,2,3
 103 21 103 21 115 30 c 0,4,5
 440 247 440 247 693 458 c 1,6,-1
 461 1460 l 2,7,8
 460 1464 460 1464 460 1475 c 0,9,10
 461 1510 461 1510 498 1510 c 2,11,-1
 599 1510 l 2,12,13
 649 1510 649 1510 661 1460 c 2,14,-1
 860 598 l 1,15,16
 1131 865 1131 865 1321 1268 c 1,17,18
 1271 1268 1271 1268 1235 1304 c 0,19,20
 1197 1343 1197 1343 1197 1398 c 128,-1,21
 1197 1453 1197 1453 1235 1491.5 c 128,-1,22
 1273 1530 1273 1530 1327 1530 c 128,-1,23
 1381 1530 1381 1530 1418.5 1491.5 c 128,-1,24
 1456 1453 1456 1453 1456 1398 c 0,25,26
 1456 1380 1456 1380 1451 1359 c 0,27,28
 1444 1327 1444 1327 1415 1264 c 0,29,30
 1197 792 1197 792 883 498 c 1,31,-1
 987 50 l 2,32,33
 988 46 988 46 988 35 c 0,34,35
 987 0 987 0 950 0 c 2,36,-1
 849 0 l 2,37,38
 798 0 798 0 787 50 c 2,39,-1
 716 359 l 1,40,41
 499 172 499 172 262 26 c 24,42,43
 220 0 220 0 192 0 c 2,44,-1
 117 0 l 2,0,1
EndSplineSet
Validated: 1
EndChar

StartChar: Y
Encoding: 89 89 57
Width: 1360
GlyphClass: 2
Flags: W
HStem: -20 75<480.879 790.888> 146 264<419.844 566.809> 510 111<699.082 953.192> 1490 20G<639.5 784.5 1379.5 1524.5>
VStem: 329 277<185.707 360.346> 436 203<678.401 1004.38>
DStem2: 205.128 -20 405.128 -20 0.258819 0.965926<907.8 1595.57> 944.269 -20 1144.27 -20 0.258819 0.965926<356.415 739.295 764.062 1595.68>
LayerCount: 2
Fore
SplineSet
633 -20 m 0,0,1
 459 -20 459 -20 374 88 c 0,2,3
 329 146 329 146 329 226 c 0,4,5
 329 264 329 264 340 299 c 0,6,7
 354 341 354 341 381 369 c 0,8,9
 421 410 421 410 477 410 c 0,10,11
 531 410 531 410 568.5 371.5 c 128,-1,12
 606 333 606 333 606 278 c 128,-1,13
 606 223 606 223 568 184.5 c 128,-1,14
 530 146 530 146 476 146 c 0,15,16
 446 146 446 146 419 161 c 1,17,18
 475 55 475 55 628 55 c 0,19,20
 803 55 803 55 932 201 c 0,21,22
 1034 316 1034 316 1097 550 c 2,23,-1
 1136 694 l 1,24,25
 1094 644 1094 644 1027 597 c 0,26,27
 902 510 902 510 742 510 c 0,28,29
 547 510 547 510 470 641 c 0,30,31
 436 699 436 699 436 780 c 0,32,33
 436 841 436 841 457 920 c 2,34,-1
 601 1460 l 2,35,36
 614 1510 614 1510 665 1510 c 2,37,-1
 765 1510 l 2,38,39
 804 1510 804 1510 804 1479 c 0,40,41
 804 1471 804 1471 801 1460 c 2,42,-1
 657 920 l 2,43,44
 639 852 639 852 639 802 c 0,45,46
 639 766 639 766 648 739 c 0,47,48
 688 621 688 621 847 621 c 0,49,50
 1002 621 1002 621 1111 740 c 0,51,52
 1165 799 1165 799 1197 920 c 2,53,-1
 1341 1460 l 2,54,55
 1354 1510 1354 1510 1405 1510 c 2,56,-1
 1505 1510 l 2,57,58
 1544 1510 1544 1510 1544 1479 c 0,59,60
 1544 1471 1544 1471 1541 1460 c 2,61,-1
 1297 550 l 2,62,63
 1220 264 1220 264 1021 116 c 0,64,65
 839 -20 839 -20 633 -20 c 0,0,1
EndSplineSet
Validated: 1
EndChar

StartChar: Z
Encoding: 90 90 58
Width: 1299
GlyphClass: 2
Flags: W
HStem: -20 83<627.573 1103.2> 37 92<418 707.69> 1380 93<987.181 1246> 1447 83<636.797 1062.57>
VStem: 459 259<1160.71 1350.12> 1022 259<159.875 349.293>
DStem2: 58 -6 418 129 0.650791 0.759257<336.785 1825.47>
LayerCount: 2
Fore
SplineSet
65 -20 m 1,0,1
 58 -6 l 1,2,-1
 1246 1380 l 1,3,4
 1155 1380 1155 1380 1022 1416 c 0,5,6
 908 1447 908 1447 827 1447 c 0,7,8
 667 1447 667 1447 610 1383 c 1,9,10
 650 1377 650 1377 680 1346 c 0,11,12
 718 1308 718 1308 718 1253 c 128,-1,13
 718 1198 718 1198 680 1159.5 c 128,-1,14
 642 1121 642 1121 588 1121 c 128,-1,15
 534 1121 534 1121 496.5 1159.5 c 128,-1,16
 459 1198 459 1198 459 1253 c 0,17,18
 459 1278 459 1278 466 1306 c 0,19,20
 492 1404 492 1404 587 1469 c 0,21,22
 677 1530 677 1530 834 1530 c 0,23,24
 948 1530 948 1530 1100 1495 c 0,25,26
 1195 1473 1195 1473 1311 1473 c 0,27,28
 1443 1473 1443 1473 1596 1530 c 1,29,-1
 1602 1516 l 1,30,-1
 418 129 l 1,31,32
 540 129 540 129 668 94 c 0,33,34
 782 63 782 63 913 63 c 0,35,36
 1073 63 1073 63 1130 127 c 1,37,38
 1090 133 1090 133 1060 164 c 0,39,40
 1022 202 1022 202 1022 257 c 128,-1,41
 1022 312 1022 312 1060 350.5 c 128,-1,42
 1098 389 1098 389 1152 389 c 128,-1,43
 1206 389 1206 389 1243.5 350.5 c 128,-1,44
 1281 312 1281 312 1281 257 c 0,45,46
 1281 232 1281 232 1274 204 c 0,47,48
 1248 106 1248 106 1153 41 c 0,49,50
 1063 -20 1063 -20 906 -20 c 0,51,52
 762 -20 762 -20 618 13 c 0,53,54
 515 37 515 37 379 37 c 0,55,56
 218 37 218 37 65 -20 c 1,0,1
EndSplineSet
Validated: 1
EndChar

StartChar: bracketleft
Encoding: 91 91 59
Width: 765
GlyphClass: 2
Flags: W
HStem: -205 100<402 672.02> 1610 100<861 1158.02>
DStem2: 194.603 -205 375.205 -205 0.258819 0.965926<150.271 1925.63>
LayerCount: 2
Fore
SplineSet
758 1710 m 2,0,1
 1148 1710 l 2,2,3
 1167 1710 1167 1710 1167 1694 c 0,4,5
 1167 1689 1167 1689 1166 1685 c 2,6,-1
 1153 1635 l 2,7,8
 1146 1610 1146 1610 1121 1610 c 2,9,-1
 861 1610 l 1,10,-1
 402 -105 l 1,11,-1
 662 -105 l 2,12,13
 681 -105 681 -105 681 -120 c 0,14,15
 681 -126 681 -126 680 -130 c 2,16,-1
 667 -180 l 2,17,18
 660 -205 660 -205 635 -205 c 2,19,-1
 245 -205 l 2,20,21
 205 -205 205 -205 205 -174 c 0,22,23
 205 -166 205 -166 208 -155 c 2,24,-1
 695 1660 l 2,25,26
 708 1710 708 1710 758 1710 c 2,0,1
EndSplineSet
Validated: 1
EndChar

StartChar: backslash
Encoding: 92 92 60
Width: 1113
GlyphClass: 2
Flags: W
VStem: 437 648
DStem2: 1082 -45 959 -106 0.295325 -0.955397<-1752.35 16.4549>
LayerCount: 2
Fore
SplineSet
531 1662 m 0,0,1
 554 1662 554 1662 563 1634 c 2,2,-1
 1082 -45 l 2,3,4
 1085 -55 1085 -55 1085 -61.5 c 128,-1,5
 1085 -68 1085 -68 1083 -75 c 0,6,7
 1077 -97 1077 -97 1046 -113 c 2,8,-1
 1022 -125 l 2,9,10
 1004 -134 1004 -134 992 -134 c 0,11,12
 968 -134 968 -134 959 -106 c 2,13,-1
 440 1573 l 2,14,15
 437 1583 437 1583 437 1590 c 0,16,17
 437 1596 437 1596 439 1602 c 0,18,19
 446 1626 446 1626 476 1641 c 2,20,-1
 500 1653 l 2,21,22
 518 1662 518 1662 531 1662 c 0,0,1
EndSplineSet
Validated: 1
EndChar

StartChar: bracketright
Encoding: 93 93 61
Width: 765
GlyphClass: 2
Flags: W
HStem: -205 100<9.98047 307> 1610 100<495.98 766>
DStem2: 279.672 -205 460.275 -205 0.258819 0.965926<103.666 1879.03>
LayerCount: 2
Fore
SplineSet
923 1710 m 2,0,1
 963 1710 963 1710 963 1679 c 0,2,3
 963 1671 963 1671 960 1660 c 2,4,-1
 473 -155 l 2,5,6
 460 -205 460 -205 410 -205 c 2,7,-1
 20 -205 l 2,8,9
 1 -205 1 -205 1 -189 c 0,10,11
 1 -184 1 -184 2 -180 c 2,12,-1
 15 -130 l 2,13,14
 22 -105 22 -105 47 -105 c 2,15,-1
 307 -105 l 1,16,-1
 766 1610 l 1,17,-1
 506 1610 l 2,18,19
 487 1610 487 1610 487 1625 c 0,20,21
 487 1631 487 1631 488 1635 c 2,22,-1
 501 1685 l 2,23,24
 508 1710 508 1710 533 1710 c 2,25,-1
 923 1710 l 2,0,1
EndSplineSet
Validated: 1
EndChar

StartChar: asciicircum
Encoding: 94 94 62
Width: 692
GlyphClass: 2
Flags: W
HStem: 1040 490<777.062 841.137>
VStem: 342 600
DStem2: 354 1114 436 1059 0.643878 0.765128<-23.4762 416.723> 843 1480 697 1370 0.270256 -0.962788<66.4493 372.215>
LayerCount: 2
Fore
SplineSet
745 1530 m 2,0,1
 786 1530 l 2,2,3
 829 1530 829 1530 843 1480 c 2,4,-1
 939 1138 l 2,5,6
 942 1127 942 1127 942 1121 c 0,7,8
 942 1110 942 1110 937 1100 c 0,9,10
 924 1077 924 1077 903 1070 c 2,11,-1
 844 1050 l 2,12,13
 814 1040 814 1040 812 1040 c 0,14,15
 789 1040 789 1040 781 1068 c 2,16,-1
 697 1370 l 1,17,-1
 436 1059 l 2,18,19
 420 1040 420 1040 405 1040 c 0,20,21
 394 1040 394 1040 385 1046 c 2,22,-1
 355 1067 l 2,23,24
 342 1076 342 1076 342 1086 c 0,25,26
 342 1089 342 1089 343 1093 c 0,27,28
 347 1106 347 1106 354 1114 c 2,29,-1
 662 1480 l 2,30,31
 704 1530 704 1530 745 1530 c 2,0,1
EndSplineSet
Validated: 1
EndChar

StartChar: underscore
Encoding: 95 95 63
Width: 1233
GlyphClass: 2
Flags: W
HStem: -200 113<115.241 1040.76>
LayerCount: 2
Fore
SplineSet
167 -87 m 2,0,-1
 1020 -87 l 2,1,2
 1060 -87 1060 -87 1049 -127 c 2,3,4
 1040 -160 l 2,5,6
 1029 -200 1029 -200 989 -200 c 2,7,-1
 136 -200 l 2,8,9
 96 -200 96 -200 107 -160 c 2,10,-1
 116 -127 l 2,11,12
 127 -87 127 -87 167 -87 c 2,0,-1
EndSplineSet
Validated: 1
EndChar

StartChar: grave
Encoding: 96 96 64
Width: 444
GlyphClass: 2
Flags: W
HStem: 1160 324
VStem: 419 291
LayerCount: 2
Fore
SplineSet
522 1484 m 128,-1,1
 572 1484 572 1484 597 1428 c 2,2,-1
 710 1178 l 1,3,-1
 689 1160 l 1,4,-1
 474 1295 l 2,5,6
 419 1330 419 1330 419 1377 c 128,-1,7
 419 1424 419 1424 446 1454 c 0,8,0
 472 1484 472 1484 522 1484 c 128,-1,1
EndSplineSet
Validated: 1
EndChar

StartChar: a
Encoding: 97 97 65
Width: 1149
GlyphClass: 2
Flags: W
HStem: -20 75<479.022 707.412> 0 21G<809 934> 1045 75<724.369 961.565> 1080 20G<1098 1223.5>
VStem: 207 190<155.258 564.155> 1004 239<863.5 1084.5>
DStem2: 773.244 -20 953.244 -20 0.258819 0.965926<55.3295 118.076 148.904 934.396 1062.41 1171.27>
LayerCount: 2
Fore
SplineSet
909 0 m 2,0,-1
 829 0 l 2,1,2
 789 0 789 0 789 31 c 0,3,4
 789 39 789 39 792 50 c 2,5,-1
 804 94 l 1,6,7
 708 -20 708 -20 540 -20 c 0,8,9
 359 -20 359 -20 258 144 c 0,10,11
 207 227 207 227 207 345 c 0,12,13
 207 436 207 436 237 549 c 0,14,15
 303 794 303 794 475 956 c 0,16,17
 650 1120 650 1120 845 1120 c 0,18,19
 1008 1120 1008 1120 1049 1006 c 1,20,-1
 1060 1050 l 2,21,22
 1072 1100 1072 1100 1124 1100 c 2,23,-1
 1204 1100 l 2,24,25
 1243 1100 1243 1100 1243 1069 c 0,26,27
 1243 1061 1243 1061 1240 1050 c 2,28,-1
 972 50 l 2,29,30
 959 0 959 0 909 0 c 2,0,-1
592 55 m 0,31,32
 678 55 678 55 746 114 c 0,33,34
 829 186 829 186 864 319 c 2,35,-1
 988 781 l 2,36,37
 1004 840 1004 840 1004 887 c 0,38,39
 1004 946 1004 946 979 986 c 0,40,41
 943 1045 943 1045 857 1045 c 0,42,43
 715 1045 715 1045 591 892 c 0,44,45
 498 777 498 777 438 550 c 0,46,47
 398 400 398 400 397 299 c 0,48,49
 397 247 397 247 408 208 c 0,50,51
 450 55 450 55 592 55 c 0,31,32
EndSplineSet
Validated: 1
EndChar

StartChar: c
Encoding: 99 99 66
Width: 1020
GlyphClass: 2
Flags: W
HStem: -20 75<497.065 786.156> 690 264<936.191 1082.96> 1045 75<739.695 1028.11>
VStem: 209 193<162.463 566.064> 897 278<739.654 914.293>
LayerCount: 2
Fore
SplineSet
579 -20 m 0,0,1
 379 -20 379 -20 281 116 c 0,2,3
 209 217 209 217 209 358 c 0,4,5
 209 446 209 446 237 550 c 0,6,7
 313 834 313 834 514 984 c 0,8,9
 696 1120 696 1120 891 1120 c 0,10,11
 1046 1120 1046 1120 1129 1010 c 0,12,13
 1175 949 1175 949 1175 874 c 0,14,15
 1175 835 1175 835 1164 800 c 0,16,17
 1150 759 1150 759 1122 730 c 0,18,19
 1083 690 1083 690 1026 690 c 0,20,21
 972 690 972 690 934.5 728.5 c 128,-1,22
 897 767 897 767 897 822 c 128,-1,23
 897 877 897 877 935 915.5 c 128,-1,24
 973 954 973 954 1027 954 c 0,25,26
 1057 954 1057 954 1084 939 c 1,27,28
 1032 1045 1032 1045 898 1045 c 0,29,30
 727 1045 727 1045 603 899 c 0,31,32
 505 784 505 784 442 550 c 0,33,34
 402 401 402 401 402 302 c 0,35,36
 402 243 402 243 416 201 c 0,37,38
 465 55 465 55 645 55 c 0,39,40
 787 55 787 55 912 168 c 0,41,42
 943 196 943 196 972 229 c 1,43,-1
 987 229 l 1,44,-1
 957 116 l 1,45,46
 791 -20 791 -20 579 -20 c 0,0,1
EndSplineSet
Validated: 1
EndChar

StartChar: d
Encoding: 100 100 67
Width: 1149
GlyphClass: 2
Flags: W
HStem: -20 75<478.88 710.023> 0 21G<809 934> 1045 75<724.799 961.565> 1490 20G<1208.5 1333.5>
VStem: 207 190<155.26 564.246>
DStem2: 773.244 -20 953.244 -20 0.258819 0.965926<55.3295 118.076 148.904 934.396 1062.41 1595.73>
LayerCount: 2
Fore
SplineSet
909 0 m 2,0,-1
 829 0 l 2,1,2
 789 0 789 0 789 31 c 0,3,4
 789 39 789 39 792 50 c 2,5,-1
 804 94 l 1,6,7
 714 -20 714 -20 540 -20 c 0,8,9
 358 -20 358 -20 258 144 c 0,10,11
 207 227 207 227 207 346 c 0,12,13
 207 437 207 437 237 549 c 0,14,15
 303 797 303 797 475 956 c 0,16,17
 652 1120 652 1120 845 1120 c 0,18,19
 1008 1120 1008 1120 1049 1006 c 1,20,-1
 1170 1460 l 2,21,22
 1183 1510 1183 1510 1234 1510 c 2,23,-1
 1314 1510 l 2,24,25
 1353 1510 1353 1510 1353 1479 c 0,26,27
 1353 1471 1353 1471 1350 1460 c 2,28,-1
 972 50 l 2,29,30
 959 0 959 0 909 0 c 2,0,-1
592 55 m 0,31,32
 678 55 678 55 746 114 c 0,33,34
 829 186 829 186 864 319 c 2,35,-1
 988 781 l 2,36,37
 1004 840 1004 840 1004 887 c 0,38,39
 1004 946 1004 946 979 986 c 0,40,41
 943 1045 943 1045 857 1045 c 0,42,43
 715 1045 715 1045 591 892 c 0,44,45
 498 777 498 777 438 550 c 0,46,47
 398 400 398 400 397 299 c 0,48,49
 397 247 397 247 408 208 c 0,50,51
 450 55 450 55 592 55 c 0,31,32
EndSplineSet
Validated: 1
EndChar

StartChar: e
Encoding: 101 101 68
Width: 1098
GlyphClass: 2
Flags: W
HStem: -20 75<495.44 786.906> 1055 65<729.272 949.992>
VStem: 209 190<162.463 433.998> 1022 191<644.969 969.625>
DStem2: 410 419 400 329 0.957781 0.287499<0 595.345>
LayerCount: 2
Fore
SplineSet
579 -20 m 0,0,1
 379 -20 379 -20 281 116 c 0,2,3
 209 217 209 217 209 358 c 0,4,5
 209 446 209 446 237 550 c 0,6,7
 309 817 309 817 514 984 c 0,8,9
 680 1120 680 1120 870 1120 c 0,10,11
 1064 1120 1064 1120 1156 990 c 0,12,13
 1213 910 1213 910 1213 814 c 0,14,15
 1213 766 1213 766 1199 714 c 0,16,17
 1157 556 1157 556 983 504 c 2,18,-1
 400 329 l 1,19,20
 399 314 399 314 399 301 c 0,21,22
 399 243 399 243 413 201 c 0,23,24
 460 55 460 55 645 55 c 0,25,26
 790 55 790 55 912 168 c 0,27,28
 943 196 943 196 972 229 c 1,29,-1
 987 229 l 1,30,-1
 957 116 l 1,31,32
 791 -20 791 -20 579 -20 c 0,0,1
410 419 m 1,33,-1
 840 550 l 2,34,35
 973 590 973 590 1003 701 c 0,36,37
 1022 772 1022 772 1022 833 c 0,38,39
 1022 870 1022 870 1015 903 c 0,40,41
 984 1055 984 1055 849 1055 c 0,42,43
 709 1055 709 1055 596 902 c 0,44,45
 499 771 499 771 439 550 c 0,46,47
 418 471 418 471 410 419 c 1,33,-1
EndSplineSet
Validated: 1
EndChar

StartChar: f
Encoding: 102 102 69
Width: 936
GlyphClass: 2
Flags: W
HStem: -410 21G<110.5 235.5> 600 90<202.054 351 555 861.946> 1100 264<1021.19 1168.16> 1460 70<867.759 1110.62>
VStem: 982 279<1149.65 1324.29>
DStem2: 80.6025 -410 260.603 -410 0.258819 0.965926<34.8125 1045.57 1185.3 1811.98>
LayerCount: 2
Fore
SplineSet
130 -410 m 2,0,1
 91 -410 91 -410 91 -379 c 0,2,3
 91 -371 91 -371 94 -360 c 2,4,-1
 351 600 l 1,5,-1
 220 600 l 2,6,7
 197 600 197 600 197 619 c 0,8,9
 197 626 197 626 198 630 c 2,10,-1
 206 660 l 2,11,12
 214 690 214 690 244 690 c 2,13,-1
 375 690 l 1,14,-1
 493 1132 l 2,15,16
 540 1307 540 1307 690 1426 c 0,17,18
 821 1530 821 1530 989 1530 c 0,19,20
 1140 1530 1140 1530 1215 1423 c 0,21,22
 1261 1358 1261 1358 1261 1284 c 0,23,24
 1261 1241 1261 1241 1250 1210 c 0,25,26
 1236 1169 1236 1169 1208 1140 c 0,27,28
 1169 1100 1169 1100 1111 1100 c 0,29,30
 1057 1100 1057 1100 1019.5 1138.5 c 128,-1,31
 982 1177 982 1177 982 1232 c 128,-1,32
 982 1287 982 1287 1020 1325.5 c 128,-1,33
 1058 1364 1058 1364 1112 1364 c 0,34,35
 1142 1364 1142 1364 1169 1349 c 1,36,37
 1122 1460 1122 1460 1000 1460 c 0,38,39
 893 1460 893 1460 804 1380 c 0,40,41
 719 1304 719 1304 673 1132 c 2,42,-1
 555 690 l 1,43,-1
 844 690 l 2,44,45
 867 690 867 690 867 671 c 0,46,47
 867 664 867 664 866 660 c 2,48,-1
 858 630 l 2,49,50
 850 600 850 600 820 600 c 2,51,-1
 531 600 l 1,52,-1
 274 -360 l 2,53,54
 261 -410 261 -410 210 -410 c 2,55,-1
 130 -410 l 2,0,1
EndSplineSet
Validated: 1
EndChar

StartChar: h
Encoding: 104 104 70
Width: 1211
GlyphClass: 2
Flags: W
HStem: 0 21G<220 345 871 996> 1009 111<794.536 1001.75> 1490 20G<619.5 744.5>
VStem: 1050 183<627.5 963.038>
DStem2: 189.603 0 369.603 0 0.258819 0.965926<34.624 1575.02> 840.603 0 1020.6 0 0.258819 0.965926<34.624 862.972>
LayerCount: 2
Fore
SplineSet
240 0 m 2,0,1
 200 0 200 0 200 31 c 0,2,3
 200 39 200 39 203 50 c 2,4,-1
 581 1460 l 2,5,6
 594 1510 594 1510 645 1510 c 2,7,-1
 725 1510 l 2,8,9
 764 1510 764 1510 764 1479 c 0,10,11
 764 1471 764 1471 761 1460 c 2,12,-1
 613 908 l 1,13,14
 661 981 661 981 730 1034 c 0,15,16
 842 1120 842 1120 980 1120 c 0,17,18
 1146 1120 1146 1120 1209 986 c 0,19,20
 1233 935 1233 935 1233 865 c 0,21,22
 1233 796 1233 796 1210 710 c 2,23,24
 1034 50 l 2,25,26
 1021 0 1021 0 971 0 c 2,27,-1
 891 0 l 2,28,29
 851 0 851 0 851 31 c 0,30,31
 851 39 851 39 854 50 c 2,32,-1
 1030 710 l 2,33,34
 1050 785 1050 785 1050 839 c 0,35,36
 1050 869 1050 869 1044 892 c 0,37,38
 1013 1009 1013 1009 873 1009 c 0,39,40
 741 1009 741 1009 645 890 c 0,41,42
 590 821 590 821 560 710 c 2,43,-1
 383 50 l 2,44,45
 370 0 370 0 320 0 c 2,46,-1
 240 0 l 2,0,1
EndSplineSet
Validated: 1
EndChar

StartChar: i
Encoding: 105 105 71
Width: 560
GlyphClass: 2
Flags: W
HStem: 0 21G<220 345> 1080 20G<510 635> 1180 264<537.191 718.324>
VStem: 498 259<1219.71 1404.29>
DStem2: 189.603 0 369.603 0 0.258819 0.965926<34.624 1150.62>
LayerCount: 2
Fore
SplineSet
628 1444 m 128,-1,1
 682 1444 682 1444 719.5 1405.5 c 128,-1,2
 757 1367 757 1367 757 1312 c 128,-1,3
 757 1257 757 1257 719.5 1218.5 c 128,-1,4
 682 1180 682 1180 628 1180 c 128,-1,5
 574 1180 574 1180 536 1218.5 c 128,-1,6
 498 1257 498 1257 498 1312 c 128,-1,7
 498 1367 498 1367 536 1405.5 c 128,-1,0
 574 1444 574 1444 628 1444 c 128,-1,1
240 0 m 2,8,9
 200 0 200 0 200 31 c 0,10,11
 200 39 200 39 203 50 c 2,12,-1
 472 1050 l 2,13,14
 485 1100 485 1100 535 1100 c 2,15,-1
 615 1100 l 2,16,17
 655 1100 655 1100 655 1069 c 0,18,19
 655 1061 655 1061 652 1050 c 2,20,-1
 383 50 l 2,21,22
 370 0 370 0 320 0 c 2,23,-1
 240 0 l 2,8,9
EndSplineSet
Validated: 1
EndChar

StartChar: j
Encoding: 106 106 72
Width: 560
GlyphClass: 2
Flags: W
HStem: -430 21G<-111 81> 1080 20G<510 635> 1180 264<537.191 718.324>
VStem: 498 259<1219.71 1404.29>
DStem2: 74.7818 -430 254.782 -430 0.258819 0.965926<265.762 1595.68>
LayerCount: 2
Fore
SplineSet
628 1444 m 128,-1,1
 682 1444 682 1444 719.5 1405.5 c 128,-1,2
 757 1367 757 1367 757 1312 c 128,-1,3
 757 1257 757 1257 719.5 1218.5 c 128,-1,4
 682 1180 682 1180 628 1180 c 128,-1,5
 574 1180 574 1180 536 1218.5 c 128,-1,6
 498 1257 498 1257 498 1312 c 128,-1,7
 498 1367 498 1367 536 1405.5 c 128,-1,0
 574 1444 574 1444 628 1444 c 128,-1,1
-115 -430 m 1,8,9
 -111 -415 l 1,10,11
 109 -302 109 -302 190 0 c 2,12,-1
 472 1050 l 2,13,14
 485 1100 485 1100 535 1100 c 2,15,-1
 615 1100 l 2,16,17
 655 1100 655 1100 655 1069 c 0,18,19
 655 1061 655 1061 652 1050 c 2,20,-1
 370 0 l 2,21,22
 277 -347 277 -347 -115 -430 c 1,8,9
EndSplineSet
Validated: 1
EndChar

StartChar: l
Encoding: 108 108 73
Width: 560
GlyphClass: 2
Flags: W
HStem: 0 21G<220 345> 1490 20G<619.5 744.5>
VStem: 200 564
DStem2: 189.603 0 369.603 0 0.258819 0.965926<34.624 1575.02>
LayerCount: 2
Fore
SplineSet
240 0 m 2,0,1
 200 0 200 0 200 31 c 0,2,3
 200 39 200 39 203 50 c 2,4,-1
 581 1460 l 2,5,6
 594 1510 594 1510 645 1510 c 2,7,-1
 725 1510 l 2,8,9
 764 1510 764 1510 764 1479 c 0,10,11
 764 1471 764 1471 761 1460 c 2,12,-1
 383 50 l 2,13,14
 370 0 370 0 320 0 c 2,15,-1
 240 0 l 2,0,1
EndSplineSet
Validated: 1
EndChar

StartChar: m
Encoding: 109 109 74
Width: 1861
GlyphClass: 2
Flags: W
HStem: 0 21G<220 345 870 995 1521 1646> 1009 111<794.772 1001.71 1443.94 1651.82> 1080 20G<510 635>
VStem: 1700 183<627.5 963.038>
DStem2: 189.603 0 369.603 0 0.258819 0.965926<34.624 1150.62> 839.603 0 1019.6 0 0.258819 0.965926<34.624 863.23> 1490.6 0 1670.6 0 0.258819 0.965926<34.624 862.972>
LayerCount: 2
Fore
SplineSet
240 0 m 2,0,1
 200 0 200 0 200 31 c 0,2,3
 200 39 200 39 203 50 c 2,4,-1
 472 1050 l 2,5,6
 485 1100 485 1100 535 1100 c 2,7,-1
 615 1100 l 2,8,9
 655 1100 655 1100 655 1069 c 0,10,11
 655 1061 655 1061 652 1050 c 2,12,-1
 613 908 l 1,13,14
 661 981 661 981 730 1034 c 0,15,16
 842 1120 842 1120 980 1120 c 0,17,18
 1144 1120 1144 1120 1209 986 c 0,19,20
 1230 942 1230 942 1234 881 c 1,21,22
 1286 967 1286 967 1376 1034 c 0,23,24
 1493 1120 1493 1120 1630 1120 c 0,25,26
 1796 1120 1796 1120 1859 986 c 0,27,28
 1883 935 1883 935 1883 865 c 0,29,30
 1883 796 1883 796 1860 710 c 2,31,-1
 1684 50 l 2,32,33
 1671 0 1671 0 1621 0 c 2,34,-1
 1541 0 l 2,35,36
 1501 0 1501 0 1501 31 c 0,37,38
 1501 39 1501 39 1504 50 c 2,39,-1
 1680 710 l 2,40,41
 1700 785 1700 785 1700 839 c 0,42,43
 1700 869 1700 869 1694 892 c 0,44,45
 1663 1009 1663 1009 1524 1009 c 0,46,47
 1391 1009 1391 1009 1295 890 c 0,48,49
 1240 821 1240 821 1210 710 c 2,50,-1
 1033 50 l 2,51,52
 1020 0 1020 0 970 0 c 2,53,-1
 890 0 l 2,54,55
 850 0 850 0 850 31 c 0,56,57
 850 39 850 39 853 50 c 2,58,-1
 1030 710 l 2,59,60
 1050 785 1050 785 1050 839 c 0,61,62
 1050 869 1050 869 1044 892 c 0,63,64
 1013 1009 1013 1009 874 1009 c 0,65,66
 741 1009 741 1009 645 890 c 0,67,68
 590 821 590 821 560 710 c 2,69,-1
 383 50 l 2,70,71
 370 0 370 0 320 0 c 2,72,-1
 240 0 l 2,0,1
EndSplineSet
Validated: 1
EndChar

StartChar: n
Encoding: 110 110 75
Width: 1211
GlyphClass: 2
Flags: W
HStem: 0 21G<220 345 871 996> 1009 111<796.18 1001.43> 1080 20G<510 635>
VStem: 1050 183<627.5 961.881>
DStem2: 189.603 0 369.603 0 0.258819 0.965926<34.624 1150.62> 840.603 0 1020.6 0 0.258819 0.965926<34.624 863.908>
LayerCount: 2
Fore
SplineSet
240 0 m 2,0,1
 200 0 200 0 200 31 c 0,2,3
 200 39 200 39 203 50 c 2,4,-1
 472 1050 l 2,5,6
 485 1100 485 1100 535 1100 c 2,7,-1
 615 1100 l 2,8,9
 655 1100 655 1100 655 1069 c 0,10,11
 655 1061 655 1061 652 1050 c 2,12,13
 613 908 l 1,14,15
 661 981 661 981 730 1034 c 0,16,17
 842 1120 842 1120 980 1120 c 0,18,19
 1146 1120 1146 1120 1209 986 c 0,20,21
 1233 935 1233 935 1233 865 c 0,22,23
 1233 796 1233 796 1210 710 c 2,24,-1
 1034 50 l 2,25,26
 1021 0 1021 0 971 0 c 2,27,-1
 891 0 l 2,28,29
 851 0 851 0 851 31 c 0,30,31
 851 39 851 39 854 50 c 2,32,-1
 1030 710 l 2,33,34
 1050 785 1050 785 1050 840 c 0,35,36
 1050 870 1050 870 1044 892 c 0,37,38
 1012 1009 1012 1009 872 1009 c 0,39,40
 741 1009 741 1009 645 890 c 0,41,42
 590 821 590 821 560 710 c 2,43,-1
 383 50 l 2,44,45
 370 0 370 0 320 0 c 2,46,-1
 240 0 l 2,0,1
EndSplineSet
Validated: 1
EndChar

StartChar: o
Encoding: 111 111 76
Width: 1128
GlyphClass: 2
Flags: W
HStem: -20 65<471.34 699.368> 1055 65<725.261 953.393>
VStem: 210 186<162.924 561.022> 1029 184<546.491 937.872>
LayerCount: 2
Fore
SplineSet
576 45 m 0,0,1
 718 45 718 45 831 198 c 0,2,3
 925 324 925 324 986 550 c 0,4,5
 1029 708 1029 708 1029 818 c 0,6,7
 1029 865 1029 865 1021 903 c 0,8,9
 990 1055 990 1055 847 1055 c 0,10,11
 707 1055 707 1055 594 902 c 0,12,13
 497 771 497 771 437 550 c 0,14,15
 396 398 396 398 396 288 c 0,16,17
 396 239 396 239 404 198 c 0,18,19
 435 45 435 45 576 45 c 0,0,1
559 -20 m 0,20,21
 373 -20 373 -20 281 116 c 0,22,23
 210 221 210 221 210 363 c 0,24,25
 210 450 210 450 237 550 c 0,26,27
 309 817 309 817 514 984 c 0,28,29
 680 1120 680 1120 869 1120 c 0,30,31
 1048 1120 1048 1120 1142 984 c 0,32,33
 1213 881 1213 881 1213 740 c 0,34,35
 1213 652 1213 652 1185 550 c 0,36,37
 1113 283 1113 283 909 116 c 0,38,39
 743 -20 743 -20 559 -20 c 0,20,21
EndSplineSet
Validated: 1
EndChar

StartChar: p
Encoding: 112 112 77
Width: 1148
GlyphClass: 2
Flags: W
HStem: -410 21G<109.5 234.5> -20 75<481.435 718.631> 1045 75<735.588 963.978> 1080 20G<509 634>
VStem: 1046 190<535.845 944.742>
DStem2: 79.6025 -410 259.603 -410 0.258819 0.965926<34.8125 568.199 696.92 1478.64 1512.53 1574.86>
LayerCount: 2
Fore
SplineSet
598 -20 m 0,0,1
 435 -20 435 -20 394 94 c 1,2,-1
 273 -360 l 2,3,4
 260 -410 260 -410 209 -410 c 2,5,-1
 129 -410 l 2,6,7
 90 -410 90 -410 90 -379 c 0,8,9
 90 -371 90 -371 93 -360 c 2,10,-1
 471 1050 l 2,11,12
 484 1100 484 1100 534 1100 c 2,13,-1
 614 1100 l 2,14,15
 654 1100 654 1100 654 1069 c 0,16,17
 654 1061 654 1061 651 1050 c 2,18,-1
 639 1006 l 1,19,20
 735 1120 735 1120 903 1120 c 0,21,22
 1084 1120 1084 1120 1185 956 c 0,23,24
 1236 873 1236 873 1236 755 c 0,25,26
 1236 664 1236 664 1206 551 c 0,27,28
 1140 306 1140 306 968 144 c 0,29,30
 793 -20 793 -20 598 -20 c 0,0,1
586 55 m 0,31,32
 728 55 728 55 852 208 c 0,33,34
 945 323 945 323 1005 550 c 0,35,36
 1045 700 1045 700 1046 801 c 0,37,38
 1046 853 1046 853 1035 892 c 0,39,40
 993 1045 993 1045 851 1045 c 0,41,42
 765 1045 765 1045 697 986 c 0,43,44
 614 914 614 914 578 781 c 2,45,-1
 454 319 l 2,46,47
 438 261 438 261 438 214 c 0,48,49
 438 154 438 154 464 114 c 0,50,51
 500 55 500 55 586 55 c 0,31,32
EndSplineSet
Validated: 1
EndChar

StartChar: q
Encoding: 113 113 78
Width: 1150
GlyphClass: 2
Flags: W
HStem: -410 21G<700 825> -20 75<479.022 707.412> 1045 75<724.369 961.565> 1080 20G<1098 1223.5>
VStem: 207 190<155.258 564.155> 1004 239<863.5 1084.5>
DStem2: 669.603 -410 849.603 -410 0.258819 0.965926<34.624 521.611 555.5 1337.93 1465.95 1575.28>
LayerCount: 2
Fore
SplineSet
540 -20 m 0,0,1
 359 -20 359 -20 258 144 c 0,2,3
 207 227 207 227 207 345 c 0,4,5
 207 436 207 436 237 549 c 0,6,7
 303 794 303 794 475 956 c 0,8,9
 650 1120 650 1120 845 1120 c 0,10,11
 1008 1120 1008 1120 1049 1006 c 1,12,-1
 1060 1050 l 2,13,14
 1072 1100 1072 1100 1124 1100 c 2,15,-1
 1204 1100 l 2,16,17
 1243 1100 1243 1100 1243 1069 c 0,18,19
 1243 1061 1243 1061 1240 1050 c 2,20,-1
 863 -360 l 2,21,22
 850 -410 850 -410 800 -410 c 2,23,-1
 720 -410 l 2,24,25
 680 -410 680 -410 680 -379 c 0,26,27
 680 -371 680 -371 683 -360 c 2,28,-1
 804 94 l 1,29,30
 708 -20 708 -20 540 -20 c 0,0,1
592 55 m 0,31,32
 678 55 678 55 746 114 c 0,33,34
 829 186 829 186 864 319 c 2,35,-1
 988 781 l 2,36,37
 1004 840 1004 840 1004 887 c 0,38,39
 1004 946 1004 946 979 986 c 0,40,41
 943 1045 943 1045 857 1045 c 0,42,43
 715 1045 715 1045 591 892 c 0,44,45
 498 777 498 777 438 550 c 0,46,47
 398 400 398 400 397 299 c 0,48,49
 397 247 397 247 408 208 c 0,50,51
 450 55 450 55 592 55 c 0,31,32
EndSplineSet
Validated: 1
EndChar

StartChar: r
Encoding: 114 114 79
Width: 935
GlyphClass: 2
Flags: W
HStem: 0 21G<220 345> 690 264<910.191 1057.16> 1050 70<756.848 999.623> 1080 20G<510 635>
VStem: 871 279<739.654 914.293>
DStem2: 189.603 0 369.603 0 0.258819 0.965926<34.624 1035.66>
LayerCount: 2
Fore
SplineSet
240 0 m 2,0,1
 200 0 200 0 200 31 c 0,2,3
 200 39 200 39 203 50 c 2,4,-1
 472 1050 l 2,5,6
 485 1100 485 1100 535 1100 c 2,7,-1
 615 1100 l 2,8,9
 655 1100 655 1100 655 1069 c 0,10,11
 655 1061 655 1061 652 1050 c 1,12,13
 748 1120 748 1120 878 1120 c 0,14,15
 1029 1120 1029 1120 1104 1013 c 0,16,17
 1150 948 1150 948 1150 874 c 0,18,19
 1150 831 1150 831 1139 800 c 0,20,21
 1125 759 1125 759 1097 730 c 0,22,23
 1058 690 1058 690 1000 690 c 0,24,25
 946 690 946 690 908.5 728.5 c 128,-1,26
 871 767 871 767 871 822 c 128,-1,27
 871 877 871 877 909 915.5 c 128,-1,28
 947 954 947 954 1001 954 c 0,29,30
 1031 954 1031 954 1058 939 c 1,31,32
 1011 1050 1011 1050 889 1050 c 0,33,34
 783 1050 783 1050 694 970 c 0,35,36
 609 894 609 894 563 722 c 2,37,-1
 383 50 l 2,38,39
 370 0 370 0 320 0 c 2,40,-1
 240 0 l 2,0,1
EndSplineSet
Validated: 1
EndChar

StartChar: s
Encoding: 115 115 80
Width: 980
GlyphClass: 2
Flags: W
HStem: -20 80<331.594 639.846> 166 264<249.844 396.809> 740 264<827.191 974.156> 1047 73<686.688 949.891>
VStem: 157 279<205.707 382.212> 403 167<741.009 932.705> 788 279<787.372 964.293> 804 181<224.498 444.642>
DStem2: 673 699 559 564 0.879707 -0.475517<-135.103 259.132>
LayerCount: 2
Fore
SplineSet
490 -20 m 0,0,1
 322 -20 322 -20 227 86 c 0,2,3
 157 164 157 164 157 251 c 0,4,5
 157 291 157 291 167.5 325.5 c 128,-1,6
 178 360 178 360 210 391 c 0,7,8
 252 430 252 430 307 430 c 0,9,10
 361 430 361 430 398.5 391.5 c 128,-1,11
 436 353 436 353 436 298 c 128,-1,12
 436 243 436 243 398 204.5 c 128,-1,13
 360 166 360 166 306 166 c 0,14,15
 276 166 276 166 249 181 c 1,16,17
 324 60 324 60 485 60 c 0,18,19
 594 60 594 60 679 124 c 0,20,21
 772 194 772 194 797 287 c 0,22,23
 804 313 804 313 804 343 c 0,24,25
 804 432 804 432 707 484 c 2,26,-1
 559 564 l 2,27,28
 403 648 403 648 403 778 c 0,29,30
 403 831 403 831 421 880 c 0,31,32
 461 987 461 987 585 1059 c 0,33,34
 689 1120 689 1120 817 1120 c 0,35,36
 942 1120 942 1120 1015 1039 c 0,37,38
 1067 982 1067 982 1067 911 c 0,39,40
 1067 873 1067 873 1055 839 c 0,41,42
 1043 807 1043 807 1013 777 c 0,43,44
 975 740 975 740 917 740 c 0,45,46
 863 740 863 740 825.5 778.5 c 128,-1,47
 788 817 788 817 788 872 c 128,-1,48
 788 927 788 927 826 965.5 c 128,-1,49
 864 1004 864 1004 918 1004 c 0,50,51
 948 1004 948 1004 975 989 c 1,52,53
 921 1047 921 1047 833 1047 c 0,54,55
 736 1047 736 1047 671 1001 c 0,56,57
 596 948 596 948 575 872 c 0,58,59
 570 854 570 854 570 837 c 0,60,61
 570 753 570 753 673 699 c 2,62,-1
 809 628 l 2,63,64
 985 536 985 536 985 397 c 0,65,66
 985 331 985 331 964 275 c 0,67,68
 917 150 917 150 791 65 c 0,69,70
 666 -20 666 -20 490 -20 c 0,0,1
EndSplineSet
Validated: 1
EndChar

StartChar: t
Encoding: 116 116 81
Width: 670
GlyphClass: 2
Flags: W
HStem: 0 21G<276 401> 1010 90<288 516 720 948> 1490 20G<675.5 800.5>
DStem2: 245.603 0 425.603 0 0.258819 0.965926<34.624 1045.57 1185.3 1575.02>
LayerCount: 2
Fore
SplineSet
296 0 m 2,0,1
 256 0 256 0 256 31 c 0,2,3
 256 39 256 39 259 50 c 2,4,-1
 516 1010 l 1,5,-1
 306 1010 l 2,6,7
 282 1010 282 1010 282 1028 c 0,8,9
 282 1032 282 1032 284 1040 c 2,10,-1
 292 1070 l 2,11,12
 300 1100 300 1100 330 1100 c 2,13,-1
 540 1100 l 1,14,-1
 637 1460 l 2,15,16
 650 1510 650 1510 701 1510 c 2,17,-1
 781 1510 l 2,18,19
 820 1510 820 1510 820 1479 c 0,20,21
 820 1471 820 1471 817 1460 c 2,22,-1
 720 1100 l 1,23,-1
 930 1100 l 2,24,25
 954 1100 954 1100 954 1081 c 0,26,27
 954 1077 954 1077 952 1070 c 2,28,-1
 944 1040 l 2,29,30
 936 1010 936 1010 906 1010 c 2,31,-1
 696 1010 l 1,32,-1
 439 50 l 2,33,34
 426 0 426 0 376 0 c 2,35,-1
 296 0 l 2,0,1
EndSplineSet
Validated: 1
EndChar

StartChar: u
Encoding: 117 117 82
Width: 1211
GlyphClass: 2
Flags: W
HStem: -20 111<503.566 708.82> 0 21G<870 995> 1080 20G<509 634 1160 1285>
VStem: 272 183<138.119 472.5>
DStem2: 185.141 -20 365.141 -20 0.258819 0.965926<341.97 1171.28> 834.244 -20 1014.24 -20 0.258819 0.965926<55.3295 1171.32>
LayerCount: 2
Fore
SplineSet
970 0 m 2,0,-1
 890 0 l 2,1,2
 850 0 850 0 850 31 c 0,3,4
 850 39 850 39 853 50 c 2,5,-1
 892 192 l 1,6,7
 844 119 844 119 775 66 c 0,8,9
 663 -20 663 -20 525 -20 c 0,10,11
 359 -20 359 -20 296 114 c 0,12,13
 272 165 272 165 272 235 c 0,14,15
 272 304 272 304 295 390 c 2,16,-1
 471 1050 l 2,17,18
 484 1100 484 1100 534 1100 c 2,19,-1
 614 1100 l 2,20,21
 654 1100 654 1100 654 1069 c 0,22,23
 654 1061 654 1061 651 1050 c 2,24,-1
 475 390 l 2,25,26
 455 315 455 315 455 260 c 0,27,28
 455 230 455 230 461 208 c 0,29,30
 493 91 493 91 633 91 c 0,31,32
 764 91 764 91 860 210 c 0,33,34
 915 279 915 279 945 390 c 2,35,-1
 1122 1050 l 2,36,37
 1135 1100 1135 1100 1185 1100 c 2,38,-1
 1265 1100 l 2,39,40
 1305 1100 1305 1100 1305 1069 c 0,41,42
 1305 1061 1305 1061 1302 1050 c 2,43,-1
 1033 50 l 2,44,45
 1020 0 1020 0 970 0 c 2,0,-1
EndSplineSet
Validated: 1
EndChar

StartChar: braceleft
Encoding: 123 123 83
Width: 733
GlyphClass: 2
Flags: W
HStem: -200 82<501.559 640.355> 1628 82<947.45 1129.95>
VStem: 288 170<-69.8707 270.781> 392 180<363.938 696.285>
DStem2: 196.069 -200 376.409 -200 0.258819 0.965926<300.837 796.071 1132.3 1774.25>
LayerCount: 2
Fore
SplineSet
604 -200 m 16,0,1
 424 -200 424 -200 347 -99 c 0,2,3
 288 -22 288 -22 288 85 c 0,4,5
 288 143 288 143 307 214 c 2,6,-1
 379 482 l 2,7,8
 392 530 392 530 392 573 c 0,9,10
 392 707 392 707 252 755 c 1,11,12
 468 815 468 815 525 1028 c 2,13,-1
 597 1296 l 2,14,15
 648 1485 648 1485 805 1609 c 0,16,17
 933 1710 933 1710 1116 1710 c 0,18,19
 1135 1710 1135 1710 1135 1695 c 0,20,21
 1135 1689 1135 1689 1134 1685 c 2,22,-1
 1126 1653 l 2,23,24
 1120 1628 1120 1628 1094 1628 c 16,25,26
 1001 1628 1001 1628 926 1574 c 0,27,28
 836 1510 836 1510 779 1301 c 2,29,-1
 705 1027 l 2,30,31
 645 806 645 806 429 755 c 1,32,33
 572 711 572 711 572 574 c 0,34,35
 572 532 572 532 559 483 c 2,36,-1
 486 209 l 2,37,38
 458 104 458 104 458 37 c 0,39,40
 458 -32 458 -32 487 -64 c 0,41,42
 534 -118 534 -118 626 -118 c 0,43,44
 646 -118 646 -118 646 -134 c 0,45,46
 646 -139 646 -139 645 -143 c 2,47,-1
 636 -175 l 2,48,49
 629 -200 629 -200 604 -200 c 16,0,1
EndSplineSet
Validated: 1
EndChar

StartChar: bar
Encoding: 124 124 84
Width: 655
GlyphClass: 2
Flags: W
VStem: 220 619
DStem2: 209.603 -150 364.603 -150 0.258819 0.965926<32.8771 1881.01>
LayerCount: 2
Fore
SplineSet
745 1660 m 2,0,-1
 800 1660 l 2,1,2
 839 1660 839 1660 839 1629 c 0,3,4
 839 1620 839 1620 836 1610 c 2,5,-1
 378 -100 l 2,6,7
 365 -150 365 -150 315 -150 c 2,8,-1
 260 -150 l 2,9,10
 220 -150 220 -150 220 -119 c 0,11,12
 220 -111 220 -111 223 -100 c 2,13,-1
 681 1610 l 2,14,15
 695 1660 695 1660 745 1660 c 2,0,-1
EndSplineSet
Validated: 1
EndChar

StartChar: braceright
Encoding: 125 125 85
Width: 733
GlyphClass: 2
Flags: W
HStem: -200 82<7.68237 188.75> 1628 82<497.052 636.73>
VStem: 564 181<812.69 1139.69> 680 168<1241.31 1580.9>
DStem2: 249.409 -200 429.069 -200 0.258819 0.965926<249.363 890.708 1226.89 1720.81>
LayerCount: 2
Fore
SplineSet
21 -200 m 0,0,1
 2 -200 2 -200 2 -185 c 0,2,3
 2 -179 2 -179 3 -175 c 2,4,-1
 12 -143 l 2,5,6
 19 -118 19 -118 43 -118 c 16,7,8
 136 -118 136 -118 212 -64 c 0,9,10
 303 0 303 0 359 209 c 2,11,-1
 432 483 l 2,12,13
 489 697 489 697 708 755 c 1,14,15
 564 794 564 794 564 931 c 0,16,17
 564 975 564 975 578 1027 c 2,18,-1
 652 1301 l 2,19,20
 680 1405 680 1405 680 1473 c 0,21,22
 680 1542 680 1542 651 1574 c 0,23,24
 604 1628 604 1628 511 1628 c 0,25,26
 492 1628 492 1628 492 1643 c 0,27,28
 492 1649 492 1649 493 1653 c 2,29,-1
 501 1685 l 2,30,31
 507 1710 507 1710 533 1710 c 16,32,33
 716 1710 716 1710 790 1609 c 0,34,35
 848 1530 848 1530 848 1423 c 0,36,37
 848 1363 848 1363 830 1296 c 2,38,-1
 758 1028 l 2,39,40
 745 980 745 980 745 936 c 0,41,42
 745 801 745 801 885 755 c 1,43,44
 669 693 669 693 612 482 c 2,45,-1
 540 214 l 2,46,47
 488 21 488 21 332 -99 c 0,48,49
 201 -200 201 -200 21 -200 c 0,0,1
EndSplineSet
Validated: 1
EndChar

StartChar: asciitilde
Encoding: 126 126 86
Width: 1193
GlyphClass: 2
Flags: W
HStem: 598 151<929.356 1115.38> 760 151<480.335 668.785>
DStem2: 973 772 625 737 0.89608 -0.443892<-362.079 65.7791>
LayerCount: 2
Fore
SplineSet
636 911 m 0,0,1
 693 911 693 911 758 879 c 2,2,-1
 973 772 l 2,3,4
 1019 749 1019 749 1052 749 c 0,5,6
 1167 749 1167 749 1261 885 c 1,7,-1
 1280 885 l 1,8,9
 1183 598 1183 598 962 598 c 0,10,11
 905 598 905 598 841 630 c 2,12,-1
 625 737 l 2,13,14
 579 760 579 760 546 760 c 0,15,16
 432 760 432 760 337 624 c 1,17,-1
 317 624 l 1,18,19
 412 911 412 911 636 911 c 0,0,1
EndSplineSet
Validated: 1
EndChar

StartChar: exclamdown
Encoding: 161 161 88
Width: 659
GlyphClass: 2
Flags: W
HStem: -430 21G<202.25 260.75> 856 264<503.676 684.809>
VStem: 117 262<-386.059 -163.781> 465 259<895.707 1080.29>
LayerCount: 2
Fore
SplineSet
594 1120 m 128,-1,1
 648 1120 648 1120 686 1081.5 c 128,-1,2
 724 1043 724 1043 724 988 c 128,-1,3
 724 933 724 933 686 894.5 c 128,-1,4
 648 856 648 856 594 856 c 128,-1,5
 540 856 540 856 502.5 894.5 c 128,-1,6
 465 933 465 933 465 988 c 128,-1,7
 465 1043 465 1043 502.5 1081.5 c 128,-1,0
 540 1120 540 1120 594 1120 c 128,-1,1
231.5 -430 m 128,-1,9
 173 -430 173 -430 140 -387 c 0,10,11
 117 -357 117 -357 117 -312 c 0,12,13
 117 -281 117 -281 129 -247 c 2,14,-1
 480 750 l 2,15,16
 491 780 491 780 518 780 c 2,17,-1
 560 780 l 2,18,19
 583 780 583 780 583 759 c 0,20,21
 583 755 583 755 582 750 c 2,22,-1
 384 -276 l 2,23,24
 382 -285 382 -285 379 -298 c 0,25,26
 365 -357 365 -357 330 -392 c 0,27,8
 290 -430 290 -430 231.5 -430 c 128,-1,9
EndSplineSet
Validated: 1
EndChar

StartChar: cent
Encoding: 162 162 89
Width: 1078
GlyphClass: 2
Flags: W
HStem: -20 75<643 804.958> 690 264<956.191 1102.96> 1045 75<928.016 1049.28>
VStem: 229 193<161.581 566.125> 917 278<739.654 914.293>
DStem2: 488.282 -150 588.282 -150 0.258819 0.965926<26.6162 139.644 239.025 1216.16 1340.53 1451.63>
LayerCount: 2
Fore
SplineSet
524 -15 m 1,0,1
 379 6 379 6 301 116 c 0,2,3
 229 217 229 217 229 358 c 0,4,5
 229 446 229 446 257 550 c 0,6,7
 334 836 334 836 534 984 c 0,8,9
 672 1087 672 1087 826 1112 c 1,10,-1
 852 1210 l 2,11,12
 863 1250 863 1250 903 1250 c 2,13,-1
 923 1250 l 2,14,15
 955 1250 955 1250 955 1228 c 0,16,17
 955 1221 955 1221 952 1210 c 2,18,-1
 928 1120 l 1,19,20
 1067 1119 1067 1119 1149 1010 c 0,21,22
 1195 949 1195 949 1195 874 c 0,23,24
 1195 835 1195 835 1184 800 c 0,25,26
 1170 759 1170 759 1142 730 c 0,27,28
 1103 690 1103 690 1046 690 c 0,29,30
 992 690 992 690 954.5 728.5 c 128,-1,31
 917 767 917 767 917 822 c 128,-1,32
 917 877 917 877 955 915.5 c 128,-1,33
 993 954 993 954 1047 954 c 0,34,35
 1077 954 1077 954 1104 939 c 1,36,37
 1052 1045 1052 1045 931 1045 c 0,38,39
 919 1045 919 1045 908 1044 c 1,40,-1
 643 56 l 1,41,42
 654 55 654 55 665 55 c 0,43,44
 807 55 807 55 932 168 c 0,45,46
 963 196 963 196 992 229 c 1,47,-1
 1007 229 l 1,48,-1
 977 116 l 1,49,50
 821 -12 821 -12 623 -20 c 1,51,-1
 599 -110 l 2,52,53
 588 -150 588 -150 548 -150 c 2,54,-1
 528 -150 l 2,55,56
 497 -150 497 -150 497 -125 c 0,57,58
 497 -118 497 -118 499 -110 c 2,59,-1
 524 -15 l 1,0,1
549 75 m 1,60,-1
 802 1025 l 1,61,62
 700 991 700 991 623 899 c 0,63,64
 525 784 525 784 462 550 c 0,65,66
 422 401 422 401 422 302 c 0,67,68
 422 243 422 243 436 201 c 0,69,70
 467 109 467 109 549 75 c 1,60,-1
EndSplineSet
Validated: 1
EndChar

StartChar: sterling
Encoding: 163 163 90
Width: 1218
GlyphClass: 2
Flags: W
HStem: -20 74<735.503 1056.33> 36 85<472.348 766.663> 600 90<232 401 625 892> 1100 264<1200.19 1347.16> 1455 75<998.324 1287.57>
VStem: 992 259<158.938 349.293> 1161 277<1149.65 1324.29>
DStem2: 234.321 -20 434.291 -20 0.258819 0.965926<193.589 642.014 786.923 1299.2>
LayerCount: 2
Fore
SplineSet
241 -20 m 1,0,1
 237 -10 l 9,2,-1
 401 600 l 1,3,-1
 250 600 l 2,4,5
 226 600 226 600 226 617 c 0,6,7
 226 622 226 622 228 630 c 2,8,-1
 236 660 l 2,9,10
 244 690 244 690 274 690 c 2,11,-1
 425 690 l 1,12,-1
 497 960 l 2,13,14
 573 1245 573 1245 774 1394 c 0,15,16
 956 1530 956 1530 1149 1530 c 0,17,18
 1309 1530 1309 1530 1393 1422 c 0,19,20
 1438 1364 1438 1364 1438 1284 c 0,21,22
 1438 1246 1438 1246 1427 1211 c 0,23,24
 1413 1169 1413 1169 1386 1141 c 0,25,26
 1346 1100 1346 1100 1290 1100 c 0,27,28
 1236 1100 1236 1100 1198.5 1138.5 c 128,-1,29
 1161 1177 1161 1177 1161 1232 c 128,-1,30
 1161 1287 1161 1287 1199 1325.5 c 128,-1,31
 1237 1364 1237 1364 1291 1364 c 0,32,33
 1321 1364 1321 1364 1348 1349 c 1,34,35
 1292 1455 1292 1455 1154 1455 c 0,36,37
 985 1455 985 1455 863 1309 c 0,38,39
 756 1181 756 1181 697 960 c 2,40,41
 625 690 l 1,42,-1
 874 690 l 2,43,44
 898 690 898 690 898 673 c 0,45,46
 898 668 898 668 896 660 c 2,47,-1
 888 630 l 2,48,49
 880 600 880 600 850 600 c 2,50,-1
 601 600 l 1,51,-1
 471 117 l 17,52,53
 515 121 515 121 562 121 c 0,54,55
 658 121 658 121 750 85 c 0,56,57
 828 54 828 54 915 54 c 0,58,59
 1034 54 1034 54 1100 127 c 1,60,61
 1060 133 1060 133 1030 164 c 0,62,63
 992 202 992 202 992 257 c 128,-1,64
 992 312 992 312 1030 350.5 c 128,-1,65
 1068 389 1068 389 1122 389 c 128,-1,66
 1176 389 1176 389 1213.5 350.5 c 128,-1,67
 1251 312 1251 312 1251 257 c 0,68,69
 1251 236 1251 236 1244 208 c 0,70,71
 1218 105 1218 105 1123 41 c 0,72,73
 1033 -20 1033 -20 904 -20 c 0,74,75
 823 -20 823 -20 686 15 c 0,76,77
 606 36 606 36 525 36 c 0,78,79
 447 36 447 36 377 18 c 128,-1,80
 307 0 307 0 241 -20 c 1,0,1
EndSplineSet
Validated: 1
EndChar

StartChar: currency
Encoding: 164 164 91
Width: 1522
GlyphClass: 2
Flags: W
HStem: 191 91<696.598 998.571> 1240 91<930.541 1232.97>
VStem: 417 201<391.381 789.839> 1312 200<730.618 1099.31>
DStem2: 276 283 353 177 0.785366 0.619032<0 213.591 1464.83 1636.13> 654 1299 520 1193 0.590813 -0.806809<6.35282 132.969 1100.32 1259.28>
LayerCount: 2
Fore
SplineSet
837 282 m 128,-1,1
 982 282 982 282 1098 404 c 0,2,3
 1212 523 1212 523 1276 761 c 0,4,5
 1312 895 1312 895 1312 991 c 0,6,7
 1312 1066 1312 1066 1290 1118 c 0,8,9
 1239 1240 1239 1240 1093 1240 c 0,10,11
 949 1240 949 1240 832 1118 c 0,12,13
 718 1000 718 1000 654 761 c 0,14,15
 618 627 618 627 618 531 c 0,16,17
 618 456 618 456 640 404 c 0,18,0
 692 282 692 282 837 282 c 128,-1,1
1119 1331 m 0,19,20
 1314 1331 1314 1331 1429 1192 c 9,21,-1
 1564 1299 l 1,22,-1
 1642 1193 l 1,23,-1
 1493 1075 l 1,24,25
 1512 1015 1512 1015 1512 943 c 0,26,27
 1512 860 1512 860 1486 761 c 0,28,29
 1431 557 1431 557 1299 418 c 1,30,-1
 1398 283 l 1,31,-1
 1263 177 l 1,32,-1
 1168 308 l 1,33,34
 995 191 995 191 812.5 191 c 128,-1,35
 630 191 630 191 520 308 c 1,36,-1
 353 177 l 1,37,-1
 276 283 l 1,38,-1
 447 418 l 1,39,40
 417 489 417 489 417 578 c 0,41,42
 417 662 417 662 444 761 c 0,43,44
 493 944 493 944 605 1075 c 1,45,-1
 520 1193 l 1,46,-1
 654 1299 l 1,47,-1
 731 1192 l 17,48,49
 922 1331 922 1331 1119 1331 c 0,19,20
EndSplineSet
Validated: 1
EndChar

StartChar: brokenbar
Encoding: 166 166 92
Width: 655
GlyphClass: 2
Flags: W
VStem: 220 619
DStem2: 209.603 -150 364.603 -150 0.258819 0.965926<32.8771 845.721 1068.17 1881.01>
LayerCount: 2
Fore
SplineSet
260 -150 m 2,0,1
 220 -150 220 -150 220 -119 c 0,2,3
 220 -111 220 -111 223 -100 c 2,4,-1
 413 610 l 2,5,6
 426 660 426 660 477 660 c 2,7,-1
 532 660 l 2,8,9
 571 660 571 660 571 629 c 0,10,11
 571 620 571 620 568 610 c 2,12,-1
 378 -100 l 2,13,14
 365 -150 365 -150 315 -150 c 2,15,-1
 260 -150 l 2,0,1
745 1660 m 2,16,-1
 800 1660 l 2,17,18
 839 1660 839 1660 839 1629 c 0,19,20
 839 1620 839 1620 836 1610 c 2,21,-1
 646 900 l 2,22,23
 633 850 633 850 583 850 c 2,24,-1
 528 850 l 2,25,26
 488 850 488 850 488 881 c 0,27,28
 488 889 488 889 491 900 c 2,29,-1
 681 1610 l 2,30,31
 695 1660 695 1660 745 1660 c 2,16,-1
EndSplineSet
Validated: 1
EndChar

StartChar: section
Encoding: 167 167 93
Width: 1142
GlyphClass: 2
Flags: W
HStem: -20 68<419.528 669.816> 96 264<387.844 534.809> 1150 264<1012.19 1159.16> 1462 68<877.184 1127.47>
VStem: 295 279<135.707 312.628> 345 178<656.031 846.054> 603 163<1172.6 1351.1> 781 163<158.903 337.404> 973 279<1197.37 1374.29> 1024 178<663.946 853.969>
DStem2: 645 598 538 448 0.885948 -0.463785<-151.049 266.783> 872 1131 753 990 0.885948 -0.463785<-135.369 279.197>
LayerCount: 2
Fore
SplineSet
545 -20 m 0,0,1
 420 -20 420 -20 347 61 c 0,2,3
 295 118 295 118 295 189 c 0,4,5
 295 227 295 227 307 261 c 0,6,7
 319 293 319 293 349 323 c 0,8,9
 387 360 387 360 445 360 c 0,10,11
 499 360 499 360 536.5 321.5 c 128,-1,12
 574 283 574 283 574 228 c 128,-1,13
 574 173 574 173 536 134.5 c 128,-1,14
 498 96 498 96 444 96 c 0,15,16
 414 96 414 96 387 111 c 1,17,18
 441 48 441 48 531 48 c 128,-1,19
 621 48 621 48 690 93 c 24,20,21
 758 137 758 137 775 199 c 0,22,23
 781 221 781 221 781 241 c 0,24,25
 781 326 781 326 675 379 c 2,26,-1
 538 448 l 2,27,28
 345 545 345 545 345 692 c 0,29,30
 345 724 345 724 354 759 c 0,31,32
 393 912 393 912 552 1022 c 1,33,-1
 651 959 l 1,34,35
 558 898 558 898 529 796 c 0,36,37
 523 775 523 775 523 755 c 0,38,39
 523 662 523 662 645 598 c 2,40,-1
 794 520 l 2,41,42
 944 441 944 441 944 310 c 0,43,44
 944 277 944 277 934 240 c 0,45,46
 902 120 902 120 785 43 c 0,47,48
 689 -20 689 -20 545 -20 c 0,0,1
1002 1530 m 0,49,50
 1127 1530 1127 1530 1200 1449 c 0,51,52
 1252 1392 1252 1392 1252 1321 c 0,53,54
 1252 1283 1252 1283 1240 1249 c 0,55,56
 1228 1217 1228 1217 1198 1187 c 0,57,58
 1160 1150 1160 1150 1102 1150 c 0,59,60
 1048 1150 1048 1150 1010.5 1188.5 c 128,-1,61
 973 1227 973 1227 973 1282 c 128,-1,62
 973 1337 973 1337 1011 1375.5 c 128,-1,63
 1049 1414 1049 1414 1103 1414 c 0,64,65
 1133 1414 1133 1414 1160 1399 c 1,66,67
 1106 1462 1106 1462 1016 1462 c 128,-1,68
 926 1462 926 1462 857 1417 c 24,69,70
 789 1373 789 1373 772 1311 c 0,71,72
 766 1289 766 1289 766 1269 c 0,73,74
 766 1184 766 1184 872 1131 c 2,75,-1
 1009 1062 l 2,76,77
 1202 965 1202 965 1202 818 c 0,78,79
 1202 786 1202 786 1193 751 c 0,80,81
 1154 598 1154 598 995 488 c 1,82,-1
 896 551 l 1,83,84
 989 612 989 612 1018 714 c 0,85,86
 1024 735 1024 735 1024 755 c 0,87,88
 1024 848 1024 848 902 912 c 2,89,-1
 753 990 l 2,90,91
 603 1069 603 1069 603 1200 c 0,92,93
 603 1233 603 1233 613 1270 c 0,94,95
 645 1390 645 1390 762 1467 c 0,96,97
 858 1530 858 1530 1002 1530 c 0,49,50
EndSplineSet
Validated: 1
EndChar

StartChar: dieresis
Encoding: 168 168 94
Width: 636
GlyphClass: 2
Flags: W
HStem: 1200 238<439.066 600.934 742.097 904.934>
VStem: 404 232<1235.07 1402.93> 706 234<1235.58 1402.42>
LayerCount: 2
Fore
SplineSet
824 1438 m 128,-1,1
 872 1438 872 1438 906 1404 c 128,-1,2
 940 1370 940 1370 940 1319 c 128,-1,3
 940 1268 940 1268 906 1234 c 128,-1,4
 872 1200 872 1200 824 1200 c 128,-1,5
 776 1200 776 1200 741 1234.5 c 128,-1,6
 706 1269 706 1269 706 1319 c 128,-1,7
 706 1369 706 1369 741 1403.5 c 128,-1,0
 776 1438 776 1438 824 1438 c 128,-1,1
520 1438 m 128,-1,9
 568 1438 568 1438 602 1404 c 128,-1,10
 636 1370 636 1370 636 1319 c 128,-1,11
 636 1268 636 1268 602 1234 c 128,-1,12
 568 1200 568 1200 520 1200 c 128,-1,13
 472 1200 472 1200 438 1234 c 128,-1,14
 404 1268 404 1268 404 1319 c 128,-1,15
 404 1370 404 1370 438 1404 c 128,-1,8
 472 1438 472 1438 520 1438 c 128,-1,9
EndSplineSet
Validated: 1
EndChar

StartChar: copyright
Encoding: 169 169 95
Width: 1405
GlyphClass: 2
Flags: W
HStem: 386 64<655.04 990.47> 568 50<830.361 1012.83> 1075 172<1135.82 1207.94> 1305 47<1001.77 1175.52> 1466 64<928.558 1261.96>
VStem: 382 77<624.327 999.014> 634 146<652.582 1003.7> 1109 174<1109.94 1219.18> 1154 10<752.69 757> 1461 75<916.456 1285.76>
LayerCount: 2
Fore
SplineSet
1082 1352 m 0,0,1
 1193 1352 1193 1352 1246 1283 c 0,2,3
 1283 1234 1283 1234 1283 1182 c 0,4,5
 1283 1139 1283 1139 1261 1109 c 0,6,7
 1236 1075 1236 1075 1194 1075 c 0,8,9
 1156 1075 1156 1075 1132 1100 c 0,10,11
 1109 1124 1109 1124 1109 1156 c 0,12,13
 1109 1194 1109 1194 1135 1220 c 0,14,15
 1161 1245 1161 1245 1209 1247 c 1,16,17
 1173 1305 1173 1305 1088 1305 c 0,18,19
 1016 1305 1016 1305 948 1242 c 0,20,21
 867 1167 867 1167 811 960 c 0,22,23
 780 846 780 846 780 772 c 0,24,25
 780 719 780 719 796 686 c 0,26,27
 828 618 828 618 907 618 c 0,28,29
 1034 618 1034 618 1154 757 c 1,30,-1
 1164 757 l 1,31,-1
 1141 671 l 1,32,33
 1028 568 1028 568 886 568 c 0,34,35
 742 568 742 568 682 648 c 0,36,37
 634 712 634 712 634 812 c 0,38,39
 634 881 634 881 657 966 c 0,40,41
 712 1172 712 1172 849 1273 c 0,42,43
 957 1352 957 1352 1082 1352 c 0,0,1
1113 1530 m 0,44,45
 1340 1530 1340 1530 1459 1369 c 0,46,47
 1536 1266 1536 1266 1536 1126 c 0,48,49
 1536 1050 1536 1050 1513 963 c 0,50,51
 1445 706 1445 706 1239 549 c 0,52,53
 1024 386 1024 386 804 386 c 0,54,55
 577 386 577 386 458 547 c 0,56,57
 382 649 382 649 382 787 c 0,58,59
 382 865 382 865 406 954 c 0,60,61
 473 1200 473 1200 678 1367 c 0,62,63
 879 1530 879 1530 1113 1530 c 0,44,45
1091 1466 m 0,64,65
 917 1466 917 1466 721 1312 c 0,66,67
 533 1165 533 1165 481 953 c 0,68,69
 459 864 459 864 459 790 c 0,70,71
 459 671 459 671 516 593 c 0,72,73
 620 450 620 450 826 450 c 0,74,75
 1006 450 1006 450 1201 605 c 0,76,77
 1383 750 1383 750 1439 963 c 0,78,79
 1461 1049 1461 1049 1461 1121 c 0,80,81
 1461 1240 1461 1240 1401 1323 c 0,82,83
 1297 1466 1297 1466 1091 1466 c 0,64,65
EndSplineSet
Validated: 1
EndChar

StartChar: guillemotleft
Encoding: 171 171 96
Width: 1189
GlyphClass: 2
Flags: W
DStem2: 499 770 346 730 0.402401 -0.915463<0 470.595> 346 730 499 770 0.682033 0.731321<133.604 777.727> 886 770 733 730 0.402401 -0.915463<0 470.595> 733 730 886 770 0.682033 0.731321<133.604 777.727>
LayerCount: 2
Fore
SplineSet
1270 1293 m 0,0,1
 1280 1293 1280 1293 1288 1287 c 2,2,-1
 1313 1267 l 2,3,4
 1323 1259 1323 1259 1323 1251 c 0,5,6
 1323 1247 1323 1247 1322 1243 c 0,7,8
 1320 1235 1320 1235 1312 1226 c 2,9,-1
 886 770 l 1,10,-1
 1072 364 l 2,11,12
 1078 351 1078 351 1078 340 c 0,13,14
 1078 335 1078 335 1077 331 c 0,15,16
 1072 312 1072 312 1044 294 c 2,17,-1
 1000 266 l 2,18,19
 980 253 980 253 965 253 c 0,20,21
 943 253 943 253 933 275 c 2,22,-1
 733 730 l 1,23,-1
 1245 1279 l 2,24,25
 1258 1293 1258 1293 1270 1293 c 0,0,1
883 1293 m 0,26,27
 894 1293 894 1293 901 1287 c 2,28,-1
 926 1267 l 2,29,30
 936 1259 936 1259 936 1251 c 0,31,32
 936 1247 936 1247 935 1243 c 0,33,34
 933 1235 933 1235 925 1226 c 2,35,-1
 499 770 l 1,36,-1
 685 364 l 2,37,38
 691 351 691 351 691 340 c 0,39,40
 691 335 691 335 690 331 c 0,41,42
 685 312 685 312 657 294 c 2,43,-1
 613 266 l 2,44,45
 593 253 593 253 578 253 c 0,46,47
 556 253 556 253 546 275 c 2,48,-1
 346 730 l 1,49,-1
 858 1279 l 2,50,51
 871 1293 871 1293 883 1293 c 0,26,27
EndSplineSet
Validated: 1
EndChar

StartChar: logicalnot
Encoding: 172 172 97
Width: 1218
GlyphClass: 2
Flags: W
HStem: 680 150<360.77 1044>
DStem2: 818 410 972 410 0.641253 0.76733<22.6093 352.102>
LayerCount: 2
Fore
SplineSet
422 830 m 2,0,-1
 1240 830 l 2,1,2
 1280 830 1280 830 1280 799 c 0,3,4
 1280 791 1280 791 1277 780 c 0,5,6
 1275 772 1275 772 1267 763 c 2,7,-1
 972 410 l 2,8,9
 947 380 947 380 920 380 c 2,10,-1
 826 380 l 2,11,12
 808 380 808 380 808 393 c 0,13,14
 808 398 808 398 818 410 c 2,15,-1
 1044 680 l 9,16,-1
 382 680 l 2,17,18
 343 680 343 680 343 711 c 0,19,20
 343 720 343 720 346 730 c 2,21,-1
 359 780 l 2,22,23
 372 830 372 830 422 830 c 2,0,-1
EndSplineSet
Validated: 1
EndChar

StartChar: uni00AD
Encoding: 173 173 98
Width: 1133
GlyphClass: 2
Flags: W
HStem: 680 150<360.77 1176.94>
LayerCount: 2
Fore
SplineSet
422 830 m 2,0,-1
 1155 830 l 2,1,2
 1195 830 1195 830 1195 799 c 0,3,4
 1195 791 1195 791 1192 780 c 2,5,-1
 1179 730 l 2,6,7
 1166 680 1166 680 1115 680 c 2,8,-1
 382 680 l 2,9,10
 343 680 343 680 343 711 c 0,11,12
 343 720 343 720 346 730 c 2,13,-1
 359 780 l 2,14,15
 372 830 372 830 422 830 c 2,0,-1
EndSplineSet
Validated: 1
EndChar

StartChar: registered
Encoding: 174 174 99
Width: 1405
GlyphClass: 2
Flags: W
HStem: 386 64<655.04 990.47> 1121 21G<638 743> 1318 55<903.681 1116.15> 1466 64<928.558 1261.96>
VStem: 382 77<624.327 999.014> 1162 152<1015.93 1289.18> 1461 75<916.456 1285.76>
DStem2: 576.156 386 716.156 386 0.258819 0.965926<244.872 516.219 575.391 860.921> 1167 628 995 730 0.328521 -0.944497<-234.205 1.12929>
LayerCount: 2
Fore
SplineSet
1113 1530 m 0,0,1
 1340 1530 1340 1530 1459 1369 c 0,2,3
 1536 1266 1536 1266 1536 1126 c 0,4,5
 1536 1050 1536 1050 1513 963 c 0,6,7
 1445 706 1445 706 1239 549 c 0,8,9
 1024 386 1024 386 804 386 c 0,10,11
 577 386 577 386 458 547 c 0,12,13
 382 649 382 649 382 787 c 0,14,15
 382 865 382 865 406 954 c 0,16,17
 473 1200 473 1200 678 1367 c 0,18,19
 879 1530 879 1530 1113 1530 c 0,0,1
1091 1466 m 0,20,21
 917 1466 917 1466 721 1312 c 0,22,23
 533 1165 533 1165 481 953 c 0,24,25
 459 864 459 864 459 790 c 0,26,27
 459 671 459 671 516 593 c 0,28,29
 620 450 620 450 826 450 c 0,30,31
 1006 450 1006 450 1201 605 c 0,32,33
 1383 750 1383 750 1439 963 c 0,34,35
 1461 1049 1461 1049 1461 1121 c 0,36,37
 1461 1240 1461 1240 1401 1323 c 0,38,39
 1297 1466 1297 1466 1091 1466 c 0,20,21
662 599 m 2,40,41
 639 599 639 599 639 616 c 0,42,43
 639 620 639 620 641 628 c 2,44,-1
 786 1177 l 2,45,46
 794 1206 794 1206 823 1206 c 2,47,-1
 905 1206 l 2,48,49
 928 1206 928 1206 928 1189 c 0,50,51
 928 1185 928 1185 926 1177 c 2,52,-1
 861 932 l 1,53,54
 887 883 887 883 960 883 c 0,55,56
 1019 883 1019 883 1062 925 c 0,57,58
 1118 979 1118 979 1148 1090 c 0,59,60
 1162 1141 1162 1141 1162 1181 c 0,61,62
 1162 1222 1162 1222 1147 1252 c 0,63,64
 1115 1318 1115 1318 1022 1318 c 0,65,66
 829 1318 829 1318 657 1121 c 1,67,-1
 638 1130 l 1,68,69
 805 1373 805 1373 1064 1373 c 0,70,71
 1211 1373 1211 1373 1274 1294 c 0,72,73
 1314 1243 1314 1243 1314 1174 c 0,74,75
 1314 1138 1314 1138 1303 1097 c 0,76,77
 1276 998 1276 998 1202 928 c 0,78,79
 1129 859 1129 859 1044 836 c 1,80,81
 1103 812 1103 812 1127 743 c 2,82,-1
 1167 628 l 2,83,84
 1170 619 1170 619 1170 615 c 0,85,86
 1170 599 1170 599 1146 599 c 2,87,-1
 1064 599 l 2,88,89
 1036 599 1036 599 1027 628 c 2,90,-1
 995 730 l 2,91,92
 969 814 969 814 909 828 c 0,93,94
 860 839 860 839 839 850 c 1,95,-1
 781 628 l 2,96,97
 773 599 773 599 744 599 c 2,98,-1
 662 599 l 2,40,41
EndSplineSet
Validated: 1
EndChar

StartChar: macron
Encoding: 175 175 100
Width: 650
GlyphClass: 2
Flags: W
HStem: 1246 130<406.994 946.006>
VStem: 393 567<1288.21 1333.79>
LayerCount: 2
Fore
SplineSet
459 1376 m 2,0,-1
 929 1376 l 2,1,2
 960 1376 960 1376 960 1351 c 0,3,4
 960 1344 960 1344 958 1336 c 2,5,-1
 945 1286 l 2,6,7
 935 1246 935 1246 894 1246 c 2,8,-1
 424 1246 l 2,9,10
 393 1246 393 1246 393 1270 c 0,11,12
 393 1278 393 1278 395 1286 c 2,13,-1
 408 1336 l 2,14,15
 418 1376 418 1376 459 1376 c 2,0,-1
EndSplineSet
Validated: 1
EndChar

StartChar: degree
Encoding: 176 176 101
Width: 558
GlyphClass: 2
Flags: W
HStem: 1079 53<528.248 652.75> 1528 52<618.905 742.258>
VStem: 395 116<1138.5 1407.4> 759 117<1249.77 1500.07>
LayerCount: 2
Fore
SplineSet
687 1528 m 0,0,1
 635 1528 635 1528 598 1481 c 0,2,3
 556 1429 556 1429 529 1330 c 0,4,5
 511 1263 511 1263 511 1220 c 0,6,7
 511 1196 511 1196 517 1179 c 0,8,9
 533 1132 533 1132 583 1132 c 0,10,11
 635 1132 635 1132 673 1179 c 0,12,13
 715 1231 715 1231 741 1330 c 0,14,15
 759 1399 759 1399 759 1442 c 0,16,17
 759 1465 759 1465 754 1481 c 0,18,19
 737 1528 737 1528 687 1528 c 0,0,1
701 1580 m 128,-1,21
 787 1580 787 1580 839 1521 c 0,22,23
 876 1478 876 1478 876 1413 c 0,24,25
 876 1375 876 1375 864 1330 c 0,26,27
 832 1209 832 1209 736 1139 c 0,28,29
 653 1079 653 1079 567.5 1079 c 128,-1,30
 482 1079 482 1079 432 1139 c 0,31,32
 395 1184 395 1184 395 1250 c 0,33,34
 395 1290 395 1290 406 1330 c 0,35,36
 438 1451 438 1451 535 1521 c 0,37,20
 615 1580 615 1580 701 1580 c 128,-1,21
EndSplineSet
Validated: 1
EndChar

StartChar: plusminus
Encoding: 177 177 102
Width: 1233
GlyphClass: 2
Flags: W
HStem: 256 150<297.057 1113.23> 808 150<445.057 759 949 1261.23>
DStem2: 610.333 256 760.333 256 0.258819 0.965926<250.285 571.669 765.733 1086.86>
LayerCount: 2
Fore
SplineSet
940 1300 m 2,0,-1
 990 1300 l 2,1,2
 1030 1300 1030 1300 1030 1269 c 0,3,4
 1030 1261 1030 1261 1027 1250 c 2,5,-1
 949 958 l 1,6,-1
 1240 958 l 2,7,8
 1279 958 1279 958 1279 927 c 0,9,10
 1279 918 1279 918 1276 908 c 2,11,-1
 1263 858 l 2,12,13
 1250 808 1250 808 1200 808 c 2,14,-1
 909 808 l 1,15,-1
 830 516 l 2,16,17
 817 466 817 466 767 466 c 2,18,-1
 717 466 l 2,19,20
 677 466 677 466 677 497 c 0,21,22
 677 505 677 505 680 516 c 2,23,-1
 759 808 l 1,24,-1
 467 808 l 2,25,26
 427 808 427 808 427 839 c 0,27,28
 427 847 427 847 430 858 c 2,29,-1
 443 908 l 2,30,31
 456 958 456 958 507 958 c 2,32,-1
 799 958 l 1,33,-1
 877 1250 l 2,34,35
 890 1300 890 1300 940 1300 c 2,0,-1
359 406 m 2,36,-1
 1092 406 l 2,37,38
 1131 406 1131 406 1131 375 c 0,39,40
 1131 366 1131 366 1128 356 c 2,41,-1
 1115 306 l 2,42,43
 1102 256 1102 256 1052 256 c 2,44,-1
 319 256 l 2,45,46
 279 256 279 256 279 287 c 0,47,48
 279 295 279 295 282 306 c 2,49,-1
 295 356 l 2,50,51
 309 406 309 406 359 406 c 2,36,-1
EndSplineSet
Validated: 1
EndChar

StartChar: acute
Encoding: 180 180 103
Width: 436
GlyphClass: 2
Flags: W
HStem: 1160 324
VStem: 366 393
LayerCount: 2
Fore
SplineSet
669 1484 m 0,0,1
 713 1484 713 1484 737 1456 c 0,2,3
 759 1430 759 1430 759 1391 c 0,4,5
 759 1335 759 1335 698 1307 c 2,6,-1
 377 1160 l 1,7,-1
 366 1178 l 1,8,-1
 576 1439 l 2,9,10
 612 1484 612 1484 669 1484 c 0,0,1
EndSplineSet
Validated: 1
EndChar

StartChar: uni00B5
Encoding: 181 181 104
Width: 1270
GlyphClass: 2
Flags: W
HStem: -430 15<469.387 478.823> -20 111<532.615 738.82> 0 21G<900 1025> 1080 20G<539 664 1190 1315>
VStem: 200 174<-290.532 17.5547>
DStem2: 104.782 -430 284.782 -430 0.258819 0.965926<313.611 511.403 766.563 1595.85> 754.384 -430 934.384 -430 0.258819 0.965926<479.793 1595.78>
LayerCount: 2
Fore
SplineSet
920 0 m 2,0,1
 880 0 880 0 880 31 c 0,2,3
 880 39 880 39 883 50 c 2,4,-1
 922 192 l 1,5,6
 874 119 874 119 805 66 c 0,7,8
 693 -20 693 -20 555 -20 c 0,9,10
 464 -20 464 -20 405 19 c 1,11,-1
 400 0 l 2,12,13
 374 -99 374 -99 374 -180 c 0,14,15
 374 -339 374 -339 479 -415 c 1,16,-1
 475 -430 l 1,17,18
 200 -365 200 -365 200 -135 c 0,19,20
 200 -75 200 -75 220 0 c 2,21,-1
 501 1050 l 2,22,23
 514 1100 514 1100 564 1100 c 2,24,-1
 644 1100 l 2,25,26
 684 1100 684 1100 684 1069 c 0,27,28
 684 1061 684 1061 681 1050 c 2,29,-1
 505 390 l 2,30,31
 485 315 485 315 485 260 c 0,32,33
 485 230 485 230 491 208 c 0,34,35
 523 91 523 91 663 91 c 0,36,37
 794 91 794 91 890 210 c 0,38,39
 945 279 945 279 975 390 c 2,40,-1
 1152 1050 l 2,41,42
 1165 1100 1165 1100 1215 1100 c 2,43,-1
 1295 1100 l 2,44,45
 1335 1100 1335 1100 1335 1069 c 0,46,47
 1335 1061 1335 1061 1332 1050 c 2,48,-1
 1063 50 l 2,49,50
 1050 0 1050 0 1000 0 c 2,51,-1
 920 0 l 2,0,1
EndSplineSet
Validated: 1
EndChar

StartChar: paragraph
Encoding: 182 182 105
Width: 1102
GlyphClass: 2
Flags: W
HStem: 0 65<740 800> 1510 20G<906 1092>
DStem2: 651.603 0 722.583 0 0.258819 0.965926<85.6641 791.128> 783.221 0 852.26 0 0.258819 0.965926<67.1279 1327.79>
LayerCount: 2
Fore
SplineSet
702 0 m 2,0,1
 662 0 662 0 662 31 c 0,2,3
 662 39 662 39 665 50 c 2,4,-1
 857 764 l 1,5,6
 812 760 812 760 776 760 c 0,7,8
 609 760 609 760 525 838 c 0,9,10
 441 915 441 915 441 1034 c 0,11,12
 441 1085 441 1085 457 1145 c 0,13,14
 513 1353 513 1353 703 1459 c 0,15,16
 831 1530 831 1530 981 1530 c 0,17,18
 1203 1530 1203 1530 1203 1356 c 0,19,20
 1203 1310 1203 1310 1188 1253 c 2,21,-1
 865 50 l 2,22,23
 852 0 852 0 802 0 c 2,24,-1
 702 0 l 2,0,1
800 65 m 1,25,-1
 1127 1283 l 1,26,-1
 1067 1283 l 1,27,-1
 740 65 l 1,28,-1
 800 65 l 1,25,-1
EndSplineSet
Validated: 1
EndChar

StartChar: periodcentered
Encoding: 183 183 106
Width: 359
GlyphClass: 2
Flags: W
HStem: 625 264<292.191 473.324>
VStem: 253 259<664.707 849.293>
LayerCount: 2
Fore
SplineSet
383 889 m 128,-1,1
 437 889 437 889 474.5 850.5 c 128,-1,2
 512 812 512 812 512 757 c 128,-1,3
 512 702 512 702 474.5 663.5 c 128,-1,4
 437 625 437 625 383 625 c 128,-1,5
 329 625 329 625 291 663.5 c 128,-1,6
 253 702 253 702 253 757 c 128,-1,7
 253 812 253 812 291 850.5 c 128,-1,0
 329 889 329 889 383 889 c 128,-1,1
EndSplineSet
Validated: 1
EndChar

StartChar: cedilla
Encoding: 184 184 107
Width: 364
GlyphClass: 2
Flags: W
HStem: -430 138<-40.1465 114.465> -107 107<58 117.178>
VStem: 139 123<-265.995 -130.627>
LayerCount: 2
Fore
SplineSet
58 0 m 1,0,-1
 138 0 l 1,1,-1
 128 -39 l 1,2,3
 187 -49 187 -49 220 -80 c 0,4,5
 262 -118 262 -118 262 -173 c 0,6,7
 262 -199 262 -199 256 -223 c 0,8,9
 231 -309 231 -309 168 -362 c 0,10,11
 85 -430 85 -430 -15 -430 c 0,12,13
 -55 -430 -55 -430 -55 -399 c 0,14,15
 -55 -391 -55 -391 -52 -380 c 2,16,-1
 -42 -342 l 2,17,18
 -29 -292 -29 -292 22 -292 c 0,19,20
 60 -292 60 -292 95 -266 c 0,21,22
 126 -243 126 -243 136 -204 c 0,23,24
 139 -191 139 -191 139 -179 c 0,25,26
 139 -150 139 -150 118 -130 c 0,27,28
 92 -107 92 -107 29 -107 c 1,29,-1
 58 0 l 1,0,-1
EndSplineSet
Validated: 1
EndChar

StartChar: guillemotright
Encoding: 187 187 108
Width: 1188
GlyphClass: 2
Flags: W
DStem2: 291 320 870 816 0.682033 0.731321<-20.0947 624.029> 670 1271 531 1182 0.402401 -0.915463<1.47263 472.067> 678 320 1257 816 0.682033 0.731321<-20.0947 624.029> 1057 1271 918 1182 0.402401 -0.915463<1.47263 472.067>
LayerCount: 2
Fore
SplineSet
333 253 m 0,0,1
 322 253 322 253 315 259 c 2,2,-1
 290 279 l 2,3,4
 280 287 280 287 280 295 c 0,5,6
 280 299 280 299 281 303 c 0,7,8
 283 311 283 311 291 320 c 2,9,-1
 717 776 l 1,10,-1
 531 1182 l 2,11,12
 525 1195 525 1195 525 1206 c 0,13,14
 525 1211 525 1211 526 1215 c 0,15,16
 531 1234 531 1234 559 1252 c 2,17,-1
 603 1280 l 2,18,19
 623 1293 623 1293 638 1293 c 0,20,21
 660 1293 660 1293 670 1271 c 2,22,-1
 870 816 l 1,23,-1
 358 267 l 2,24,25
 345 253 345 253 333 253 c 0,0,1
720 253 m 0,26,27
 710 253 710 253 702 259 c 2,28,-1
 677 279 l 2,29,30
 667 287 667 287 667 295 c 0,31,32
 667 299 667 299 668 303 c 0,33,34
 670 311 670 311 678 320 c 2,35,-1
 1104 776 l 1,36,-1
 918 1182 l 2,37,38
 912 1195 912 1195 912 1206 c 0,39,40
 912 1211 912 1211 913 1215 c 0,41,42
 918 1234 918 1234 946 1252 c 2,43,-1
 990 1280 l 2,44,45
 1010 1293 1010 1293 1025 1293 c 0,46,47
 1047 1293 1047 1293 1057 1271 c 2,48,-1
 1257 816 l 1,49,-1
 745 267 l 2,50,51
 732 253 732 253 720 253 c 0,26,27
EndSplineSet
Validated: 1
EndChar

StartChar: questiondown
Encoding: 191 191 109
Width: 1256
GlyphClass: 2
Flags: W
HStem: -430 96<440.154 736.565> -70 262<894.676 1012.56> 856 264<863.676 1044.81>
VStem: 130 229<-253.643 62.1038> 825 259<895.707 1080.29> 856 259<-31.3239 152.293>
LayerCount: 2
Fore
SplineSet
492 -430 m 0,0,1
 280 -430 280 -430 189 -305 c 0,2,3
 130 -225 130 -225 130 -125 c 0,4,5
 130 -75 130 -75 145 -20 c 0,6,7
 205 205 205 205 447 365 c 2,8,-1
 680 519 l 2,9,10
 806 602 806 602 846 750 c 24,11,12
 854 780 854 780 884 780 c 2,13,-1
 926 780 l 2,14,15
 950 780 950 780 950 762 c 0,16,17
 950 757 950 757 948 750 c 0,18,19
 901 573 901 573 742 436 c 2,20,-1
 617 328 l 2,21,22
 415 154 415 154 374 -2 c 0,23,24
 359 -60 359 -60 359 -109 c 0,25,26
 359 -177 359 -177 385 -226 c 0,27,28
 444 -334 444 -334 596 -334 c 0,29,30
 738 -334 738 -334 856 -246 c 0,31,32
 957 -171 957 -171 1013 -66 c 1,33,34
 1000 -70 1000 -70 985 -70 c 0,35,36
 931 -70 931 -70 893.5 -32.5 c 128,-1,37
 856 5 856 5 856 60 c 128,-1,38
 856 115 856 115 893.5 153.5 c 128,-1,39
 931 192 931 192 985 192 c 128,-1,40
 1039 192 1039 192 1077 153.5 c 128,-1,41
 1115 115 1115 115 1115 60 c 0,42,43
 1115 -120 1115 -120 901 -291 c 0,44,45
 727 -430 727 -430 492 -430 c 0,0,1
954 1120 m 128,-1,47
 1008 1120 1008 1120 1046 1081.5 c 128,-1,48
 1084 1043 1084 1043 1084 988 c 128,-1,49
 1084 933 1084 933 1046 894.5 c 128,-1,50
 1008 856 1008 856 954 856 c 128,-1,51
 900 856 900 856 862.5 894.5 c 128,-1,52
 825 933 825 933 825 988 c 128,-1,53
 825 1043 825 1043 862.5 1081.5 c 128,-1,46
 900 1120 900 1120 954 1120 c 128,-1,47
EndSplineSet
Validated: 1
EndChar

StartChar: endash
Encoding: 8211 8211 110
Width: 1133
GlyphClass: 2
Flags: W
HStem: 680 150<360.77 1176.94>
LayerCount: 2
Fore
SplineSet
422 830 m 2,0,-1
 1155 830 l 2,1,2
 1195 830 1195 830 1195 799 c 0,3,4
 1195 791 1195 791 1192 780 c 2,5,-1
 1179 730 l 2,6,7
 1166 680 1166 680 1115 680 c 2,8,-1
 382 680 l 2,9,10
 343 680 343 680 343 711 c 0,11,12
 343 720 343 720 346 730 c 2,13,-1
 359 780 l 2,14,15
 372 830 372 830 422 830 c 2,0,-1
EndSplineSet
Validated: 1
EndChar

StartChar: emdash
Encoding: 8212 8212 111
Width: 1533
GlyphClass: 2
Flags: W
HStem: 680 150<360.77 1576.94>
LayerCount: 2
Fore
SplineSet
422 830 m 2,0,-1
 1555 830 l 2,1,2
 1595 830 1595 830 1595 799 c 0,3,4
 1595 791 1595 791 1592 780 c 2,5,-1
 1579 730 l 2,6,7
 1566 680 1566 680 1515 680 c 2,8,-1
 382 680 l 2,9,10
 343 680 343 680 343 711 c 0,11,12
 343 720 343 720 346 730 c 2,13,-1
 359 780 l 2,14,15
 372 830 372 830 422 830 c 2,0,-1
EndSplineSet
Validated: 1
EndChar

StartChar: afii00208
Encoding: 8213 8213 112
Width: 1533
GlyphClass: 2
Flags: W
HStem: 680 150<360.77 1576.94>
LayerCount: 2
Fore
SplineSet
422 830 m 2,0,-1
 1555 830 l 2,1,2
 1595 830 1595 830 1595 799 c 0,3,4
 1595 791 1595 791 1592 780 c 2,5,-1
 1579 730 l 2,6,7
 1566 680 1566 680 1515 680 c 2,8,-1
 382 680 l 2,9,10
 343 680 343 680 343 711 c 0,11,12
 343 720 343 720 346 730 c 2,13,-1
 359 780 l 2,14,15
 372 830 372 830 422 830 c 2,0,-1
EndSplineSet
Validated: 1
EndChar

StartChar: quoteleft
Encoding: 8216 8216 113
Width: 401
GlyphClass: 2
Flags: W
HStem: 1176 404<549 695>
VStem: 410 260<1210.84 1366>
LayerCount: 2
Fore
SplineSet
549 1176 m 0,0,1
 529 1176 529 1176 510 1181 c 0,2,3
 458 1195 458 1195 432 1238 c 0,4,5
 410 1274 410 1274 410 1321 c 0,6,7
 410 1343 410 1343 416 1366 c 0,8,9
 435 1436 435 1436 497 1495 c 0,10,11
 588 1580 588 1580 695 1580 c 0,12,13
 740 1580 740 1580 782 1569 c 1,14,-1
 779 1556 l 1,15,16
 692 1534 692 1534 628 1481 c 0,17,18
 596 1454 596 1454 571 1415 c 1,19,20
 633 1398 633 1398 654 1361 c 0,21,22
 670 1332 670 1332 670 1301 c 0,23,24
 670 1281 670 1281 665 1265 c 0,25,26
 651 1218 651 1218 608 1192 c 0,27,28
 581 1176 581 1176 549 1176 c 0,0,1
EndSplineSet
Validated: 1
EndChar

StartChar: quoteright
Encoding: 8217 8217 114
Width: 401
GlyphClass: 2
Flags: W
HStem: 1176 404<445 591>
VStem: 470 260<1390 1545.16>
LayerCount: 2
Fore
SplineSet
591 1580 m 0,0,1
 611 1580 611 1580 630 1575 c 0,2,3
 682 1561 682 1561 708 1518 c 0,4,5
 730 1482 730 1482 730 1435 c 0,6,7
 730 1413 730 1413 724 1390 c 0,8,9
 705 1320 705 1320 643 1261 c 0,10,11
 552 1176 552 1176 445 1176 c 0,12,13
 400 1176 400 1176 358 1187 c 1,14,-1
 361 1200 l 1,15,16
 448 1222 448 1222 512 1275 c 0,17,18
 544 1302 544 1302 569 1341 c 1,19,20
 507 1358 507 1358 486 1395 c 0,21,22
 470 1424 470 1424 470 1455 c 0,23,24
 470 1475 470 1475 475 1491 c 0,25,26
 489 1538 489 1538 532 1564 c 0,27,28
 559 1580 559 1580 591 1580 c 0,0,1
EndSplineSet
Validated: 1
EndChar

StartChar: quotesinglbase
Encoding: 8218 8218 115
Width: 368
GlyphClass: 2
Flags: W
HStem: -183 404<52 198>
VStem: 77 260<31 186.161>
LayerCount: 2
Fore
SplineSet
198 221 m 0,0,1
 218 221 218 221 237 216 c 0,2,3
 289 202 289 202 315 159 c 0,4,5
 337 123 337 123 337 76 c 0,6,7
 337 54 337 54 331 31 c 0,8,9
 312 -39 312 -39 250 -98 c 0,10,11
 159 -183 159 -183 52 -183 c 0,12,13
 7 -183 7 -183 -35 -172 c 1,14,-1
 -32 -159 l 1,15,16
 55 -137 55 -137 119 -84 c 0,17,18
 151 -57 151 -57 176 -18 c 1,19,20
 114 -1 114 -1 93 36 c 0,21,22
 77 65 77 65 77 96 c 0,23,24
 77 116 77 116 82 132 c 0,25,26
 96 179 96 179 139 205 c 0,27,28
 166 221 166 221 198 221 c 0,0,1
EndSplineSet
Validated: 1
EndChar

StartChar: quotereversed
Encoding: 8219 8219 116
Width: 412
GlyphClass: 2
Flags: W
HStem: 1105 21G<632 661> 1335 245<552.099 682.157>
VStem: 434 277<1360.91 1530.26> 434 118<1241.5 1343>
LayerCount: 2
Fore
SplineSet
581 1580 m 0,0,1
 601 1580 601 1580 618 1575 c 0,2,3
 671 1559 671 1559 695 1518 c 0,4,5
 711 1491 711 1491 711 1456 c 0,6,7
 711 1441 711 1441 706 1423 c 0,8,9
 693 1375 693 1375 650 1349 c 0,10,11
 627 1335 627 1335 600 1335 c 0,12,13
 582 1335 582 1335 552 1343 c 1,14,15
 554 1295 554 1295 568 1257 c 0,16,17
 596 1181 596 1181 661 1117 c 1,18,-1
 657 1105 l 1,19,20
 607 1118 607 1118 576 1139 c 0,21,22
 480 1202 480 1202 448 1311 c 0,23,24
 434 1358 434 1358 434 1400 c 0,25,26
 434 1433 434 1433 442 1463 c 0,27,28
 461 1531 461 1531 522 1565 c 0,29,30
 549 1580 549 1580 581 1580 c 0,0,1
EndSplineSet
Validated: 1
EndChar

StartChar: quotedblleft
Encoding: 8220 8220 117
Width: 705
GlyphClass: 2
Flags: W
HStem: 1176 404<549 695 852 998>
VStem: 410 260<1210.84 1366> 713 260<1210.84 1366>
LayerCount: 2
Fore
SplineSet
549 1176 m 0,0,1
 529 1176 529 1176 510 1181 c 0,2,3
 458 1195 458 1195 432 1238 c 0,4,5
 410 1274 410 1274 410 1321 c 0,6,7
 410 1343 410 1343 416 1366 c 0,8,9
 435 1436 435 1436 497 1495 c 0,10,11
 588 1580 588 1580 695 1580 c 0,12,13
 740 1580 740 1580 782 1569 c 1,14,-1
 779 1556 l 1,15,16
 692 1534 692 1534 628 1481 c 0,17,18
 596 1454 596 1454 571 1415 c 1,19,20
 633 1398 633 1398 654 1361 c 0,21,22
 670 1332 670 1332 670 1301 c 0,23,24
 670 1281 670 1281 665 1265 c 0,25,26
 651 1218 651 1218 608 1192 c 0,27,28
 581 1176 581 1176 549 1176 c 0,0,1
852 1176 m 0,29,30
 832 1176 832 1176 813 1181 c 0,31,32
 761 1195 761 1195 735 1238 c 0,33,34
 713 1274 713 1274 713 1321 c 0,35,36
 713 1343 713 1343 719 1366 c 0,37,38
 738 1436 738 1436 800 1495 c 0,39,40
 891 1580 891 1580 998 1580 c 0,41,42
 1043 1580 1043 1580 1085 1569 c 1,43,-1
 1082 1556 l 1,44,45
 995 1534 995 1534 931 1481 c 0,46,47
 899 1454 899 1454 874 1415 c 1,48,49
 936 1398 936 1398 957 1361 c 0,50,51
 973 1332 973 1332 973 1301 c 0,52,53
 973 1281 973 1281 968 1265 c 0,54,55
 954 1218 954 1218 911 1192 c 0,56,57
 884 1176 884 1176 852 1176 c 0,29,30
EndSplineSet
Validated: 1
EndChar

StartChar: quotedblright
Encoding: 8221 8221 118
Width: 705
GlyphClass: 2
Flags: W
HStem: 1176 404<445 591 748 894>
VStem: 470 260<1390 1545.16> 773 260<1390 1545.16>
LayerCount: 2
Fore
SplineSet
894 1580 m 0,0,1
 914 1580 914 1580 933 1575 c 0,2,3
 985 1561 985 1561 1011 1518 c 0,4,5
 1033 1482 1033 1482 1033 1435 c 0,6,7
 1033 1413 1033 1413 1027 1390 c 0,8,9
 1008 1320 1008 1320 946 1261 c 0,10,11
 855 1176 855 1176 748 1176 c 0,12,13
 703 1176 703 1176 661 1187 c 1,14,-1
 664 1200 l 1,15,16
 751 1222 751 1222 815 1275 c 0,17,18
 847 1302 847 1302 872 1341 c 1,19,20
 810 1358 810 1358 789 1395 c 0,21,22
 773 1424 773 1424 773 1455 c 0,23,24
 773 1475 773 1475 778 1491 c 0,25,26
 792 1538 792 1538 835 1564 c 0,27,28
 862 1580 862 1580 894 1580 c 0,0,1
591 1580 m 0,29,30
 611 1580 611 1580 630 1575 c 0,31,32
 682 1561 682 1561 708 1518 c 0,33,34
 730 1482 730 1482 730 1435 c 0,35,36
 730 1413 730 1413 724 1390 c 0,37,38
 705 1320 705 1320 643 1261 c 0,39,40
 552 1176 552 1176 445 1176 c 0,41,42
 400 1176 400 1176 358 1187 c 1,43,-1
 361 1200 l 1,44,45
 448 1222 448 1222 512 1275 c 0,46,47
 544 1302 544 1302 569 1341 c 1,48,49
 507 1358 507 1358 486 1395 c 0,50,51
 470 1424 470 1424 470 1455 c 0,52,53
 470 1475 470 1475 475 1491 c 0,54,55
 489 1538 489 1538 532 1564 c 0,56,57
 559 1580 559 1580 591 1580 c 0,29,30
EndSplineSet
Validated: 1
EndChar

StartChar: quotedblbase
Encoding: 8222 8222 119
Width: 685
GlyphClass: 2
Flags: W
HStem: -183 404<61 207 364 510>
VStem: 86 260<31 186.161> 389 260<31 186.161>
LayerCount: 2
Fore
SplineSet
510 221 m 0,0,1
 530 221 530 221 549 216 c 0,2,3
 601 202 601 202 627 159 c 0,4,5
 649 123 649 123 649 76 c 0,6,7
 649 54 649 54 643 31 c 0,8,9
 624 -39 624 -39 562 -98 c 0,10,11
 471 -183 471 -183 364 -183 c 0,12,13
 319 -183 319 -183 277 -172 c 1,14,-1
 280 -159 l 1,15,16
 367 -137 367 -137 431 -84 c 0,17,18
 463 -57 463 -57 488 -18 c 1,19,20
 426 -1 426 -1 405 36 c 0,21,22
 389 65 389 65 389 96 c 0,23,24
 389 116 389 116 394 132 c 0,25,26
 408 179 408 179 451 205 c 0,27,28
 478 221 478 221 510 221 c 0,0,1
207 221 m 0,29,30
 227 221 227 221 246 216 c 0,31,32
 298 202 298 202 324 159 c 0,33,34
 346 123 346 123 346 76 c 0,35,36
 346 54 346 54 340 31 c 0,37,38
 321 -39 321 -39 259 -98 c 0,39,40
 168 -183 168 -183 61 -183 c 0,41,42
 16 -183 16 -183 -26 -172 c 1,43,-1
 -23 -159 l 1,44,45
 64 -137 64 -137 128 -84 c 0,46,47
 160 -57 160 -57 185 -18 c 1,48,49
 123 -1 123 -1 102 36 c 0,50,51
 86 65 86 65 86 96 c 0,52,53
 86 116 86 116 91 132 c 0,54,55
 105 179 105 179 148 205 c 0,56,57
 175 221 175 221 207 221 c 0,29,30
EndSplineSet
Validated: 1
EndChar

StartChar: dagger
Encoding: 8224 8224 120
Width: 1390
VWidth: 0
GlyphClass: 2
Flags: W
HStem: 935 100<720.001 896 1022 1198>
DStem2: 634.677 -40 734.677 -40 0.258819 0.965926<390.997 1009.41 1138.62 1279.94>
LayerCount: 2
Fore
SplineSet
679 -40 m 1,0,1
 665 105 665 105 534 159 c 1,2,-1
 536 169 l 1,3,4
 705 224 705 224 744 368 c 2,5,-1
 896 935 l 1,6,-1
 809 935 l 2,7,8
 666 935 666 935 568 781 c 1,9,-1
 558 781 l 1,10,11
 543 927 543 927 413 980 c 1,12,-1
 415 990 l 1,13,14
 574 1043 574 1043 668 1189 c 1,15,-1
 678 1189 l 1,16,17
 692 1035 692 1035 835 1035 c 2,18,-1
 922 1035 l 1,19,-1
 951 1142 l 2,20,21
 959 1173 959 1173 959 1199 c 0,22,23
 959 1297 959 1297 850 1341 c 1,24,-1
 853 1351 l 1,25,26
 1013 1405 1013 1405 1105 1550 c 1,27,-1
 1115 1550 l 1,28,29
 1129 1405 1129 1405 1261 1351 c 1,30,-1
 1258 1341 l 1,31,32
 1089 1286 1089 1286 1051 1142 c 2,33,-1
 1022 1035 l 1,34,-1
 1109 1035 l 2,35,36
 1252 1035 1252 1035 1350 1189 c 1,37,-1
 1360 1189 l 1,38,39
 1375 1043 1375 1043 1505 990 c 1,40,-1
 1503 980 l 1,41,42
 1344 927 1344 927 1250 781 c 1,43,-1
 1240 781 l 1,44,45
 1226 935 1226 935 1083 935 c 2,46,-1
 996 935 l 1,47,-1
 844 368 l 2,48,49
 836 337 836 337 836 310 c 0,50,51
 836 213 836 213 944 169 c 1,52,-1
 942 159 l 1,53,54
 782 105 782 105 689 -40 c 1,55,-1
 679 -40 l 1,0,1
EndSplineSet
Validated: 1
EndChar

StartChar: daggerdbl
Encoding: 8225 8225 121
Width: 1390
VWidth: 0
GlyphClass: 2
Flags: W
HStem: 475 100<596.109 772 899 1074.89> 935 100<720.001 896 1022 1198>
DStem2: 634.677 -40 734.677 -40 0.258819 0.965926<390.997 532.994 662.456 1009.41 1138.62 1279.94>
LayerCount: 2
Fore
SplineSet
679 -40 m 1,0,1
 665 105 665 105 534 159 c 1,2,-1
 536 169 l 1,3,4
 705 224 705 224 744 368 c 2,5,-1
 772 475 l 1,6,-1
 685 475 l 2,7,8
 542 475 542 475 445 321 c 1,9,-1
 435 321 l 1,10,11
 420 467 420 467 289 520 c 1,12,-1
 292 530 l 1,13,14
 451 583 451 583 544 729 c 1,15,-1
 554 729 l 1,16,17
 568 575 568 575 712 575 c 2,18,-1
 799 575 l 1,19,-1
 896 935 l 1,20,-1
 809 935 l 2,21,22
 666 935 666 935 568 781 c 1,23,-1
 558 781 l 1,24,25
 543 927 543 927 413 980 c 1,26,-1
 415 990 l 1,27,28
 574 1043 574 1043 668 1189 c 1,29,-1
 678 1189 l 1,30,31
 692 1035 692 1035 835 1035 c 2,32,-1
 922 1035 l 1,33,-1
 951 1142 l 2,34,35
 959 1173 959 1173 959 1199 c 0,36,37
 959 1297 959 1297 850 1341 c 1,38,-1
 853 1351 l 1,39,40
 1013 1405 1013 1405 1105 1550 c 1,41,-1
 1115 1550 l 1,42,43
 1129 1405 1129 1405 1261 1351 c 1,44,-1
 1258 1341 l 1,45,46
 1089 1286 1089 1286 1051 1142 c 2,47,-1
 1022 1035 l 1,48,-1
 1109 1035 l 2,49,50
 1252 1035 1252 1035 1350 1189 c 1,51,-1
 1360 1189 l 1,52,53
 1375 1043 1375 1043 1505 990 c 1,54,-1
 1503 980 l 1,55,56
 1344 927 1344 927 1250 781 c 1,57,-1
 1240 781 l 1,58,59
 1226 935 1226 935 1083 935 c 2,60,-1
 996 935 l 1,61,-1
 899 575 l 1,62,-1
 986 575 l 2,63,64
 1129 575 1129 575 1226 729 c 1,65,-1
 1236 729 l 1,66,67
 1251 583 1251 583 1382 530 c 1,68,-1
 1379 520 l 1,69,70
 1220 467 1220 467 1127 321 c 1,71,-1
 1117 321 l 1,72,73
 1103 475 1103 475 959 475 c 2,74,-1
 872 475 l 1,75,-1
 844 368 l 2,76,77
 836 337 836 337 836 310 c 0,78,79
 836 213 836 213 944 169 c 1,80,-1
 942 159 l 1,81,82
 782 105 782 105 689 -40 c 1,83,-1
 679 -40 l 1,0,1
EndSplineSet
Validated: 1
EndChar

StartChar: bullet
Encoding: 8226 8226 122
Width: 880
GlyphClass: 2
Flags: W
HStem: 470 572<487.581 796.419>
VStem: 352 580<603.939 908.061>
LayerCount: 2
Fore
SplineSet
642 1042 m 128,-1,1
 762 1042 762 1042 847 958 c 128,-1,2
 932 874 932 874 932 756 c 128,-1,3
 932 638 932 638 847 554 c 128,-1,4
 762 470 762 470 642 470 c 128,-1,5
 522 470 522 470 437 554 c 128,-1,6
 352 638 352 638 352 756 c 128,-1,7
 352 874 352 874 437 958 c 128,-1,0
 522 1042 522 1042 642 1042 c 128,-1,1
EndSplineSet
Validated: 1
EndChar

StartChar: ellipsis
Encoding: 8230 8230 123
Width: 1125
GlyphClass: 2
Flags: W
HStem: -20 264<119.191 300.324 502.191 683.324 885.191 1066.32>
VStem: 80 259<19.7072 204.293> 463 259<19.7072 204.293> 846 259<19.7072 204.293>
CounterMasks: 1 70
LayerCount: 2
Fore
SplineSet
976 -20 m 128,-1,1
 922 -20 922 -20 884 18.5 c 128,-1,2
 846 57 846 57 846 112 c 128,-1,3
 846 167 846 167 884 205.5 c 128,-1,4
 922 244 922 244 976 244 c 128,-1,5
 1030 244 1030 244 1067.5 205.5 c 128,-1,6
 1105 167 1105 167 1105 112 c 128,-1,7
 1105 57 1105 57 1067.5 18.5 c 128,-1,0
 1030 -20 1030 -20 976 -20 c 128,-1,1
593 -20 m 128,-1,9
 539 -20 539 -20 501 18.5 c 128,-1,10
 463 57 463 57 463 112 c 128,-1,11
 463 167 463 167 501 205.5 c 128,-1,12
 539 244 539 244 593 244 c 128,-1,13
 647 244 647 244 684.5 205.5 c 128,-1,14
 722 167 722 167 722 112 c 128,-1,15
 722 57 722 57 684.5 18.5 c 128,-1,8
 647 -20 647 -20 593 -20 c 128,-1,9
210 -20 m 128,-1,17
 156 -20 156 -20 118 18.5 c 128,-1,18
 80 57 80 57 80 112 c 128,-1,19
 80 167 80 167 118 205.5 c 128,-1,20
 156 244 156 244 210 244 c 128,-1,21
 264 244 264 244 301.5 205.5 c 128,-1,22
 339 167 339 167 339 112 c 128,-1,23
 339 57 339 57 301.5 18.5 c 128,-1,16
 264 -20 264 -20 210 -20 c 128,-1,17
EndSplineSet
Validated: 1
EndChar

StartChar: perthousand
Encoding: 8240 8240 124
Width: 2293
GlyphClass: 2
Flags: W
HStem: -20 59<1064.46 1219.14 1768.46 1923.14> 605 59<1205.09 1359.91 1909.09 2063.91> 846 59<633.461 788.143> 1471 59<774.087 928.909>
VStem: 453 152<936.203 1248.42> 884 152<70.2031 382.419> 956 154<1123.86 1440> 1387 154<257.862 573.999> 1588 152<70.2031 382.419> 2091 154<257.862 573.999>
DStem2: 325 65 439 -15 0.645378 0.763863<-37.0624 1957.41>
LayerCount: 2
Fore
SplineSet
2008 664 m 128,-1,1
 2126 664 2126 664 2194 582 c 0,2,3
 2245 520 2245 520 2245 431 c 0,4,5
 2245 381 2245 381 2229 322 c 0,6,7
 2185 158 2185 158 2055 62 c 0,8,9
 1943 -20 1943 -20 1825 -20 c 128,-1,10
 1707 -20 1707 -20 1639 62 c 0,11,12
 1588 123 1588 123 1588 213 c 0,13,14
 1588 265 1588 265 1603 322 c 0,15,16
 1647 488 1647 488 1778 582 c 0,17,0
 1890 664 1890 664 2008 664 c 128,-1,1
1992 605 m 0,18,19
 1926 605 1926 605 1863 535 c 0,20,21
 1805 471 1805 471 1767 322 c 0,22,23
 1740 218 1740 218 1740 156 c 0,24,25
 1740 125 1740 125 1747 106 c 0,26,27
 1769 39 1769 39 1839 39 c 0,28,29
 1906 39 1906 39 1968 109 c 0,30,31
 2027 175 2027 175 2065 322 c 0,32,33
 2091 423 2091 423 2091 485 c 0,34,35
 2091 519 2091 519 2083 542 c 0,36,37
 2062 605 2062 605 1992 605 c 0,18,19
1304 664 m 128,-1,39
 1422 664 1422 664 1490 582 c 0,40,41
 1541 520 1541 520 1541 431 c 0,42,43
 1541 381 1541 381 1525 322 c 0,44,45
 1481 158 1481 158 1351 62 c 0,46,47
 1239 -20 1239 -20 1121 -20 c 128,-1,48
 1003 -20 1003 -20 935 62 c 0,49,50
 884 123 884 123 884 213 c 0,51,52
 884 265 884 265 899 322 c 0,53,54
 943 488 943 488 1074 582 c 0,55,38
 1186 664 1186 664 1304 664 c 128,-1,39
1288 605 m 0,56,57
 1222 605 1222 605 1159 535 c 0,58,59
 1101 471 1101 471 1063 322 c 0,60,61
 1036 218 1036 218 1036 156 c 0,62,63
 1036 125 1036 125 1043 106 c 0,64,65
 1065 39 1065 39 1135 39 c 0,66,67
 1202 39 1202 39 1264 109 c 0,68,69
 1323 175 1323 175 1361 322 c 0,70,71
 1387 423 1387 423 1387 485 c 0,72,73
 1387 519 1387 519 1379 542 c 0,74,75
 1358 605 1358 605 1288 605 c 0,56,57
873 1530 m 128,-1,77
 991 1530 991 1530 1059 1448 c 0,78,79
 1110 1386 1110 1386 1110 1297 c 0,80,81
 1110 1247 1110 1247 1094 1188 c 0,82,83
 1050 1024 1050 1024 920 928 c 0,84,85
 808 846 808 846 690 846 c 128,-1,86
 572 846 572 846 504 928 c 0,87,88
 453 989 453 989 453 1079 c 0,89,90
 453 1130 453 1130 468 1188 c 0,91,92
 512 1354 512 1354 643 1448 c 0,93,76
 755 1530 755 1530 873 1530 c 128,-1,77
857 1471 m 0,94,95
 791 1471 791 1471 728 1401 c 0,96,97
 670 1337 670 1337 632 1188 c 0,98,99
 605 1084 605 1084 605 1022 c 0,100,101
 605 991 605 991 612 972 c 0,102,103
 634 905 634 905 704 905 c 0,104,105
 771 905 771 905 833 975 c 0,106,107
 892 1041 892 1041 930 1188 c 0,108,109
 956 1289 956 1289 956 1351 c 0,110,111
 956 1385 956 1385 948 1408 c 0,112,113
 927 1471 927 1471 857 1471 c 0,94,95
391 -40 m 0,114,115
 379 -40 379 -40 366 -31 c 2,116,-1
 325 -3 l 2,117,118
 307 9 307 9 307 27 c 0,119,120
 307 31 307 31 308 36 c 0,121,122
 311 48 311 48 325 65 c 2,123,-1
 1556 1522 l 2,124,125
 1580 1550 1580 1550 1601 1550 c 0,126,127
 1616 1550 1616 1550 1629 1541 c 2,128,-1
 1669 1513 l 2,129,130
 1686 1501 1686 1501 1686 1483 c 0,131,132
 1686 1477 1686 1477 1685 1473 c 0,133,134
 1681 1456 1681 1456 1669 1442 c 2,135,-1
 439 -15 l 2,136,137
 418 -40 418 -40 391 -40 c 0,114,115
EndSplineSet
Validated: 1
EndChar

StartChar: minute
Encoding: 8242 8242 125
Width: 350
GlyphClass: 2
Flags: W
HStem: 1158 382
VStem: 374 322
LayerCount: 2
Fore
SplineSet
583 1540 m 0,0,1
 590 1540 590 1540 600 1536 c 2,2,-1
 675 1506 l 2,3,4
 696 1498 696 1498 696 1481 c 0,5,6
 696 1476 696 1476 695 1473 c 0,7,8
 692 1463 692 1463 682 1449 c 2,9,-1
 491 1186 l 2,10,11
 471 1158 471 1158 447 1158 c 0,12,13
 439 1158 439 1158 430 1162 c 2,14,-1
 395 1178 l 2,15,16
 374 1188 374 1188 374 1204 c 0,17,18
 374 1209 374 1209 375 1212 c 0,19,20
 378 1221 378 1221 382 1228 c 2,21,-1
 543 1510 l 2,22,23
 560 1540 560 1540 583 1540 c 0,0,1
EndSplineSet
Validated: 1
EndChar

StartChar: second
Encoding: 8243 8243 126
Width: 597
GlyphClass: 2
Flags: W
HStem: 1158 382
VStem: 374 569
LayerCount: 2
Fore
SplineSet
830 1540 m 0,0,1
 837 1540 837 1540 847 1536 c 2,2,-1
 922 1506 l 2,3,4
 943 1498 943 1498 943 1481 c 0,5,6
 943 1476 943 1476 942 1473 c 0,7,8
 939 1463 939 1463 929 1449 c 2,9,-1
 738 1186 l 2,10,11
 718 1158 718 1158 694 1158 c 0,12,13
 686 1158 686 1158 677 1162 c 2,14,-1
 642 1178 l 2,15,16
 621 1188 621 1188 621 1204 c 0,17,18
 621 1209 621 1209 622 1212 c 0,19,20
 625 1221 625 1221 629 1228 c 2,21,-1
 790 1510 l 2,22,23
 807 1540 807 1540 830 1540 c 0,0,1
583 1540 m 0,24,25
 590 1540 590 1540 600 1536 c 2,26,-1
 675 1506 l 2,27,28
 696 1498 696 1498 696 1481 c 0,29,30
 696 1476 696 1476 695 1473 c 0,31,32
 692 1463 692 1463 682 1449 c 2,33,-1
 491 1186 l 2,34,35
 471 1158 471 1158 447 1158 c 0,36,37
 439 1158 439 1158 430 1162 c 2,38,-1
 395 1178 l 2,39,40
 374 1188 374 1188 374 1204 c 0,41,42
 374 1209 374 1209 375 1212 c 0,43,44
 378 1221 378 1221 382 1228 c 2,45,-1
 543 1510 l 2,46,47
 560 1540 560 1540 583 1540 c 0,24,25
EndSplineSet
Validated: 1
EndChar

StartChar: guilsinglleft
Encoding: 8249 8249 127
Width: 802
GlyphClass: 2
Flags: W
VStem: 346 590
DStem2: 499 770 346 730 0.402401 -0.915463<0 470.595> 346 730 499 770 0.682033 0.731321<133.604 777.727>
LayerCount: 2
Fore
SplineSet
883 1293 m 0,0,1
 894 1293 894 1293 901 1287 c 2,2,-1
 926 1267 l 2,3,4
 936 1259 936 1259 936 1251 c 0,5,6
 936 1247 936 1247 935 1243 c 0,7,8
 933 1235 933 1235 925 1226 c 2,9,-1
 499 770 l 1,10,-1
 685 364 l 2,11,12
 691 351 691 351 691 340 c 0,13,14
 691 335 691 335 690 331 c 0,15,16
 685 312 685 312 657 294 c 2,17,-1
 613 266 l 2,18,19
 593 253 593 253 578 253 c 0,20,21
 556 253 556 253 546 275 c 2,22,-1
 346 730 l 1,23,-1
 858 1279 l 2,24,25
 871 1293 871 1293 883 1293 c 0,0,1
EndSplineSet
Validated: 1
EndChar

StartChar: guilsinglright
Encoding: 8250 8250 128
Width: 801
GlyphClass: 2
Flags: W
VStem: 280 590
DStem2: 291 320 870 816 0.682033 0.731321<-20.0947 624.029> 670 1271 531 1182 0.402401 -0.915463<1.47263 472.067>
LayerCount: 2
Fore
SplineSet
333 253 m 0,0,1
 322 253 322 253 315 259 c 2,2,-1
 290 279 l 2,3,4
 280 287 280 287 280 295 c 0,5,6
 280 299 280 299 281 303 c 0,7,8
 283 311 283 311 291 320 c 2,9,-1
 717 776 l 1,10,-1
 531 1182 l 2,11,12
 525 1195 525 1195 525 1206 c 0,13,14
 525 1211 525 1211 526 1215 c 0,15,16
 531 1234 531 1234 559 1252 c 2,17,-1
 603 1280 l 2,18,19
 623 1293 623 1293 638 1293 c 0,20,21
 660 1293 660 1293 670 1271 c 2,22,-1
 870 816 l 1,23,-1
 358 267 l 2,24,25
 345 253 345 253 333 253 c 0,0,1
EndSplineSet
Validated: 1
EndChar

StartChar: fraction
Encoding: 8260 8260 129
Width: 1012
GlyphClass: 2
Flags: W
DStem2: 37 65 151 -15 0.645378 0.763863<-37.0624 1957.41>
LayerCount: 2
Fore
SplineSet
103 -40 m 0,0,1
 91 -40 91 -40 78 -31 c 2,2,-1
 37 -3 l 2,3,4
 19 9 19 9 19 27 c 0,5,6
 19 31 19 31 20 36 c 0,7,8
 23 48 23 48 37 65 c 2,9,-1
 1268 1522 l 2,10,11
 1292 1550 1292 1550 1313 1550 c 0,12,13
 1328 1550 1328 1550 1341 1541 c 2,14,-1
 1381 1513 l 2,15,16
 1398 1501 1398 1501 1398 1483 c 0,17,18
 1398 1477 1398 1477 1397 1473 c 0,19,20
 1393 1456 1393 1456 1381 1442 c 2,21,-1
 151 -15 l 2,22,23
 130 -40 130 -40 103 -40 c 0,0,1
EndSplineSet
Validated: 1
EndChar

StartChar: Euro
Encoding: 8364 8364 130
Width: 1530
GlyphClass: 2
Flags: W
HStem: -20 75<787.823 1115.55> 600 90<323 450 695 1121> 818 90<381 500 758 1179> 1021 264<1414.19 1561.16> 1455 75<1137.91 1460.46>
VStem: 439 210<222.502 596.802> 1375 280<1073.6 1245.29> 1402 15<327.883 336>
LayerCount: 2
Fore
SplineSet
901 -20 m 0,0,1
 647 -20 647 -20 534 134 c 0,2,3
 439 265 439 265 439 461 c 0,4,5
 439 527 439 527 450 600 c 1,6,-1
 341 600 l 2,7,8
 317 600 317 600 317 617 c 0,9,10
 317 622 317 622 319 630 c 2,11,-1
 327 660 l 2,12,13
 335 690 335 690 365 690 c 2,14,-1
 466 690 l 1,15,16
 473 722 473 722 482 755 c 0,17,18
 491 787 491 787 500 818 c 1,19,-1
 399 818 l 2,20,21
 375 818 375 818 375 835 c 0,22,23
 375 840 375 840 377 848 c 2,24,-1
 385 878 l 2,25,26
 393 908 393 908 423 908 c 2,27,-1
 531 908 l 1,28,29
 647 1214 647 1214 867 1376 c 0,30,31
 1077 1530 1077 1530 1307 1530 c 0,32,33
 1499 1530 1499 1530 1595 1401 c 0,34,35
 1655 1321 1655 1321 1655 1222 c 0,36,37
 1655 1173 1655 1173 1642 1132 c 0,38,39
 1629 1092 1629 1092 1600 1062 c 0,40,41
 1560 1021 1560 1021 1504 1021 c 0,42,43
 1450 1021 1450 1021 1412.5 1059.5 c 128,-1,44
 1375 1098 1375 1098 1375 1153 c 128,-1,45
 1375 1208 1375 1208 1413 1246.5 c 128,-1,46
 1451 1285 1451 1285 1505 1285 c 0,47,48
 1535 1285 1535 1285 1562 1270 c 1,49,50
 1516 1455 1516 1455 1310 1455 c 0,51,52
 1137 1455 1137 1455 990 1320 c 0,53,54
 856 1197 856 1197 758 908 c 1,55,-1
 1161 908 l 2,56,57
 1185 908 1185 908 1185 891 c 0,58,59
 1185 886 1185 886 1183 878 c 2,60,-1
 1175 848 l 2,61,62
 1167 818 1167 818 1137 818 c 2,63,-1
 730 818 l 1,64,65
 721 787 721 787 712 755 c 0,66,67
 703 722 703 722 695 690 c 1,68,-1
 1103 690 l 2,69,70
 1127 690 1127 690 1127 673 c 0,71,72
 1127 668 1127 668 1125 660 c 2,73,-1
 1117 630 l 2,74,75
 1109 600 1109 600 1079 600 c 2,76,-1
 675 600 l 1,77,78
 649 468 649 468 649 371 c 0,79,80
 649 257 649 257 686 192 c 0,81,82
 764 55 764 55 946 55 c 0,83,84
 1114 55 1114 55 1257 180 c 0,85,86
 1336 249 1336 249 1402 336 c 1,87,-1
 1417 336 l 1,88,-1
 1375 178 l 1,89,90
 1164 -20 1164 -20 901 -20 c 0,0,1
EndSplineSet
Validated: 1
EndChar

StartChar: afii61248
Encoding: 8453 8453 131
Width: 1614
GlyphClass: 2
Flags: W
HStem: -20 53<1092.35 1233.02> 719 46<1275.6 1406.33> 746 50<630.361 812.832> 1253 172<935.818 1007.94> 1483 47<801.767 975.516>
VStem: 434 146<830.582 1181.7> 909 174<1287.94 1397.18> 921 137<79.0797 410.627> 954 10<930.69 935> 1445 141<330.811 680.746>
DStem2: 346 65 460 -15 0.645378 0.763863<-37.0624 1957.41>
LayerCount: 2
Fore
SplineSet
882 1530 m 0,0,1
 993 1530 993 1530 1046 1461 c 0,2,3
 1083 1412 1083 1412 1083 1360 c 0,4,5
 1083 1317 1083 1317 1061 1287 c 0,6,7
 1036 1253 1036 1253 994 1253 c 0,8,9
 956 1253 956 1253 932 1278 c 0,10,11
 909 1302 909 1302 909 1334 c 0,12,13
 909 1372 909 1372 935 1398 c 0,14,15
 961 1423 961 1423 1009 1425 c 1,16,17
 973 1483 973 1483 888 1483 c 0,18,19
 816 1483 816 1483 748 1420 c 0,20,21
 667 1345 667 1345 611 1138 c 0,22,23
 580 1024 580 1024 580 950 c 0,24,25
 580 897 580 897 596 864 c 0,26,27
 628 796 628 796 707 796 c 0,28,29
 834 796 834 796 954 935 c 1,30,-1
 964 935 l 1,31,-1
 941 849 l 1,32,33
 828 746 828 746 686 746 c 0,34,35
 542 746 542 746 482 826 c 0,36,37
 434 890 434 890 434 990 c 0,38,39
 434 1059 434 1059 457 1144 c 0,40,41
 512 1350 512 1350 649 1451 c 0,42,43
 757 1530 757 1530 882 1530 c 0,0,1
412 -40 m 0,44,45
 400 -40 400 -40 387 -31 c 2,46,-1
 346 -3 l 2,47,48
 328 9 328 9 328 27 c 0,49,50
 328 31 328 31 329 36 c 0,51,52
 332 48 332 48 346 65 c 2,53,-1
 1577 1522 l 2,54,55
 1601 1550 1601 1550 1622 1550 c 0,56,57
 1637 1550 1637 1550 1650 1541 c 2,58,-1
 1690 1513 l 2,59,60
 1707 1501 1707 1501 1707 1483 c 0,61,62
 1707 1477 1707 1477 1706 1473 c 0,63,64
 1702 1456 1702 1456 1690 1442 c 2,65,-1
 460 -15 l 2,66,67
 439 -40 439 -40 412 -40 c 0,44,45
1159 33 m 0,68,69
 1212 33 1212 33 1275 94 c 0,70,71
 1359 175 1359 175 1414 375 c 0,72,73
 1445 488 1445 488 1445 568 c 0,74,75
 1445 613 1445 613 1435 648 c 0,76,77
 1415 719 1415 719 1344 719 c 0,78,79
 1290 719 1290 719 1226 658 c 0,80,81
 1150 584 1150 584 1092 374 c 0,82,83
 1059 252 1059 252 1058 173 c 0,84,85
 1058 124 1058 124 1071 92 c 0,86,87
 1094 33 1094 33 1159 33 c 0,68,69
1145 -20 m 0,88,89
 1027 -20 1027 -20 968 61 c 0,90,91
 921 127 921 127 921 224 c 0,92,93
 921 291 921 291 943 372 c 0,94,95
 997 574 997 574 1136 685 c 0,96,97
 1236 765 1236 765 1358 765 c 128,-1,98
 1480 765 1480 765 1538 685 c 0,99,100
 1586 618 1586 618 1586 520 c 0,101,102
 1586 453 1586 453 1564 372 c 0,103,104
 1510 170 1510 170 1372 63 c 0,105,106
 1265 -20 1265 -20 1145 -20 c 0,88,89
EndSplineSet
Validated: 1
EndChar

StartChar: afii61289
Encoding: 8467 8467 132
Width: 958
GlyphClass: 2
Flags: W
HStem: -20 136<441 619.523> 0 21G<50 268.333> 1510 20G<1042 1112.5>
LayerCount: 2
Fore
SplineSet
512 466 m 1,0,1
 661 672 661 672 784 860 c 0,2,3
 977 1153 977 1153 1029 1368 c 1,4,5
 897 1241 897 1241 789 1067 c 0,6,7
 585 740 585 740 512 466 c 1,0,1
50 0 m 1,8,9
 216 161 216 161 333 297 c 1,10,11
 344 381 344 381 364 458 c 0,12,13
 415 662 415 662 506 848 c 0,14,15
 702 1251 702 1251 901 1434 c 0,16,17
 1005 1530 1005 1530 1079 1530 c 0,18,19
 1146 1530 1146 1530 1168 1479 c 0,20,21
 1178 1456 1178 1456 1178 1423 c 0,22,23
 1178 1380 1178 1380 1161 1318 c 0,24,25
 1136 1226 1136 1226 1065 1072 c 0,26,27
 901 722 901 722 495 271 c 1,28,29
 495 116 495 116 542 116 c 0,30,31
 567 116 567 116 603 145 c 0,32,33
 634 171 634 171 677 228 c 1,34,-1
 853 228 l 1,35,36
 771 113 771 113 670 39 c 0,37,38
 590 -20 590 -20 497 -20 c 0,39,40
 385 -20 385 -20 355 120 c 1,41,-1
 251 0 l 1,42,-1
 50 0 l 1,8,9
EndSplineSet
Validated: 1
EndChar

StartChar: trademark
Encoding: 8482 8482 133
Width: 1947
VWidth: 1396
GlyphClass: 2
Flags: W
HStem: 1473 57<694.672 1028.15>
VStem: 980 169<1350.75 1469.57>
DStem2: 579.87 744 719.87 744 0.258819 0.965926<45.0641 663.135> 1058 783 1149 782 0.382396 0.923999<-3.09664 535.105> 1439 1500 1299 1499 0.182322 -0.983239<-33.4804 71.7829 232.858 511.343> 1531 997 1449 744 0.579594 0.814906<0 329.159> 1745 795 1884 794 0.108124 0.994137<-10.9798 423.506>
LayerCount: 2
Fore
SplineSet
1338 1530 m 2,0,-1
 1388 1530 l 2,1,2
 1434 1530 1434 1530 1439 1500 c 2,3,-1
 1531 997 l 1,4,-1
 1898 1513 l 2,5,6
 1910 1530 1910 1530 1937 1530 c 2,7,-1
 1963 1530 l 2,8,9
 1992 1530 1992 1530 1992 1519 c 0,10,11
 1992 1514 1992 1514 1990 1511 c 2,12,-1
 1956 1456 l 1,13,-1
 1884 794 l 2,14,15
 1881 764 1881 764 1834 764 c 2,16,-1
 1785 764 l 2,17,18
 1744 764 1744 764 1744 784 c 0,19,20
 1744 786 1744 786 1745 795 c 2,21,-1
 1791 1216 l 1,22,-1
 1449 744 l 1,23,-1
 1439 744 l 1,24,-1
 1341 1245 l 1,25,-1
 1149 782 l 2,26,27
 1142 764 1142 764 1113 764 c 2,28,-1
 1088 764 l 2,29,30
 1057 764 1057 764 1057 779 c 0,31,32
 1057 781 1057 781 1058 783 c 2,33,-1
 1315 1404 l 1,34,-1
 1299 1499 l 2,35,36
 1298 1505 1298 1505 1298 1508 c 0,37,38
 1298 1530 1298 1530 1338 1530 c 2,0,-1
614 764 m 2,39,40
 591 764 591 764 591 781 c 0,41,42
 591 786 591 786 593 793 c 2,43,-1
 740 1344 l 2,44,45
 748 1373 748 1373 777 1373 c 2,46,-1
 859 1373 l 2,47,48
 882 1373 882 1373 882 1356 c 0,49,50
 882 1351 882 1351 880 1344 c 2,51,-1
 733 793 l 2,52,53
 725 764 725 764 696 764 c 2,54,-1
 614 764 l 2,39,40
966 1530 m 2,55,56
 1053 1530 1053 1530 1102 1496 c 0,57,58
 1149 1463 1149 1463 1149 1409 c 0,59,60
 1149 1374 1149 1374 1131 1350 c 0,61,62
 1106 1318 1106 1318 1065 1318 c 0,63,64
 1025 1318 1025 1318 1002 1343 c 0,65,66
 980 1366 980 1366 980 1400 c 0,67,68
 980 1430 980 1430 996 1449 c 0,69,70
 1009 1465 1009 1465 1029 1471 c 1,71,72
 1002 1473 1002 1473 967 1473 c 2,73,-1
 825 1473 l 2,74,75
 649 1473 649 1473 465 1271 c 1,76,-1
 444 1285 l 1,77,78
 603 1530 603 1530 844 1530 c 2,79,-1
 966 1530 l 2,55,56
EndSplineSet
Validated: 1
EndChar

StartChar: uni2126
Encoding: 8486 8486 134
Width: 1424
GlyphClass: 2
Flags: W
HStem: 0 125<170.887 543 947 1302.04> 1455 75<957.836 1228.15>
VStem: 315 207<375.885 804.244> 1339 205<828.08 1277.86>
LayerCount: 2
Fore
SplineSet
198 0 m 2,0,1
 159 0 159 0 159 31 c 0,2,3
 159 39 159 39 162 50 c 2,4,-1
 169 75 l 2,5,6
 183 125 183 125 232 125 c 2,7,-1
 543 125 l 1,8,-1
 552 156 l 1,9,10
 472 210 472 210 421 274 c 0,11,12
 315 408 315 408 315 592 c 0,13,14
 315 691 315 691 346 805 c 0,15,16
 441 1153 441 1153 717 1376 c 0,17,18
 908 1530 908 1530 1122 1530 c 128,-1,19
 1336 1530 1336 1530 1445 1376 c 0,20,21
 1544 1235 1544 1235 1544 1045 c 0,22,23
 1544 933 1544 933 1510 805 c 0,24,25
 1423 480 1423 480 1149 274 c 0,26,27
 1064 210 1064 210 956 156 c 1,28,-1
 947 125 l 1,29,-1
 1274 125 l 2,30,31
 1314 125 1314 125 1314 94 c 0,32,33
 1314 86 1314 86 1311 75 c 2,34,-1
 1304 50 l 2,35,36
 1290 0 1290 0 1240 0 c 2,37,-1
 878 0 l 2,38,39
 838 0 838 0 838 31 c 0,40,41
 838 39 838 39 841 50 c 2,42,-1
 877 182 l 1,43,44
 969 256 969 256 1043 335 c 0,45,46
 1212 515 1212 515 1276 755 c 0,47,48
 1339 993 1339 993 1339 1146 c 0,49,50
 1339 1259 1339 1259 1305 1327 c 0,51,52
 1240 1455 1240 1455 1102 1455 c 128,-1,53
 964 1455 964 1455 833 1324 c 0,54,55
 658 1150 658 1150 552 755 c 0,56,57
 522 643 522 643 522 544 c 0,58,59
 522 421 522 421 558 331 c 0,60,61
 583 270 583 270 645 182 c 1,62,-1
 609 50 l 2,63,64
 595 0 595 0 546 0 c 2,65,-1
 198 0 l 2,0,1
EndSplineSet
Validated: 1
EndChar

StartChar: estimated
Encoding: 8494 8494 135
Width: 1330
GlyphClass: 2
Flags: W
HStem: -20 92<481.188 883.725> 525 80<510 1145> 1036 84<733.26 1127.8>
VStem: 222 1175<377 709>
LayerCount: 2
Fore
SplineSet
660 -20 m 0,0,1
 404 -20 404 -20 293 139 c 0,2,3
 222 241 222 241 222 377 c 0,4,5
 222 458 222 458 247 550 c 0,6,7
 311 788 311 788 504 952 c 24,8,9
 702 1120 702 1120 966 1120 c 0,10,11
 1208 1120 1208 1120 1318 961 c 272,12,13
 1397 846 1397 846 1397 709 c 0,14,15
 1397 623 1397 623 1371 525 c 1,16,-1
 489 525 l 1,17,-1
 399 192 l 1,18,19
 478 72 478 72 685 72 c 256,20,21
 808 72 808 72 915 132 c 0,22,23
 1011 186 1011 186 1082 266 c 1,24,-1
 1159 204 l 1,25,26
 1063 113 1063 113 964 61 c 0,27,28
 811 -20 811 -20 660 -20 c 0,0,1
510 605 m 1,29,-1
 1145 605 l 1,30,-1
 1225 903 l 1,31,32
 1143 1036 1143 1036 944 1036 c 0,33,34
 753 1036 753 1036 593 914 c 1,35,-1
 510 605 l 1,29,-1
EndSplineSet
Validated: 1
EndChar

StartChar: partialdiff
Encoding: 8706 8706 136
Width: 1285
GlyphClass: 2
Flags: W
HStem: -20 153<438.336 709.146> 879 161<770.93 1040.24> 1378 152<859.253 1188.63>
VStem: 226 189<159.033 438.151> 1243 185<932.032 1323.56>
LayerCount: 2
Fore
SplineSet
507 -20 m 0,0,1
 226 -20 226 -20 226 217 c 0,2,3
 226 286 226 286 250 375 c 0,4,5
 319 631 319 631 504 815 c 0,6,7
 732 1040 732 1040 951 1040 c 0,8,9
 1110 1040 1110 1040 1191 894 c 1,10,11
 1243 1091 1243 1091 1243 1185 c 0,12,13
 1243 1215 1243 1215 1239 1239 c 0,14,15
 1215 1378 1215 1378 1047 1378 c 0,16,17
 916 1378 916 1378 767 1294 c 1,18,-1
 813 1468 l 1,19,20
 964 1530 964 1530 1113 1530 c 0,21,22
 1428 1530 1428 1530 1428 1213 c 0,23,24
 1428 1095 1428 1095 1385 934 c 0,25,26
 1281 545 1281 545 1037 262.5 c 128,-1,27
 793 -20 793 -20 507 -20 c 0,0,1
561 133 m 0,28,29
 699 133 699 133 849.5 286 c 128,-1,30
 1000 439 1000 439 1102 680 c 1,31,32
 1102 766 1102 766 1053 822.5 c 128,-1,33
 1004 879 1004 879 928 879 c 0,34,35
 773 879 773 879 626 710 c 0,36,37
 479 540 479 540 433 369 c 0,38,39
 415 302 415 302 415 248 c 0,40,41
 415 133 415 133 561 133 c 0,28,29
EndSplineSet
Validated: 1
EndChar

StartChar: uni2206
Encoding: 8710 8710 137
Width: 1418
GlyphClass: 2
Flags: W
HStem: 0 90<180 1199>
DStem2: 5 0 180 90 0.587395 0.8093<175.631 1586.8> 1145 1550 1009 1232 0.170375 -0.985379<290.18 1447.85>
LayerCount: 2
Fore
SplineSet
180 90 m 1,0,-1
 1199 90 l 1,1,-1
 1009 1232 l 1,2,-1
 180 90 l 1,0,-1
5 0 m 25,3,-1
 1130 1550 l 1,4,-1
 1145 1550 l 1,5,-1
 1413 0 l 25,6,-1
 5 0 l 25,3,-1
EndSplineSet
Validated: 1
EndChar

StartChar: product
Encoding: 8719 8719 138
Width: 1528
GlyphClass: 2
Flags: W
HStem: -410 21G<161 306 1009 1154> 1419 91<820 1468>
DStem2: 130.603 -410 330.603 -410 0.258819 0.965926<39.8087 1945.11> 978.603 -410 1178.6 -410 0.258819 0.965926<39.8087 1893.34>
LayerCount: 2
Fore
SplineSet
181 -410 m 2,0,1
 141 -410 141 -410 141 -379 c 0,2,3
 141 -371 141 -371 144 -360 c 2,4,-1
 631 1460 l 2,5,6
 644 1510 644 1510 695 1510 c 2,7,-1
 1643 1510 l 2,8,9
 1682 1510 1682 1510 1682 1479 c 0,10,11
 1682 1471 1682 1471 1679 1460 c 2,12,-1
 1192 -360 l 2,13,14
 1179 -410 1179 -410 1129 -410 c 2,15,-1
 1029 -410 l 2,16,17
 989 -410 989 -410 989 -379 c 0,18,19
 989 -371 989 -371 992 -360 c 2,20,-1
 1468 1419 l 1,21,-1
 820 1419 l 1,22,-1
 344 -360 l 2,23,24
 331 -410 331 -410 281 -410 c 2,25,-1
 181 -410 l 2,0,1
EndSplineSet
Validated: 1
EndChar

StartChar: summation
Encoding: 8721 8721 139
Width: 1388
GlyphClass: 2
Flags: W
HStem: -410 90<273 1096.67> -21 20G<1110 1164> 1420 90<715 1370.75>
VStem: 1007 259<-231.062 -40.7072> 1243 275<1202.12 1379.78>
DStem2: -26 -395 273 -320 0.643096 0.765786<249.72 1214.44> 715 1420 481 1495 0.274457 -0.9616<0 861.994>
LayerCount: 2
Fore
SplineSet
-30 -410 m 1,0,-1
 -26 -395 l 9,1,-1
 755 535 l 1,2,-1
 481 1495 l 1,3,-1
 485 1510 l 9,4,-1
 1288 1510 l 2,5,6
 1400 1510 1400 1510 1462 1452 c 0,7,8
 1518 1400 1518 1400 1518 1330 c 0,9,10
 1518 1295 1518 1295 1509 1266 c 0,11,12
 1497 1226 1497 1226 1468 1196 c 0,13,14
 1428 1155 1428 1155 1372 1155 c 0,15,16
 1318 1155 1318 1155 1280.5 1193.5 c 128,-1,17
 1243 1232 1243 1232 1243 1287 c 128,-1,18
 1243 1342 1243 1342 1281 1381 c 0,19,20
 1315 1416 1315 1416 1373 1418 c 1,21,-1
 1373 1420 l 1,22,-1
 715 1420 l 17,23,-1
 977 497 l 1,24,-1
 273 -320 l 1,25,-1
 936 -320 l 2,26,27
 1044 -320 1044 -320 1115 -263 c 1,28,29
 1075 -257 1075 -257 1045 -226 c 0,30,31
 1007 -188 1007 -188 1007 -133 c 128,-1,32
 1007 -78 1007 -78 1045 -39.5 c 128,-1,33
 1083 -1 1083 -1 1137 -1 c 128,-1,34
 1191 -1 1191 -1 1228.5 -39.5 c 128,-1,35
 1266 -78 1266 -78 1266 -133 c 0,36,37
 1266 -154 1266 -154 1259 -182 c 0,38,39
 1233 -285 1233 -285 1138 -349 c 0,40,41
 1048 -410 1048 -410 919 -410 c 2,42,-1
 -30 -410 l 1,0,-1
EndSplineSet
Validated: 1
EndChar

StartChar: minus
Encoding: 8722 8722 140
Width: 1133
GlyphClass: 2
Flags: W
HStem: 680 150<360.77 1176.94>
LayerCount: 2
Fore
SplineSet
422 830 m 2,0,-1
 1155 830 l 2,1,2
 1195 830 1195 830 1195 799 c 0,3,4
 1195 791 1195 791 1192 780 c 2,5,-1
 1179 730 l 2,6,7
 1166 680 1166 680 1115 680 c 2,8,-1
 382 680 l 2,9,10
 343 680 343 680 343 711 c 0,11,12
 343 720 343 720 346 730 c 2,13,-1
 359 780 l 2,14,15
 372 830 372 830 422 830 c 2,0,-1
EndSplineSet
Validated: 1
EndChar

StartChar: uni2215
Encoding: 8725 8725 141
Width: 1012
GlyphClass: 2
Flags: W
DStem2: 37 65 151 -15 0.645378 0.763863<-37.0624 1957.41>
LayerCount: 2
Fore
SplineSet
103 -40 m 0,0,1
 91 -40 91 -40 78 -31 c 2,2,-1
 37 -3 l 2,3,4
 19 9 19 9 19 27 c 0,5,6
 19 31 19 31 20 36 c 0,7,8
 23 48 23 48 37 65 c 2,9,-1
 1268 1522 l 2,10,11
 1292 1550 1292 1550 1313 1550 c 0,12,13
 1328 1550 1328 1550 1341 1541 c 2,14,-1
 1381 1513 l 2,15,16
 1398 1501 1398 1501 1398 1483 c 0,17,18
 1398 1477 1398 1477 1397 1473 c 0,19,20
 1393 1456 1393 1456 1381 1442 c 2,21,-1
 151 -15 l 2,22,23
 130 -40 130 -40 103 -40 c 0,0,1
EndSplineSet
Validated: 1
EndChar

StartChar: uni2219
Encoding: 8729 8729 142
Width: 359
GlyphClass: 2
Flags: W
HStem: 625 264<292.191 473.324>
VStem: 253 259<664.707 849.293>
LayerCount: 2
Fore
SplineSet
383 889 m 128,-1,1
 437 889 437 889 474.5 850.5 c 128,-1,2
 512 812 512 812 512 757 c 128,-1,3
 512 702 512 702 474.5 663.5 c 128,-1,4
 437 625 437 625 383 625 c 128,-1,5
 329 625 329 625 291 663.5 c 128,-1,6
 253 702 253 702 253 757 c 128,-1,7
 253 812 253 812 291 850.5 c 128,-1,0
 329 889 329 889 383 889 c 128,-1,1
EndSplineSet
Validated: 1
EndChar

StartChar: radical
Encoding: 8730 8730 143
Width: 1338
GlyphClass: 2
Flags: W
HStem: 741 90<261 431> 1550 90<1573 1755>
DStem2: 600 801 431 741 0.127004 -0.991902<38.0504 489.582> 667 316 546 -40 0.542572 0.840009<0 1528.14>
LayerCount: 2
Fore
SplineSet
531 -40 m 1,0,-1
 431 741 l 1,1,-1
 279 741 l 2,2,3
 255 741 255 741 255 759 c 0,4,5
 255 764 255 764 257 771 c 2,6,-1
 265 801 l 2,7,8
 273 831 273 831 303 831 c 2,9,-1
 563 831 l 2,10,11
 596 831 596 831 600 801 c 2,12,-1
 667 316 l 1,13,-1
 1504 1610 l 2,14,15
 1523 1640 1523 1640 1557 1640 c 2,16,-1
 1737 1640 l 2,17,18
 1761 1640 1761 1640 1761 1621 c 0,19,20
 1761 1618 1761 1618 1759 1610 c 2,21,-1
 1751 1580 l 2,22,23
 1743 1550 1743 1550 1713 1550 c 2,24,-1
 1573 1550 l 1,25,-1
 546 -40 l 1,26,-1
 531 -40 l 1,0,-1
EndSplineSet
Validated: 1
EndChar

StartChar: infinity
Encoding: 8734 8734 144
Width: 1658
GlyphClass: 2
Flags: W
HStem: 362 167<490.843 751.75> 362 79<1144.59 1397.87> 981 167<1311.25 1572.05> 1069 79<664.994 918.409>
VStem: 335 111<574.477 834.225> 1617 110<675.775 935.523>
DStem2: 890 710 1059 645 0.59249 0.805578<-225.195 465.372>
LayerCount: 2
Fore
SplineSet
804 1148 m 0,0,1
 923 1148 923 1148 988 1089 c 0,2,3
 997 1081 997 1081 997 1073 c 0,4,5
 997 1070 997 1070 996 1066 c 0,6,7
 994 1058 994 1058 984 1047 c 2,8,-1
 970 1032 l 2,9,10
 957 1018 957 1018 944 1018 c 0,11,12
 935 1018 935 1018 926 1025 c 0,13,14
 869 1069 869 1069 796 1069 c 0,15,16
 694 1069 694 1069 584 972 c 0,17,18
 480 881 480 881 453 758 c 0,19,20
 446 727 446 727 446 698 c 0,21,22
 446 641 446 641 474 595 c 0,23,24
 514 529 514 529 618 529 c 0,25,26
 757 529 757 529 890 710 c 2,27,-1
 1004 865 l 2,28,29
 1212 1148 1212 1148 1435 1148 c 0,30,31
 1604 1148 1604 1148 1677 1042 c 0,32,33
 1727 971 1727 971 1727 875 c 0,34,35
 1727 818 1727 818 1709 752 c 0,36,37
 1665 586 1665 586 1523 468 c 0,38,39
 1397 362 1397 362 1259 362 c 0,40,41
 1140 362 1140 362 1075 421 c 0,42,43
 1066 429 1066 429 1066 437 c 0,44,45
 1066 440 1066 440 1067 444 c 0,46,47
 1069 452 1069 452 1079 463 c 2,48,-1
 1093 478 l 2,49,50
 1106 492 1106 492 1119 492 c 0,51,52
 1128 492 1128 492 1137 485 c 0,53,54
 1194 441 1194 441 1267 441 c 0,55,56
 1369 441 1369 441 1479 538 c 0,57,58
 1583 629 1583 629 1610 752 c 0,59,60
 1617 783 1617 783 1617 812 c 0,61,62
 1617 869 1617 869 1589 915 c 0,63,64
 1549 981 1549 981 1445 981 c 0,65,66
 1306 981 1306 981 1173 800 c 2,67,-1
 1059 645 l 2,68,69
 851 362 851 362 628 362 c 0,70,71
 459 362 459 362 385 468 c 0,72,73
 335 539 335 539 335 635 c 0,74,75
 335 692 335 692 353 758 c 0,76,77
 397 924 397 924 539 1042 c 0,78,79
 666 1148 666 1148 804 1148 c 0,0,1
EndSplineSet
Validated: 1
EndChar

StartChar: approxequal
Encoding: 8776 8776 145
Width: 1193
GlyphClass: 2
Flags: W
HStem: 406 151<877.816 1065.63> 568 151<428.88 617.644> 804 151<984.356 1170.38> 966 151<535.335 724.184>
DStem2: 921 580 574 545 0.895258 -0.445547<-361.138 66.9727> 1028 978 681 943 0.895258 -0.445547<-362.033 66.0777>
LayerCount: 2
Fore
SplineSet
585 719 m 0,0,1
 642 719 642 719 706 687 c 2,2,-1
 921 580 l 2,3,4
 967 557 967 557 1000 557 c 0,5,6
 1115 557 1115 557 1210 693 c 1,7,-1
 1229 693 l 1,8,9
 1132 406 1132 406 911 406 c 0,10,11
 854 406 854 406 789 438 c 2,12,-1
 574 545 l 2,13,14
 528 568 528 568 494 568 c 0,15,16
 380 568 380 568 286 432 c 1,17,-1
 266 432 l 1,18,19
 361 719 361 719 585 719 c 0,0,1
691 1117 m 0,20,21
 748 1117 748 1117 813 1085 c 2,22,-1
 1028 978 l 2,23,24
 1074 955 1074 955 1107 955 c 0,25,26
 1222 955 1222 955 1316 1091 c 1,27,-1
 1335 1091 l 1,28,29
 1238 804 1238 804 1017 804 c 0,30,31
 960 804 960 804 896 836 c 2,32,-1
 681 943 l 2,33,34
 635 966 635 966 601 966 c 0,35,36
 487 966 487 966 392 830 c 1,37,-1
 372 830 l 1,38,39
 467 1117 467 1117 691 1117 c 0,20,21
EndSplineSet
Validated: 1
EndChar

StartChar: notequal
Encoding: 8800 8800 146
Width: 1133
GlyphClass: 2
Flags: W
HStem: 490 150<309.77 488 604 614 731 1125.94> 870 150<411.77 809 926 936 1053 1227.94>
DStem2: 279 242 352 192 0.645782 0.763522<-30.7321 324.322 595.775 821.756 1093.86 1441.1>
LayerCount: 2
Fore
SplineSet
1220 1334 m 0,0,1
 1233 1334 1233 1334 1243 1327 c 2,2,-1
 1258 1316 l 2,3,4
 1273 1305 1273 1305 1273 1293 c 0,5,6
 1273 1288 1273 1288 1272 1284 c 0,7,8
 1269 1276 1269 1276 1257 1262 c 2,9,-1
 1053 1020 l 1,10,-1
 1206 1020 l 2,11,12
 1246 1020 1246 1020 1246 989 c 0,13,14
 1246 982 1246 982 1243 970 c 2,15,-1
 1230 920 l 2,16,17
 1217 870 1217 870 1166 870 c 2,18,-1
 926 870 l 1,19,-1
 731 640 l 1,20,-1
 1104 640 l 2,21,22
 1144 640 1144 640 1144 609 c 0,23,24
 1144 602 1144 602 1141 590 c 2,25,-1
 1128 540 l 2,26,27
 1115 490 1115 490 1064 490 c 2,28,-1
 604 490 l 1,29,-1
 352 192 l 2,30,31
 333 170 333 170 316 170 c 0,32,33
 303 170 303 170 293 177 c 2,34,-1
 278 188 l 2,35,36
 264 198 264 198 264 211 c 0,37,38
 264 216 264 216 265 219 c 0,39,40
 269 230 269 230 279 242 c 2,41,-1
 488 490 l 1,42,-1
 331 490 l 2,43,44
 292 490 292 490 292 521 c 0,45,46
 292 528 292 528 295 540 c 2,47,-1
 308 590 l 2,48,49
 321 640 321 640 371 640 c 2,50,-1
 614 640 l 1,51,-1
 809 870 l 1,52,-1
 433 870 l 2,53,54
 394 870 394 870 394 901 c 0,55,56
 394 908 394 908 397 920 c 2,57,-1
 410 970 l 2,58,59
 423 1020 423 1020 473 1020 c 2,60,-1
 936 1020 l 1,61,-1
 1184 1312 l 2,62,63
 1203 1334 1203 1334 1220 1334 c 0,0,1
EndSplineSet
Validated: 1
EndChar

StartChar: lessequal
Encoding: 8804 8804 147
Width: 1233
GlyphClass: 2
Flags: W
HStem: 190 150<279.906 1095.09>
DStem2: 597 902 461 788 0.84286 -0.538133<0 590.922> 510 969 597 902 0.897272 0.441477<48.4837 854.439>
LayerCount: 2
Fore
SplineSet
1285 1345 m 0,0,1
 1299 1345 1299 1345 1305 1326 c 2,2,-1
 1317 1291 l 2,3,4
 1319 1283 1319 1283 1319 1277 c 0,5,6
 1319 1270 1319 1270 1317 1265 c 0,7,8
 1311 1253 1311 1253 1291 1243 c 2,9,-1
 597 902 l 1,10,-1
 1092 587 l 2,11,12
 1111 575 1111 575 1111 557 c 0,13,14
 1111 553 1111 553 1110 549 c 0,15,16
 1107 537 1107 537 1092 519 c 2,17,-1
 1054 474 l 2,18,19
 1031 447 1031 447 1008 447 c 0,20,21
 995 447 995 447 981 456 c 2,22,-1
 461 788 l 2,23,24
 427 810 427 810 427 840 c 0,25,26
 427 847 427 847 430 858 c 2,27,-1
 441 899 l 2,28,29
 452 940 452 940 510 969 c 2,30,-1
 1262 1339 l 2,31,32
 1274 1345 1274 1345 1285 1345 c 0,0,1
341 340 m 2,33,-1
 1074 340 l 2,34,35
 1114 340 1114 340 1114 309 c 0,36,37
 1114 301 1114 301 1111 290 c 2,38,-1
 1097 240 l 2,39,40
 1084 190 1084 190 1034 190 c 2,41,-1
 301 190 l 2,42,43
 261 190 261 190 261 221 c 0,44,45
 261 229 261 229 264 240 c 2,46,-1
 278 290 l 2,47,48
 291 340 291 340 341 340 c 2,33,-1
EndSplineSet
Validated: 1
EndChar

StartChar: greaterequal
Encoding: 8805 8805 148
Width: 1233
GlyphClass: 2
Flags: W
HStem: 190 150<279.906 1095.09>
DStem2: 1116 890 451 453 0.897272 0.441477<-805.956 0> 1252 1004 1116 890 0.84286 -0.538133<-644.204 -53.2817>
LayerCount: 2
Fore
SplineSet
705 1345 m 0,0,1
 718 1345 718 1345 732 1336 c 2,2,-1
 1252 1004 l 2,3,4
 1286 982 1286 982 1286 952 c 0,5,6
 1286 945 1286 945 1283 934 c 2,7,-1
 1272 893 l 2,8,9
 1261 852 1261 852 1203 823 c 2,10,-1
 451 453 l 2,11,12
 439 447 439 447 428 447 c 0,13,14
 414 447 414 447 408 466 c 2,15,-1
 396 501 l 2,16,17
 394 509 394 509 394 515 c 0,18,19
 394 522 394 522 396 527 c 0,20,21
 402 539 402 539 422 549 c 2,22,-1
 1116 890 l 1,23,-1
 621 1205 l 2,24,25
 602 1217 602 1217 602 1235 c 0,26,27
 602 1239 602 1239 603 1243 c 0,28,29
 606 1255 606 1255 621 1273 c 2,30,-1
 659 1318 l 2,31,32
 682 1345 682 1345 705 1345 c 0,0,1
341 340 m 2,33,-1
 1074 340 l 2,34,35
 1114 340 1114 340 1114 309 c 0,36,37
 1114 301 1114 301 1111 290 c 2,38,-1
 1097 240 l 2,39,40
 1084 190 1084 190 1034 190 c 2,41,-1
 301 190 l 2,42,43
 261 190 261 190 261 221 c 0,44,45
 261 229 261 229 264 240 c 2,46,-1
 278 290 l 2,47,48
 291 340 291 340 341 340 c 2,33,-1
EndSplineSet
Validated: 1
EndChar

StartChar: lozenge
Encoding: 9674 9674 149
Width: 1134
GlyphClass: 2
Flags: W
HStem: -20 21G<555.034 579.635> 1510 20G<959.854 983.489>
DStem2: 298 738 455 795 0.65087 0.759189<145.46 789.418> 455 795 298 738 0.328907 -0.944362<2.19022 619.464> 653 208 562 -20 0.661361 0.750068<0 635.909> 977 1530 874 1284 0.308623 -0.951185<202.203 828.34>
LayerCount: 2
Fore
SplineSet
653 208 m 1,0,-1
 1069 689 l 1,1,-1
 874 1284 l 1,2,-1
 455 795 l 1,3,-1
 653 208 l 1,0,-1
562 -20 m 1,4,-1
 298 738 l 1,5,-1
 977 1530 l 1,6,-1
 1233 741 l 1,7,-1
 562 -20 l 1,4,-1
EndSplineSet
Validated: 1
EndChar

StartChar: multiply
Encoding: 215 215 150
Width: 1060
Flags: W
HStem: 424 661
DStem2: 626 755 704 649 0.785158 0.619296<-380.441 -4.40309 171.642 546.3> 761 861 626 755 0.591499 -0.806306<-274.03 0 137.221 424.327>
LayerCount: 2
Fore
SplineSet
579 1085 m 0,0,1
 597 1085 597 1085 610 1067 c 2,2,-1
 761 861 l 1,3,-1
 1023 1067 l 2,4,5
 1046 1085 1046 1085 1062 1085 c 0,6,7
 1079 1085 1079 1085 1093 1067 c 2,8,-1
 1120 1032 l 2,9,10
 1128 1022 1128 1022 1128 1006 c 0,11,12
 1128 1001 1128 1001 1127 997 c 0,13,14
 1122 978 1122 978 1100 961 c 2,15,-1
 838 755 l 1,16,-1
 989 550 l 2,17,18
 999 537 999 537 999 524 c 0,19,20
 1000 520 1000 520 998 514 c 0,21,22
 994 497 994 497 970 478 c 2,23,-1
 926 443 l 2,24,25
 905 426 905 426 886 426 c 128,-1,26
 867 426 867 426 855 443 c 2,27,-1
 704 649 l 1,28,-1
 442 442 l 2,29,30
 419 424 419 424 402 424 c 0,31,32
 384 424 384 424 371 442 c 2,33,-1
 346 477 l 2,34,35
 336 491 336 491 336 503 c 0,36,37
 336 508 336 508 337 512 c 0,38,39
 342 530 342 530 365 548 c 2,40,-1
 626 755 l 1,41,-1
 475 961 l 2,42,43
 465 975 465 975 465 984 c 0,44,45
 465 990 465 990 467 996 c 0,46,47
 472 1013 472 1013 495 1032 c 2,48,-1
 539 1067 l 2,49,50
 562 1085 562 1085 579 1085 c 0,0,1
EndSplineSet
Validated: 1
EndChar

StartChar: divide
Encoding: 247 247 151
Width: 1133
Flags: W
HStem: 298 264<591.191 772.324> 680 150<360.77 1176.94> 943 264<764.191 945.324>
VStem: 552 259<337.707 522.293> 725 259<982.707 1167.29>
LayerCount: 2
Fore
SplineSet
682 298 m 128,-1,1
 628 298 628 298 590 336.5 c 128,-1,2
 552 375 552 375 552 430 c 128,-1,3
 552 485 552 485 590 523.5 c 128,-1,4
 628 562 628 562 682 562 c 128,-1,5
 736 562 736 562 773.5 523.5 c 128,-1,6
 811 485 811 485 811 430 c 128,-1,7
 811 375 811 375 773.5 336.5 c 128,-1,0
 736 298 736 298 682 298 c 128,-1,1
855 943 m 128,-1,9
 801 943 801 943 763 981.5 c 128,-1,10
 725 1020 725 1020 725 1075 c 128,-1,11
 725 1130 725 1130 763 1168.5 c 128,-1,12
 801 1207 801 1207 855 1207 c 128,-1,13
 909 1207 909 1207 946.5 1168.5 c 128,-1,14
 984 1130 984 1130 984 1075 c 128,-1,15
 984 1020 984 1020 946.5 981.5 c 128,-1,8
 909 943 909 943 855 943 c 128,-1,9
422 830 m 2,16,-1
 1155 830 l 2,17,18
 1195 830 1195 830 1195 799 c 0,19,20
 1195 791 1195 791 1192 780 c 2,21,-1
 1179 730 l 2,22,23
 1166 680 1166 680 1115 680 c 2,24,-1
 382 680 l 2,25,26
 343 680 343 680 343 711 c 0,27,28
 343 720 343 720 346 730 c 2,29,-1
 359 780 l 2,30,31
 372 830 372 830 422 830 c 2,16,-1
EndSplineSet
Validated: 1
EndChar

StartChar: g
Encoding: 103 103 152
Width: 1139
Flags: W
HStem: -430 61<227.559 504.077> -321 264<178.844 325.809> -20 75<479.022 707.412> 1045 75<724.369 961.565> 1080 20G<1098 1223.5>
VStem: 88 277<-281.293 -104.119> 207 190<155.258 564.155> 1004 239<863.5 1084.5>
DStem2: 663.782 -430 843.987 -430 0.258819 0.965926<324.987 542.436 576.325 1358.76 1486.77 1595.63>
LayerCount: 2
Fore
SplineSet
592 55 m 0,0,1
 678 55 678 55 746 114 c 0,2,3
 829 186 829 186 864 319 c 2,4,-1
 988 781 l 2,5,6
 1004 840 1004 840 1004 887 c 0,7,8
 1004 946 1004 946 979 986 c 0,9,10
 943 1045 943 1045 857 1045 c 0,11,12
 715 1045 715 1045 591 892 c 0,13,14
 498 777 498 777 438 550 c 0,15,16
 398 400 398 400 397 299 c 0,17,18
 397 247 397 247 408 208 c 0,19,20
 450 55 450 55 592 55 c 0,0,1
540 -20 m 0,21,22
 359 -20 359 -20 258 144 c 0,23,24
 207 227 207 227 207 345 c 0,25,26
 207 436 207 436 237 549 c 0,27,28
 303 794 303 794 475 956 c 0,29,30
 650 1120 650 1120 845 1120 c 0,31,32
 1008 1120 1008 1120 1049 1006 c 1,33,-1
 1060 1050 l 2,34,35
 1072 1100 1072 1100 1124 1100 c 2,36,-1
 1204 1100 l 2,37,38
 1243 1100 1243 1100 1243 1069 c 0,39,40
 1243 1061 1243 1061 1240 1050 c 2,41,-1
 986 100 l 2,42,43
 916 -162 916 -162 730 -302 c 0,44,45
 560 -430 560 -430 369 -430 c 0,46,47
 243 -430 243 -430 173 -381 c 0,48,49
 88 -322 88 -322 88 -224 c 0,50,51
 88 -179 88 -179 107 -141 c 0,52,53
 120 -115 120 -115 143 -94 c 0,54,55
 182 -57 182 -57 236 -57 c 128,-1,56
 290 -57 290 -57 327.5 -95.5 c 128,-1,57
 365 -134 365 -134 365 -189 c 128,-1,58
 365 -244 365 -244 327 -282.5 c 128,-1,59
 289 -321 289 -321 235 -321 c 0,60,61
 205 -321 205 -321 178 -306 c 1,62,63
 252 -369 252 -369 358 -369 c 0,64,65
 519 -369 519 -369 640 -246 c 0,66,67
 741 -144 741 -144 779 0 c 2,68,-1
 804 94 l 1,69,70
 708 -20 708 -20 540 -20 c 0,21,22
EndSplineSet
Validated: 1
EndChar

StartChar: k
Encoding: 107 107 153
Width: 1098
Flags: W
HStem: 0 21G<220 339 809 934> 856 264<1055.29 1242.32> 1490 20G<619.5 744.5>
VStem: 858 176<129.922 447.699>
DStem2: 189.603 0 370.127 0 0.258819 0.965926<428.74 1575.02> 778.603 0 958.603 0 0.258819 0.965926<34.624 351.525>
LayerCount: 2
Fore
SplineSet
240 0 m 2,0,1
 200 0 200 0 200 31 c 0,2,3
 200 39 200 39 203 50 c 2,4,-1
 581 1460 l 2,5,6
 594 1510 594 1510 645 1510 c 2,7,-1
 725 1510 l 2,8,9
 764 1510 764 1510 764 1479 c 0,10,11
 764 1471 764 1471 761 1460 c 2,12,-1
 469 369 l 1,13,14
 723 824 723 824 1036 1075 c 0,15,16
 1092 1120 1092 1120 1149.5 1120 c 128,-1,17
 1207 1120 1207 1120 1244 1081.5 c 128,-1,18
 1281 1043 1281 1043 1281 988 c 128,-1,19
 1281 933 1281 933 1243.5 894.5 c 128,-1,20
 1206 856 1206 856 1152 856 c 128,-1,21
 1098 856 1098 856 1060 894 c 0,22,23
 1032 923 1032 923 1025 961 c 1,24,25
 841 806 841 806 696 578 c 1,26,27
 1034 577 1034 577 1034 345 c 0,28,29
 1034 282 1034 282 1012 200 c 2,30,-1
 972 50 l 2,31,32
 959 0 959 0 909 0 c 2,33,-1
 829 0 l 2,34,35
 789 0 789 0 789 31 c 0,36,37
 789 39 789 39 792 50 c 2,38,-1
 842 240 l 2,39,40
 858 301 858 301 858 344 c 0,41,42
 858 488 858 488 651 507 c 1,43,44
 491 266 491 266 383 50 c 0,45,46
 358 0 358 0 320 0 c 2,47,-1
 240 0 l 2,0,1
EndSplineSet
Validated: 1
EndChar

StartChar: v
Encoding: 118 118 154
Width: 1172
Flags: W
HStem: -20 99<510.992 794.746> 1080 20G<509 634 1065.5 1143>
VStem: 274 181<135.104 475.938> 1116 151<527.26 854.564>
DStem2: 185.016 -20 364.552 -20 0.258819 0.965926<350.483 1171.31>
LayerCount: 2
Fore
SplineSet
572 -20 m 0,0,1
 386 -20 386 -20 311 107 c 0,2,3
 274 170 274 170 274 253 c 0,4,5
 274 312 274 312 293 383 c 2,6,-1
 471 1050 l 2,7,8
 484 1100 484 1100 534 1100 c 2,9,-1
 614 1100 l 2,10,11
 654 1100 654 1100 654 1069 c 0,12,13
 654 1061 654 1061 651 1050 c 2,14,-1
 472 381 l 2,15,16
 455 317 455 317 455 269 c 0,17,18
 455 218 455 218 472 178 c 0,19,20
 513 79 513 79 663 79 c 0,21,22
 848 79 848 79 977 230 c 0,23,24
 1060 327 1060 327 1097 468 c 0,25,26
 1116 541 1116 541 1116 612 c 0,27,28
 1116 687 1116 687 1095 751 c 0,29,30
 1073 817 1073 817 1024 863 c 0,31,32
 962 921 962 921 962 991 c 0,33,34
 962 1009 962 1009 966 1027 c 0,35,36
 976 1071 976 1071 1011 1097 c 0,37,38
 1042 1120 1042 1120 1089 1120 c 0,39,40
 1197 1120 1197 1120 1246 970 c 0,41,42
 1267 906 1267 906 1267 803 c 0,43,44
 1267 690 1267 690 1231 557 c 0,45,46
 1180 367 1180 367 1046 214 c 0,47,48
 842 -20 842 -20 572 -20 c 0,0,1
EndSplineSet
Validated: 1
EndChar

StartChar: w
Encoding: 119 119 155
Width: 1823
Flags: W
HStem: -20 110<501.314 724.311 1150.19 1445.75> 1080 20G<509 634 1160.5 1285.5 1716.5 1794>
VStem: 272 183<136.001 471.625> 1767 151<527.26 854.564>
DStem2: 185.141 -20 364.677 -20 0.258819 0.965926<342.029 1171.28> 836.016 -20 1015.55 -20 0.258819 0.965926<349.925 1171.1>
LayerCount: 2
Fore
SplineSet
526 -20 m 0,0,1
 361 -20 361 -20 297 114 c 0,2,3
 272 166 272 166 272 237 c 0,4,5
 272 304 272 304 295 390 c 2,6,-1
 471 1050 l 2,7,8
 484 1100 484 1100 534 1100 c 2,9,-1
 614 1100 l 2,10,11
 654 1100 654 1100 654 1069 c 0,12,13
 654 1061 654 1061 651 1050 c 2,14,-1
 474 388 l 2,15,16
 455 317 455 317 455 260 c 0,17,18
 455 230 455 230 461 208 c 0,19,20
 493 90 493 90 628.5 90 c 128,-1,21
 764 90 764 90 860 210 c 0,22,23
 917 281 917 281 944 383 c 2,24,-1
 1122 1050 l 2,25,26
 1135 1100 1135 1100 1186 1100 c 2,27,-1
 1266 1100 l 2,28,29
 1305 1100 1305 1100 1305 1069 c 0,30,31
 1305 1061 1305 1061 1302 1050 c 2,32,-1
 1123 381 l 2,33,34
 1107 321 1107 321 1107 268 c 0,35,36
 1107 218 1107 218 1123 178 c 0,37,38
 1164 79 1164 79 1314 79 c 0,39,40
 1499 79 1499 79 1628 230 c 0,41,42
 1711 327 1711 327 1748 468 c 0,43,44
 1767 541 1767 541 1767 612 c 0,45,46
 1767 687 1767 687 1746 751 c 0,47,48
 1724 817 1724 817 1675 863 c 0,49,50
 1613 921 1613 921 1613 991 c 0,51,52
 1613 1009 1613 1009 1617 1027 c 0,53,54
 1627 1071 1627 1071 1662 1097 c 0,55,56
 1693 1120 1693 1120 1740 1120 c 0,57,58
 1848 1120 1848 1120 1897 970 c 0,59,60
 1918 906 1918 906 1918 803 c 0,61,62
 1918 690 1918 690 1882 557 c 0,63,64
 1831 367 1831 367 1697 214 c 0,65,66
 1493 -20 1493 -20 1223 -20 c 0,67,68
 1031 -20 1031 -20 962 107 c 0,69,70
 935 157 935 157 928 216 c 1,71,72
 875 132 875 132 784 62 c 0,73,74
 677 -20 677 -20 526 -20 c 0,0,1
EndSplineSet
Validated: 1
EndChar

StartChar: y
Encoding: 121 121 156
Width: 1210
Flags: W
HStem: -430 61<288.559 558.461> -321 264<239.844 386.809> -20 111<503.125 710.2> 1080 20G<509 634 1159.5 1284.5>
VStem: 149 277<-281.293 -104.119> 271 183<138.543 462.188>
DStem2: 74.2817 -430 254.282 -430 0.258819 0.965926<768.305 1595.55> 724.782 -430 904.987 -430 0.258819 0.965926<324.987 1595.66>
LayerCount: 2
Fore
SplineSet
525 -20 m 0,0,1
 360 -20 360 -20 296 114 c 0,2,3
 271 166 271 166 271 237 c 0,4,5
 271 304 271 304 294 390 c 2,6,-1
 471 1050 l 2,7,8
 484 1100 484 1100 534 1100 c 2,9,-1
 614 1100 l 2,10,11
 654 1100 654 1100 654 1069 c 0,12,13
 654 1061 654 1061 651 1050 c 2,14,-1
 474 390 l 2,15,16
 454 315 454 315 454 262 c 0,17,18
 454 232 454 232 460 209 c 0,19,20
 492 91 492 91 632 91 c 0,21,22
 763 91 763 91 859 210 c 0,23,24
 914 279 914 279 944 390 c 2,25,-1
 1121 1050 l 2,26,27
 1134 1100 1134 1100 1185 1100 c 2,28,-1
 1265 1100 l 2,29,30
 1304 1100 1304 1100 1304 1069 c 0,31,32
 1304 1061 1304 1061 1301 1050 c 2,33,-1
 1047 100 l 2,34,35
 977 -162 977 -162 791 -302 c 0,36,37
 621 -430 621 -430 430 -430 c 0,38,39
 304 -430 304 -430 234 -381 c 0,40,41
 149 -322 149 -322 149 -224 c 0,42,43
 149 -179 149 -179 168 -141 c 0,44,45
 181 -115 181 -115 204 -94 c 0,46,47
 243 -57 243 -57 297 -57 c 128,-1,48
 351 -57 351 -57 388.5 -95.5 c 128,-1,49
 426 -134 426 -134 426 -189 c 128,-1,50
 426 -244 426 -244 388 -282.5 c 128,-1,51
 350 -321 350 -321 296 -321 c 0,52,53
 266 -321 266 -321 239 -306 c 1,54,55
 313 -369 313 -369 419 -369 c 0,56,57
 565 -369 565 -369 701 -246 c 24,58,59
 798 -158 798 -158 840 0 c 2,60,-1
 891 192 l 1,61,62
 843 119 843 119 775 66 c 0,63,64
 663 -20 663 -20 525 -20 c 0,0,1
EndSplineSet
Validated: 1
EndChar

StartChar: z
Encoding: 122 122 157
Width: 1012
Flags: W
HStem: -20 74<541.707 849.579> 36 81<356 571.616> 983 81<753.225 945> 1046 74<500.381 778.858>
VStem: 306 259<754.707 944.357> 785 259<155.643 345.293>
DStem2: 27 -10 356 117 0.678833 0.734293<316.591 1352.32>
LayerCount: 2
Fore
SplineSet
38 -20 m 1,0,1
 27 -10 l 1,2,-1
 945 983 l 1,3,4
 844 983 844 983 765 1015 c 0,5,6
 687 1046 687 1046 637 1046 c 0,7,8
 530 1046 530 1046 457 977 c 1,9,10
 496 971 496 971 527 940 c 0,11,12
 565 902 565 902 565 847 c 128,-1,13
 565 792 565 792 527 753.5 c 128,-1,14
 489 715 489 715 435 715 c 128,-1,15
 381 715 381 715 343.5 753.5 c 128,-1,16
 306 792 306 792 306 847 c 0,17,18
 306 868 306 868 312 892 c 0,19,20
 340 996 340 996 434 1059 c 0,21,22
 524 1120 524 1120 649 1120 c 0,23,24
 697 1120 697 1120 833 1085 c 0,25,26
 914 1064 914 1064 1029 1064 c 0,27,28
 1137 1064 1137 1064 1264 1120 c 1,29,-1
 1274 1110 l 1,30,-1
 356 117 l 1,31,32
 477 117 477 117 557 85 c 0,33,34
 635 54 635 54 712 54 c 0,35,36
 820 54 820 54 893 123 c 1,37,38
 854 129 854 129 823 160 c 0,39,40
 785 198 785 198 785 253 c 128,-1,41
 785 308 785 308 823 346.5 c 128,-1,42
 861 385 861 385 915 385 c 128,-1,43
 969 385 969 385 1006.5 346.5 c 128,-1,44
 1044 308 1044 308 1044 253 c 0,45,46
 1044 232 1044 232 1038 208 c 0,47,48
 1010 104 1010 104 916 41 c 0,49,50
 826 -20 826 -20 701 -20 c 0,51,52
 625 -20 625 -20 489 15 c 0,53,54
 408 36 408 36 302 36 c 0,55,56
 178 36 178 36 38 -20 c 1,0,1
EndSplineSet
Validated: 1
EndChar

StartChar: x
Encoding: 120 120 158
Width: 911
Flags: W
HStem: 0 21G<85.5 171 642 768.5> 1080 20G<344.5 469 980 1034>
VStem: 877 259<888.147 1080.29>
DStem2: 672 462 326 1050 0.26963 -0.962964<-673.899 0 58.5055 94.7181 159.313 442.133>
LayerCount: 2
Fore
SplineSet
93 0 m 2,0,1
 78 0 78 0 78 10 c 0,2,3
 78 18 78 18 89 25 c 24,4,5
 353 196 353 196 523 340 c 1,6,-1
 326 1050 l 2,7,8
 325 1054 325 1054 325 1065 c 0,9,10
 326 1100 326 1100 363 1100 c 2,11,-1
 445 1100 l 2,12,13
 493 1100 493 1100 507 1050 c 2,14,-1
 672 462 l 1,15,16
 857 649 857 649 989 858 c 1,17,18
 952 858 952 858 915 894 c 0,19,20
 877 931 877 931 877 988 c 0,21,22
 877 1043 877 1043 915 1081.5 c 128,-1,23
 953 1120 953 1120 1007 1120 c 128,-1,24
 1061 1120 1061 1120 1098.5 1081.5 c 128,-1,25
 1136 1043 1136 1043 1136 988 c 0,26,27
 1136 946 1136 946 1107 897 c 0,28,29
 1089 867 1089 867 1055 816 c 0,30,31
 907 598 907 598 694 383 c 1,32,-1
 787 50 l 2,33,34
 788 46 788 46 788 35 c 0,35,36
 787 0 787 0 750 0 c 2,37,-1
 666 0 l 2,38,39
 618 0 618 0 604 50 c 2,40,-1
 545 261 l 1,41,42
 401 142 401 142 213 19 c 24,43,44
 184 0 184 0 158 0 c 2,45,-1
 93 0 l 2,0,1
EndSplineSet
Validated: 1
EndChar

StartChar: AE
Encoding: 198 198 159
Width: 1961
Flags: W
HStem: -20 75<1350.07 1662.83> 0 21G<10.5 84.5 1108.5 1246.5> 500 90<497 995> 1100 264<1878.19 2025.16> 1465 65<1725.23 1961.83> 1490 20G<888.5 1035.5>
VStem: 1008 228<402.255 498.676> 1355 192<979.69 1278.2> 1839 277<1149.65 1324.29> 1971 15<388.058 397>
DStem2: 4 25 112 25 0.562902 0.826524<0.0939231 635.772 744.497 1470.64> 1070 1460 870 1460 0.14319 -0.989695<-43.4098 109.528 243.735 750.665>
LayerCount: 2
Fore
SplineSet
21 0 m 2,0,1
 0 0 0 0 0 13 c 0,2,3
 0 19 0 19 4 25 c 2,4,-1
 888 1323 l 1,5,-1
 870 1460 l 2,6,7
 869 1468 869 1468 869 1475 c 0,8,9
 870 1510 870 1510 907 1510 c 2,10,-1
 1008 1510 l 2,11,12
 1063 1510 1063 1510 1070 1460 c 2,13,-1
 1177 717 l 1,14,15
 1196 737 1196 737 1218 755 c 0,16,17
 1358 873 1358 873 1533 886 c 1,18,19
 1451 913 1451 913 1407 969 c 0,20,21
 1355 1035 1355 1035 1355 1116 c 0,22,23
 1355 1154 1355 1154 1366 1195 c 0,24,25
 1408 1350 1408 1350 1558 1447 c 0,26,27
 1687 1530 1687 1530 1842 1530 c 0,28,29
 2001 1530 2001 1530 2076 1414 c 0,30,31
 2116 1352 2116 1352 2116 1284 c 0,32,33
 2116 1246 2116 1246 2105 1211 c 0,34,35
 2091 1169 2091 1169 2064 1141 c 0,36,37
 2024 1100 2024 1100 1968 1100 c 0,38,39
 1914 1100 1914 1100 1876.5 1138.5 c 128,-1,40
 1839 1177 1839 1177 1839 1232 c 128,-1,41
 1839 1287 1839 1287 1877 1325.5 c 128,-1,42
 1915 1364 1915 1364 1969 1364 c 0,43,44
 1999 1364 1999 1364 2026 1349 c 1,45,46
 1981 1465 1981 1465 1851 1465 c 0,47,48
 1735 1465 1735 1465 1654 1376 c 0,49,50
 1590 1306 1590 1306 1563 1204 c 0,51,52
 1547 1143 1547 1143 1547 1094 c 0,53,54
 1547 1035 1547 1035 1571 995 c 0,55,56
 1621 913 1621 913 1744 871 c 1,57,-1
 1740 856 l 1,58,59
 1579 836 1579 836 1457 755 c 0,60,61
 1310 657 1310 657 1260 470 c 0,62,63
 1236 381 1236 381 1236 312 c 0,64,65
 1236 235 1236 235 1266 182 c 0,66,67
 1337 55 1337 55 1493 55 c 0,68,69
 1652 55 1652 55 1785 168 c 0,70,71
 1885 253 1885 253 1971 397 c 1,72,-1
 1986 397 l 1,73,-1
 1937 211 l 1,74,75
 1888 159 1888 159 1835 117 c 0,76,77
 1662 -20 1662 -20 1466 -20 c 0,78,79
 1351 -20 1351 -20 1265 8 c 1,80,81
 1256 0 1256 0 1237 0 c 2,82,-1
 1136 0 l 2,83,84
 1081 0 1081 0 1074 50 c 2,85,-1
 1008 500 l 1,86,-1
 436 500 l 1,87,-1
 112 25 l 2,88,89
 95 0 95 0 74 0 c 2,90,-1
 21 0 l 2,0,1
995 590 m 1,91,-1
 906 1190 l 1,92,-1
 497 590 l 1,93,-1
 995 590 l 1,91,-1
EndSplineSet
Validated: 1
EndChar

StartChar: Eth
Encoding: 208 208 160
Width: 1444
Flags: W
HStem: 0 80<491.01 872.246> 599 90<255.054 420 644 914.946> 1440 90<798.764 1197.27>
VStem: 270 221<15.5 157.141> 1351 231<736.111 1245.42>
DStem2: 259.603 0 459.167 0 0.258819 0.965926<167.35 620.103 765.012 1254.06>
LayerCount: 2
Fore
SplineSet
310 0 m 2,0,1
 270 0 270 0 270 31 c 0,2,3
 270 39 270 39 273 50 c 2,4,-1
 420 599 l 1,5,-1
 273 599 l 2,6,7
 250 599 250 599 250 618 c 0,8,9
 250 625 250 625 251 629 c 2,10,-1
 259 659 l 2,11,12
 267 689 267 689 297 689 c 2,13,-1
 444 689 l 1,14,-1
 568 1150 l 2,15,16
 581 1200 581 1200 632 1200 c 2,17,-1
 732 1200 l 2,18,19
 771 1200 771 1200 771 1169 c 0,20,21
 771 1161 771 1161 768 1150 c 2,22,-1
 644 689 l 1,23,-1
 897 689 l 2,24,25
 920 689 920 689 920 670 c 0,26,27
 920 663 920 663 919 659 c 2,28,-1
 911 629 l 2,29,30
 903 599 903 599 873 599 c 2,31,-1
 620 599 l 1,32,-1
 494 130 l 2,33,34
 491 119 491 119 491 111 c 0,35,36
 491 80 491 80 531 80 c 2,37,-1
 689 80 l 2,38,39
 926 80 926 80 1113 317 c 0,40,41
 1238 476 1238 476 1312 755 c 0,42,43
 1351 902 1351 902 1351 1028 c 0,44,45
 1351 1114 1351 1114 1333 1192 c 0,46,47
 1275 1440 1275 1440 1013 1440 c 0,48,49
 618 1440 618 1440 283 1045 c 1,50,-1
 272 1053 l 1,51,52
 600 1530 600 1530 1067 1530 c 0,53,54
 1409 1530 1409 1530 1529 1266 c 0,55,56
 1582 1149 1582 1149 1582 1007 c 0,57,58
 1582 889 1582 889 1546 754 c 0,59,60
 1462 441 1462 441 1248 235 c 0,61,62
 1004 0 1004 0 694 0 c 2,63,-1
 310 0 l 2,0,1
EndSplineSet
Validated: 1
EndChar

StartChar: Dcroat
Encoding: 272 272 161
Width: 1444
Flags: W
HStem: 0 80<491.01 872.246> 599 90<255.054 420 644 914.946> 1440 90<798.764 1197.27>
VStem: 270 221<15.5 157.141> 1351 231<736.111 1245.42>
DStem2: 259.603 0 459.167 0 0.258819 0.965926<167.35 620.103 765.012 1254.06>
LayerCount: 2
Fore
SplineSet
310 0 m 2,0,1
 270 0 270 0 270 31 c 0,2,3
 270 39 270 39 273 50 c 2,4,-1
 420 599 l 1,5,-1
 273 599 l 2,6,7
 250 599 250 599 250 618 c 0,8,9
 250 625 250 625 251 629 c 2,10,-1
 259 659 l 2,11,12
 267 689 267 689 297 689 c 2,13,-1
 444 689 l 1,14,-1
 568 1150 l 2,15,16
 581 1200 581 1200 632 1200 c 2,17,-1
 732 1200 l 2,18,19
 771 1200 771 1200 771 1169 c 0,20,21
 771 1161 771 1161 768 1150 c 2,22,-1
 644 689 l 1,23,-1
 897 689 l 2,24,25
 920 689 920 689 920 670 c 0,26,27
 920 663 920 663 919 659 c 2,28,-1
 911 629 l 2,29,30
 903 599 903 599 873 599 c 2,31,-1
 620 599 l 1,32,-1
 494 130 l 2,33,34
 491 119 491 119 491 111 c 0,35,36
 491 80 491 80 531 80 c 2,37,-1
 689 80 l 2,38,39
 926 80 926 80 1113 317 c 0,40,41
 1238 476 1238 476 1312 755 c 0,42,43
 1351 902 1351 902 1351 1028 c 0,44,45
 1351 1114 1351 1114 1333 1192 c 0,46,47
 1275 1440 1275 1440 1013 1440 c 0,48,49
 618 1440 618 1440 283 1045 c 1,50,-1
 272 1053 l 1,51,52
 600 1530 600 1530 1067 1530 c 0,53,54
 1409 1530 1409 1530 1529 1266 c 0,55,56
 1582 1149 1582 1149 1582 1007 c 0,57,58
 1582 889 1582 889 1546 754 c 0,59,60
 1462 441 1462 441 1248 235 c 0,61,62
 1004 0 1004 0 694 0 c 2,63,-1
 310 0 l 2,0,1
EndSplineSet
Validated: 1
EndChar

StartChar: Hbar
Encoding: 294 294 162
Width: 1358
Flags: W
HStem: 0 21G<240 385 978 1123> 600 90<595 1108> 1220 90<424.054 537 761 1275 1499 1610.95> 1490 20G<639.5 784.5 1377.5 1522.5>
DStem2: 209.603 0 409.603 0 0.258819 0.965926<39.8087 672.833 766.237 1263.17 1408.07 1574.98> 947.603 0 1147.6 0 0.258819 0.965926<39.8087 621.069 714.473 1263.17 1408.07 1574.98>
LayerCount: 2
Fore
SplineSet
260 0 m 2,0,1
 220 0 220 0 220 31 c 0,2,3
 220 39 220 39 223 50 c 2,4,-1
 537 1220 l 1,5,-1
 442 1220 l 2,6,7
 419 1220 419 1220 419 1239 c 0,8,9
 419 1246 419 1246 420 1250 c 2,10,-1
 428 1280 l 2,11,12
 436 1310 436 1310 466 1310 c 2,13,-1
 561 1310 l 1,14,-1
 601 1460 l 2,15,16
 614 1510 614 1510 665 1510 c 2,17,-1
 765 1510 l 2,18,19
 804 1510 804 1510 804 1479 c 0,20,21
 804 1471 804 1471 801 1460 c 2,22,-1
 761 1310 l 1,23,-1
 1299 1310 l 1,24,-1
 1339 1460 l 2,25,26
 1352 1510 1352 1510 1403 1510 c 2,27,-1
 1503 1510 l 2,28,29
 1542 1510 1542 1510 1542 1479 c 0,30,31
 1542 1471 1542 1471 1539 1460 c 2,32,-1
 1499 1310 l 1,33,-1
 1593 1310 l 2,34,35
 1616 1310 1616 1310 1616 1291 c 0,36,37
 1616 1284 1616 1284 1615 1280 c 2,38,-1
 1607 1250 l 2,39,40
 1599 1220 1599 1220 1569 1220 c 2,41,-1
 1475 1220 l 1,42,-1
 1161 50 l 2,43,44
 1148 0 1148 0 1098 0 c 2,45,-1
 998 0 l 2,46,47
 958 0 958 0 958 31 c 0,48,49
 958 39 958 39 961 50 c 2,50,-1
 1108 600 l 1,51,-1
 570 600 l 1,52,-1
 423 50 l 2,53,54
 410 0 410 0 360 0 c 2,55,-1
 260 0 l 2,0,1
1275 1220 m 1,56,-1
 737 1220 l 1,57,-1
 595 690 l 1,58,-1
 1133 690 l 1,59,-1
 1275 1220 l 1,56,-1
EndSplineSet
Validated: 1
EndChar

StartChar: Lslash
Encoding: 321 321 163
Width: 1168
Flags: W
HStem: -20 74<705.503 1026.33> 36 85<442.348 736.663> 1490 20G<639.5 784.5>
VStem: 962 259<158.938 349.293>
DStem2: 204.321 -20 404.291 -20 0.258819 0.965926<193.589 493.793 601.496 664.661 772.364 1595.78> 360 561 231 406 0.89419 0.447689<-201.402 -71.5969 258.042 689.796>
LayerCount: 2
Fore
SplineSet
211 -20 m 1,0,-1
 207 -10 l 1,1,-1
 332 457 l 1,2,-1
 231 406 l 2,3,4
 221 401 221 401 212 401 c 0,5,6
 198 401 198 401 193 417 c 2,7,-1
 185 443 l 2,8,9
 183 450 183 450 183 454 c 128,-1,10
 183 458 183 458 184 462 c 0,11,12
 188 475 188 475 207 484 c 2,13,-1
 360 561 l 1,14,-1
 601 1460 l 2,15,16
 614 1510 614 1510 665 1510 c 2,17,-1
 765 1510 l 2,18,19
 804 1510 804 1510 804 1479 c 0,20,21
 804 1471 804 1471 801 1460 c 2,22,-1
 591 676 l 1,23,-1
 960 861 l 2,24,25
 970 866 970 866 979 866 c 0,26,27
 993 866 993 866 998 850 c 2,28,-1
 1006 824 l 2,29,30
 1007 821 1007 821 1007 817 c 128,-1,31
 1007 813 1007 813 1005 807 c 0,32,33
 999 790 999 790 984 783 c 2,34,-1
 563 572 l 1,35,-1
 441 117 l 1,36,37
 485 121 485 121 532 121 c 0,38,39
 628 121 628 121 720 85 c 0,40,41
 798 54 798 54 885 54 c 0,42,43
 1004 54 1004 54 1070 127 c 1,44,45
 1030 133 1030 133 1000 164 c 0,46,47
 962 202 962 202 962 257 c 128,-1,48
 962 312 962 312 1000 350.5 c 128,-1,49
 1038 389 1038 389 1092 389 c 128,-1,50
 1146 389 1146 389 1183.5 350.5 c 128,-1,51
 1221 312 1221 312 1221 257 c 0,52,53
 1221 236 1221 236 1214 208 c 0,54,55
 1188 105 1188 105 1093 41 c 0,56,57
 1003 -20 1003 -20 874 -20 c 0,58,59
 793 -20 793 -20 656 15 c 0,60,61
 576 36 576 36 495 36 c 0,62,63
 417 36 417 36 347 18 c 128,-1,64
 277 0 277 0 211 -20 c 1,0,-1
EndSplineSet
Validated: 1
EndChar

StartChar: Eng
Encoding: 330 330 164
Width: 1420
Flags: W
HStem: -430 21G<709 911> 0 21G<240.5 385.5> 1411 119<977.993 1243.94> 1490 20G<639 784>
VStem: 1312 202<969.719 1344.76>
DStem2: 95.3844 -430 295.384 -430 0.258819 0.965926<485.158 1801.96 1835.72 2020.22> 894.782 -430 1094.78 -430 0.258819 0.965926<273.352 1683.91>
LayerCount: 2
Fore
SplineSet
260 0 m 2,0,1
 221 0 221 0 221 31 c 0,2,3
 221 39 221 39 224 50 c 2,4,-1
 601 1460 l 2,5,6
 614 1510 614 1510 664 1510 c 2,7,-1
 764 1510 l 2,8,9
 804 1510 804 1510 804 1479 c 0,10,11
 804 1471 804 1471 801 1460 c 2,12,13
 754 1294 l 1,14,15
 783 1342 783 1342 840 1394 c 0,16,17
 989 1530 989 1530 1180 1530 c 0,18,19
 1417 1530 1417 1530 1494 1344 c 0,20,21
 1514 1296 1514 1296 1514 1226 c 0,22,23
 1514 1134 1514 1134 1478 1000 c 2,24,-1
 1210 0 l 2,25,26
 1117 -347 1117 -347 705 -430 c 1,27,-1
 709 -415 l 1,28,29
 930 -300 930 -300 1010 0 c 2,30,-1
 1279 1002 l 2,31,32
 1312 1125 1312 1125 1312 1204 c 0,33,34
 1312 1234 1312 1234 1307 1259 c 0,35,36
 1277 1411 1277 1411 1090 1411 c 0,37,38
 909 1411 909 1411 787 1244 c 0,39,40
 718 1149 718 1149 678 1000 c 2,41,-1
 424 50 l 2,42,43
 411 0 411 0 360 0 c 2,44,-1
 260 0 l 2,0,1
EndSplineSet
Validated: 1
EndChar

StartChar: Oslash
Encoding: 216 216 165
Width: 1365
Flags: W
HStem: -20 75<573.879 850.382> 1455 75<928.836 1192.14>
VStem: 260 204<222.097 694.495> 1308 202<818.233 1286.81>
DStem2: 329 -41 414 -75 0.534384 0.845242<-26.68 141.927 298.502 1642.74 1799.15 1967.33>
LayerCount: 2
Fore
SplineSet
678 -20 m 0,0,1
 564 -20 564 -20 478 26 c 1,2,-1
 414 -75 l 2,3,4
 397 -102 397 -102 374 -102 c 0,5,6
 363 -102 363 -102 356 -99 c 2,7,-1
 339 -92 l 2,8,9
 320 -84 320 -84 320 -67 c 0,10,11
 320 -63 320 -63 321 -59 c 0,12,13
 323 -50 323 -50 329 -41 c 2,14,-1
 404 78 l 1,15,16
 378 103 378 103 355 134 c 0,17,18
 260 265 260 265 260 461 c 0,19,20
 260 593 260 593 303 755 c 0,21,22
 409 1152 409 1152 688 1376 c 0,23,24
 879 1530 879 1530 1093 1530 c 0,25,26
 1209 1530 1209 1530 1294 1485 c 1,27,-1
 1357 1585 l 2,28,29
 1374 1612 1374 1612 1397 1612 c 0,30,31
 1407 1612 1407 1612 1414 1609 c 2,32,-1
 1431 1602 l 2,33,34
 1450 1594 1450 1594 1450 1578 c 0,35,36
 1450 1572 1450 1572 1449 1568 c 0,37,38
 1447 1559 1447 1559 1442 1551 c 2,39,-1
 1367 1433 l 1,40,41
 1393 1408 1393 1408 1416 1376 c 0,42,43
 1510 1242 1510 1242 1510 1047 c 0,44,45
 1510 915 1510 915 1467 755 c 0,46,47
 1359 353 1359 353 1085 139 c 0,48,49
 882 -20 882 -20 678 -20 c 0,0,1
539 123 m 1,50,51
 599 55 599 55 698 55 c 0,52,53
 849 55 849 55 973 185 c 0,54,55
 1143 364 1143 364 1247 755 c 0,56,57
 1308 983 1308 983 1308 1135 c 0,58,59
 1308 1234 1308 1234 1282 1300 c 1,60,-1
 539 123 l 1,50,51
489 211 m 1,61,-1
 1230 1385 l 1,62,63
 1168 1455 1168 1455 1073 1455 c 0,64,65
 935 1455 935 1455 804 1324 c 0,66,67
 629 1150 629 1150 523 755 c 0,68,69
 464 532 464 532 464 380 c 0,70,71
 464 280 464 280 489 211 c 1,61,-1
EndSplineSet
Validated: 1
EndChar

StartChar: OE
Encoding: 338 338 166
Width: 1925
Flags: W
HStem: -20 75<573.443 851.306 1316.06 1628.33> 1100 264<1843.19 1990.16> 1455 75<929.001 1197.7 1667.37 1945.15>
VStem: 259 204<224.968 694.315> 1305 207<967.994 1281.59> 1804 277<1149.65 1324.29> 1936 15<388.058 397>
LayerCount: 2
Fore
SplineSet
678 -20 m 0,0,1
 468 -20 468 -20 355 134 c 0,2,3
 259 264 259 264 259 460 c 0,4,5
 259 592 259 592 303 755 c 0,6,7
 409 1152 409 1152 688 1376 c 0,8,9
 879 1530 879 1530 1093 1530 c 0,10,11
 1313 1530 1313 1530 1416 1376 c 0,12,13
 1420 1370 1420 1370 1423 1364 c 1,14,15
 1465 1410 1465 1410 1523 1447 c 0,16,17
 1652 1530 1652 1530 1807 1530 c 0,18,19
 1966 1530 1966 1530 2041 1414 c 0,20,21
 2081 1352 2081 1352 2081 1284 c 0,22,23
 2081 1246 2081 1246 2070 1211 c 0,24,25
 2056 1169 2056 1169 2029 1141 c 0,26,27
 1989 1100 1989 1100 1933 1100 c 0,28,29
 1879 1100 1879 1100 1841.5 1138.5 c 128,-1,30
 1804 1177 1804 1177 1804 1232 c 128,-1,31
 1804 1287 1804 1287 1842 1325.5 c 128,-1,32
 1880 1364 1880 1364 1934 1364 c 0,33,34
 1964 1364 1964 1364 1991 1349 c 1,35,36
 1946 1465 1946 1465 1816 1465 c 0,37,38
 1700 1465 1700 1465 1619 1376 c 0,39,40
 1555 1306 1555 1306 1528 1204 c 0,41,42
 1512 1143 1512 1143 1512 1094 c 0,43,44
 1512 1035 1512 1035 1536 995 c 0,45,46
 1586 913 1586 913 1709 871 c 1,47,-1
 1705 856 l 1,48,49
 1578 840 1578 840 1476 786 c 1,50,51
 1472 771 1472 771 1467 755 c 0,52,53
 1385 449 1385 449 1206 251 c 1,54,55
 1214 213 1214 213 1231 182 c 0,56,57
 1299 55 1299 55 1458 55 c 128,-1,58
 1617 55 1617 55 1750 168 c 0,59,60
 1850 253 1850 253 1936 397 c 1,61,-1
 1951 397 l 1,62,-1
 1902 211 l 1,63,64
 1853 159 1853 159 1800 117 c 0,65,66
 1629 -20 1629 -20 1431 -20 c 0,67,68
 1187 -20 1187 -20 1077 104 c 0,69,70
 1069 113 1069 113 1061 121 c 1,71,72
 870 -20 870 -20 678 -20 c 0,0,1
698 55 m 0,73,74
 849 55 849 55 973 185 c 0,75,76
 1142 364 1142 364 1247 755 c 0,77,78
 1305 979 1305 979 1305 1132 c 0,79,80
 1305 1248 1305 1248 1272 1324 c 0,81,82
 1214 1455 1214 1455 1074.5 1455 c 128,-1,83
 935 1455 935 1455 804 1324 c 0,84,85
 629 1150 629 1150 523 755 c 0,86,87
 463 532 463 532 463 379 c 0,88,89
 463 261 463 261 499 186 c 0,90,91
 561 55 561 55 698 55 c 0,73,74
EndSplineSet
Validated: 1
EndChar

